<svg xmlns="http://www.w3.org/2000/svg" viewBox="0 0 300 300">
  <g fill="none" stroke="#c8a96a" stroke-width="1.5">

    <!-- Main central vine -->
    <path d="M150 250
             C148 220 160 210 150 180
             C140 150 160 140 150 110
             C145 80 160 60 150 40" />

    <!-- Branching swirls left -->
    <path d="M150 180
             C130 175 125 150 145 145
             C120 135 130 110 145 115" />
    <path d="M150 150
             C135 145 125 120 140 115" />
    <path d="M150 120
             C130 115 120 95 140 90" />

    <!-- Branching swirls right -->
    <path d="M150 180
             C170 175 175 150 160 145
             C180 135 170 110 160 115" />
    <path d="M150 150
             C165 145 175 120 160 115" />
    <path d="M150 120
             C170 115 180 95 160 90" />

    <!-- Faces -->
    <circle cx="150" cy="180" r="8" />
    <circle cx="140" cy="145" r="6" />
    <circle cx="160" cy="145" r="6" />
    <circle cx="145" cy="115" r="5" />
    <circle cx="155" cy="115" r="5" />
    <circle cx="140" cy="90" r="4" />
    <circle cx="160" cy="90" r="4" />

    <!-- Smiles -->
    <path d="M144 182 Q150 186 156 182" />
    <path d="M138 145 Q140 148 142 145" />
    <path d="M158 145 Q160 148 162 145" />
    <path d="M143 115 Q145 117 147 115" />
    <path d="M153 115 Q155 117 157 115" />
    <path d="M138 90 Q140 92 142 90" />
    <path d="M158 90 Q160 92 162 90" />

  </g>
</svg>
