<svg
    xmlns="http://www.w3.org/2000/svg"
    xmlns:xlink="http://www.w3.org/1999/xlink"
    viewBox="0 0 1024 1024"
    width="1024"
    height="1024">
    <path d="M 248.9 2.25 C 252.16744 14.200956 250.02055 26.905382 247.46481 38.79499 C 243.41533 49.989739 238.09655 60.783281 232.68533 71.333417 C 224.48677 80.250583 215.1199 88.410515 203.44901 92.351521 C 189.54798 98.403558 173.87077 100.69129 159.06402 96.76167 C 141.59503 93.992113 128.63137 78.97813 122.74487 63.080377 C 117.21941 47.244719 119.9415 25.992236 135.46571 16.775197 C 139.96594 14.710469 144.11176 10.828621 149.35879 11.395668 C 160.87951 10.644675 174.63673 10.540778 182.14216 20.970648 C 189.18273 30.699472 187.35544 45.130068 180.1273 54.239052 C 173.47358 60.742 160.19582 62.575705 153.77294 54.89125 C 149.06885 49.05875 148.63945 37.535449 157.24995 35.186834 C 164.47064 34.129973 164.21067 41.538615 161.44063 44.742125 C 168.76005 51.880799 167.63276 30.255856 159.37639 32.108174 C 146.56929 29.016859 142.19001 46.734115 149.4162 54.819031 C 152.17716 58.788975 156.58758 61.584965 160.852 63.497942 C 169.09674 64.013247 178.21922 62.493655 183.42166 55.355755 C 190.21383 46.880598 190.9052 35.067677 189.10893 24.848162 C 183.387 16.285255 177.22306 6.2045022 165.98127 4.8957012 C 160.88069 4.4071251 155.56629 2.9029205 150.73254 5.3210795 C 138.05335 8.6041946 125.1895 15.467932 120.05746 28.253477 C 116.34836 36.152205 116.14052 44.961039 115.5 53.5 C 108.81251 42.318914 99.134584 30.520391 85.20701 29.425706 C 76.975982 27.440635 62.888521 30.02045 64.254797 41.024648 C 64.630896 46.671622 76.23558 53.03494 77.5 45.5 C 78.15869 40.927967 67.389737 46.609094 69.132174 39.484223 C 73.415288 30.277925 87.416791 34.054414 94.636543 37.900788 C 112.95879 47.841561 115.89909 71.154476 130.46726 84.751058 C 142.79992 96.823617 159.72105 103.64674 176.86187 104.65763 C 182.83829 106.37508 166.97703 106.13644 163.80809 107.10903 C 145.2112 109.22719 129.02813 120.87707 118.53417 136.00305 C 110.48514 147.14376 104.58581 160.31262 92.963968 168.40885 C 82.89292 176.55708 68.569721 179.0376 56.282353 175.19736 C 45.200168 171.22137 36.615179 157.21747 42.400936 146.03183 C 46.73773 140.51879 61.312023 137.98745 61.910016 147.44129 C 58.930357 153.4034 57.7483 149.46129 56.479359 145.65983 C 50.838537 144.37117 51.254817 154.60484 54.091 156 C 61.491567 157.60521 69.941606 150.95268 66.037094 143.10834 C 63.750152 139.24508 59.343919 134.88125 54.447321 136.0402 C 47.275346 135.54342 39.905349 138.65303 38.092513 146.2209 C 34.000578 155.4505 36.553042 166.77438 44.624 173.008 C 57.086614 184.83836 77.626455 184.22566 91.704329 175.64772 C 98.970955 172.09474 104.92224 162.7001 110.52127 159.61159 C 111.06252 172.74282 110.69854 187.79951 121.18471 197.55485 C 128.8703 204.98694 138.85625 209.68623 149 212.594 C 141.51572 221.90729 134.12131 232.23138 133.39825 244.62143 C 132.08322 255.05023 136.05871 264.97414 140.46009 274.16975 C 133.65997 273.93463 124.01807 268.86541 115.68419 269.05643 C 100.34521 267.58032 81.582551 272.59837 75.118837 288.05161 C 73.64592 290.96038 72.117463 293.85877 72.992185 297.20696 C 73.144693 305.25101 74.365466 314.05097 81.364642 319.18511 C 88.361833 325.94306 100.48787 330.05218 108.44546 322.517 C 110.52559 319.35518 114.78846 315.32455 113.59312 311.20275 C 112.83438 303.18681 103.22293 296.38989 96.062402 301.79107 C 91.052983 304.55987 91.413147 309.51092 95.536373 312.91914 C 102.59073 316.4221 104.60668 305.41573 99.014822 305.06204 C 101.6325 303.06344 104.05627 302.38287 105.8829 305.72895 C 111.58853 309.85542 108.73896 319.53352 102.87927 321.16158 C 95.686228 320.7372 87.181092 321.42609 82.433713 314.81549 C 80.345634 311.83991 76.43501 309.43362 77.528153 305.31311 C 77.934236 300.76693 76.401101 295.71865 79.520925 291.87506 C 83.530028 282.63334 91.845306 275.15721 102.16042 274.21134 C 116.63774 271.55592 130.89528 276.44203 143.85242 282.48765 C 157.38078 288.54437 171.36203 295.39726 186.61766 294.42346 C 191.68668 294.09555 196.98917 295.0939 201.91175 293.91907 C 220.36026 288.50471 236.29143 275.9243 245.99288 259.32759 C 253.42029 248.58373 256.51799 235.7966 257.93688 223.0031 C 258.45737 218.70808 262.30986 215.68909 264.2897 211.97109 C 272.91541 198.52174 289.15852 188.78853 305.40687 191.84095 C 315.71542 193.78444 321.08274 204.78987 320 214.545 C 320.8801 218.32379 316.47887 219.915 314.60213 222.55187 C 309.88179 223.74638 302.49987 223.27092 300.30225 217.82148 C 300.23037 215.48949 296.52592 208.27743 300.87 209 C 304.067 209.96438 303.49894 219.62685 309.13763 214.18927 C 315.19937 203.71629 293.58095 201.83219 293.26341 212.19709 C 291.77358 225.4311 308.67642 232.46302 319.25 227.553 C 325.63972 225.17653 315.31074 235.78034 318.1317 239.67314 C 318.68165 248.37899 325.13435 256.21306 334.17441 256.60174 C 342.33329 258.24088 352.66487 249.23128 347.27571 241.1291 C 344.31474 238.81809 340.71252 234.23924 336.63486 236.87738 C 328.92698 236.84802 330.9729 246.50531 336.81703 246.72608 C 337.35115 239.26996 348.27029 245.0778 341.48995 250.4035 C 335.42725 251.40568 326.54483 251.46843 324.49069 244.11657 C 321.23537 234.10291 332.08735 226.68325 340.95015 226.48326 C 350.07406 226.38787 358.47411 232.2309 361.62072 240.78468 C 364.72732 244.93282 363.10645 250.20197 363.47306 254.99999 C 363.57404 258.69112 363.81359 262.41306 361.56042 265.58081 C 356.42906 279.05215 344.15409 288.48429 330.49695 292.23631 C 326.51439 294.0197 322.33904 294.64701 318.00004 294.29275 C 307.74239 294.7895 297.05381 293.41741 288.68092 286.92473 C 278.27138 280.7391 268.31106 268.94994 271.93054 256.11975 C 274.73572 245.4007 290.71541 245.87289 294.36031 255.62031 C 299.99627 262.8577 285.6021 269.1226 284.96786 261.64273 C 294.01949 256.7592 277.82995 252.1593 279.66188 261.16012 C 280.25343 274.75418 300.2015 270.45814 300.8584 259.12611 C 301.05206 251.43474 294.2138 243.9646 286.77763 242.48313 C 283.2252 242.54734 278.1269 240.34976 275.6613 243.79054 C 269.21042 249.14314 266.19924 257.47537 267 265.746 C 266.25857 271.40527 270.7673 275.8654 272.45337 280.97938 C 276.16782 288.67147 259.89 280.68465 254.88538 282.34788 C 247.29334 282.0983 239.56954 282.19216 232.03726 282.8394 C 218.60217 287.64366 206.16995 295.31806 196.88708 306.27902 C 182.58866 321.40102 179.56398 343.30992 181.90964 363.21157 C 182.30265 369.7811 184.29175 376.40947 182.26294 382.88389 C 179.70397 397.79524 170.13077 412.70577 155.55412 418.11125 C 145.4907 420.56913 131.65625 418.45441 127.9748 407.23033 C 127.05427 403.76229 124.63012 400.24356 126.66408 396.72612 C 128.71432 389.76706 138.4619 381.45741 145.38095 386.88892 C 152.61747 391.31971 140.13602 401.23321 143.61644 391.90264 C 138.69975 383.78811 134.67294 404.61875 145.19278 400.48141 C 156.31173 397.44988 151.78545 382.44164 142.60175 380.22813 C 129.868 379.16167 120.1633 392.64492 122.21412 404.62116 C 123.00431 415.11173 132.35706 421.91631 141.93628 423.94157 C 147.75833 424.81053 153.81842 424.60727 148.383 431.475 C 140.79539 446.33289 150.69968 467.05338 167.65117 468.96923 C 177.09701 470.95354 187.22011 464.89945 189.72792 455.59547 C 193.24719 445.01917 178.77468 434.77443 170.74588 443.22438 C 163.74698 448.27391 169.69904 459.68774 177.20217 452.75334 C 183.37753 449.80185 170.22826 442.64324 179.65096 445.18229 C 191.70097 449.03236 183.06165 464.79804 173.11543 463.94911 C 161.7353 464.51968 148.75632 455.03045 151.13495 442.5678 C 151.97489 431.95053 158.71492 421.67902 169.38642 418.86526 C 176.29791 416.27191 183.90344 414.86885 191.19963 414.9451 C 207.87942 421.91343 221.39004 434.34367 236.85431 443.37472 C 251.73585 450.93665 269.63135 450.66404 285.47522 446.61753 C 288.09113 445.94661 294.80154 442.35996 289.38546 447.25694 C 277.86165 457.97401 266.76107 470.39072 263.47271 486.29102 C 259.60702 501.88188 260.32239 518.10882 259.06171 533.96901 C 254.38985 548.11264 246.90892 563.25428 232.17346 568.95372 C 227.60644 570.49004 222.52308 571.19832 217.78437 571.04789 C 214.30918 569.20333 210.168 568.04661 207.08003 565.80147 C 203.55152 559.32819 199.78304 551.53469 204.044 544.409 C 204.79883 539.10062 218.15901 533.47149 218.09959 540.03227 C 205.05859 542.81495 220.29547 559.85191 225.51729 548.03318 C 230.27709 539.94179 223.51776 531.63755 214.73706 532.20502 C 211.08639 531.88133 206.94163 531.0598 204.93316 534.89825 C 194.63856 543.85224 194.94883 561.44862 205.6166 569.97354 C 212.51774 576.96554 222.63217 575.27874 231.5 575.5 C 243.68089 570.36497 254.20928 561.02816 259.00232 548.48021 C 263.35369 540.4469 262.18658 529.08997 265.51375 521.92161 C 270.1822 529.48166 274.38535 537.49124 280.97257 543.68188 C 289.18388 549.60579 287.53723 559.62475 289.45774 568.26185 C 293.04064 584.08262 303.91351 597.35967 317.68197 605.59747 C 320.56608 608.9628 336.67455 612.03161 324.538 613.367 C 306.63874 616 286.5722 624.94351 280.40385 643.37236 C 276.25385 656.61183 278.3545 674.82651 292.147 681.51762 C 302.56347 686.26885 316.68626 684.54396 323.51657 674.61946 C 326.62188 672.42486 324.39839 668.43947 324.68278 665.29691 C 325.26104 661.59062 323.09973 659.06435 320.30169 656.95552 C 314.20954 651.75918 303.85419 653.44347 300.48536 660.90862 C 299.09239 666.38982 308.80191 670.05114 313.15855 667.06418 C 317.11567 661.50551 298.54165 659.65361 310.6315 659.00375 C 321.46001 657.9376 323.94834 673.23014 314.9112 677.40389 C 306.4064 682.53732 294.94574 678.6035 288.50235 671.93577 C 282.97066 665.32369 283.2553 656.08375 283.74578 648.0389 C 287.87986 637.68968 295.70125 629.02982 305.84131 624.25514 C 311.65602 621.60562 317.69794 618.68679 323.99931 617.62337 C 340.87314 616.86395 357.91237 617.36584 374.61055 614.69373 C 384.65415 611.77845 393.67945 605.66481 403 601.675 C 397.26091 610.30296 391.5166 619.04849 387.6223 628.74557 C 382.29418 639.1818 381.05751 650.941 381.53 662.5 C 381.6654 667.97186 381.25394 673.55539 381.7192 678.9599 C 388.34097 695.65976 398.12789 711.10861 402.32461 728.72019 C 405.15216 742.32003 399.95208 756.76768 389.31616 765.6449 C 380.22015 774.04279 365.29476 774.21887 354.761 768.607 C 344.01474 760.93665 344.18374 740.90992 357.11936 735.60756 C 365.65375 730.20653 374.7002 746.33068 364.40137 747.60475 C 368.51943 742.04701 362.44129 734.82118 358.51313 742.5608 C 354.60568 755.13274 376.13993 754.35888 373 742.068 C 373.80477 738.63372 372.10004 736.2387 369.46492 734.22901 C 367.21599 732.0283 365.31595 728.98455 361.735 730 C 349.47706 728.90798 340.28889 741.99822 342.242 753.424 C 342.64033 767.63957 356.20139 779.17154 370.26392 777.65697 C 386.30361 776.64893 401.84816 765.78164 405.71101 749.71873 C 408.90382 739.76072 408.39122 729.03746 405.25931 719.15249 C 403.73367 709.70197 415.169 722.00732 419.69767 721.44879 C 424.63081 723.84246 430.92618 723.54427 435.71786 724.51804 C 439.85828 733.56746 444.46352 742.63337 452.16009 749.23514 C 461.76457 756.50421 444.59598 753.13724 440.44622 756.76329 C 420.64654 762.23902 404.72347 782.8901 409.04883 803.79635 C 411.06454 816.90787 423.65802 826.63239 436.782 825.99 C 444.58896 826.75254 452.75524 823.25376 456.17345 815.90655 C 462.32665 805.42647 450.75188 790.2026 439.061 794.975 C 428.84403 798.03763 434.20535 815.66105 443.56611 807.31973 C 447.26588 798.45613 432.56425 808.28983 438.36851 801.1276 C 447.67829 792.43091 458.39861 809.68753 449.80948 817.00425 C 443.26663 823.18035 432.03687 822.11305 424.55211 818.06356 C 410.5476 809.98469 411.00937 789.46027 419.6476 777.58744 C 430.15382 763.42515 448.93112 757.65964 465.97163 758.79902 C 473.32442 761.26843 480.60001 764.18196 487.99999 766.3799 C 495.14462 766.24347 502.37639 766.81102 509.46831 766.25026 C 529.42937 761.69937 549.62808 754.47846 564.07797 739.31495 C 574.56249 727.90668 580.29899 712.97802 585.59342 698.64212 C 587.25083 692.03931 589.98583 685.42838 589.0048 678.50379 C 588.56051 671.20141 588.84916 663.77121 587.95322 656.54758 C 585.14998 646.54577 580.91975 637.06629 576.34578 627.78261 C 580.31083 628.01494 585.96585 638.33066 591.80742 640.90568 C 600.57931 647.00815 611.34284 650.43382 621.92233 650.82671 C 630.60782 648.97938 640.50586 648.09759 646.13707 640.2552 C 653.75895 632.67246 654.79687 619.15293 648.50682 610.51359 C 645.57236 607.4255 641.78863 604.56358 638.00099 602.83751 C 631.00787 603.12799 622.80667 603.34472 618.745 610.139 C 613.62718 616.74219 615.44599 626.65667 622.045 631.499 C 627.68218 631.75084 635.90852 630.75718 635 623.089 C 637.30285 611.58873 616.1997 620.0853 628.7627 623.8241 C 626.9741 628.744 615.47623 621.19644 621.02188 614.74587 C 624.10964 604.08799 638.27398 606.45844 644.51705 612.78436 C 650.8978 619.8562 647.78094 631.72791 641.43981 637.84916 C 629.14856 648.94009 609.84763 645.79593 596.73675 637.85262 C 586.95073 632.20311 580.22782 622.39685 576.50174 612 C 576.67886 603.03299 576.27836 593.93529 576.80761 585.04792 C 583.7156 570.0819 591.83559 555.12697 604.03943 543.82421 C 614.95863 534.41948 633.49728 531.90165 644.38622 542.61156 C 651.22415 549.64917 650.77746 563.67416 640.94808 567.82919 C 636.71354 570.36619 626.47019 570.59806 624.97938 565.56049 C 623.86575 560.92269 628.66178 550.82924 629.12353 560.77133 C 630.27978 569.59525 637.22422 561.9053 635.83827 556.84015 C 634.92646 552.19952 626.60696 549.61014 623.32078 552.04352 C 621.69026 554.36331 618.83111 556.30588 620.0187 559.49238 C 619.74007 566.09613 622.99012 573.62988 630.3072 574.54843 C 640.43067 577.34807 650.356 569.98268 653.145 560.381 C 658.41562 549.9263 650.0829 538.37354 640.89439 533.59413 C 624.72916 525.25517 605.0622 533.21404 594.16794 546.42903 C 580.79288 560.80538 572.06548 579.84558 570.74791 599.48262 C 570.61512 606.90282 572.02734 614.22164 573.297 621.5 C 565.85831 614.05173 558.64471 606.31196 551.06638 599.04405 C 528.80198 585.92287 504.95968 573.02317 478.41277 572.89223 C 462.38761 572.06229 445.78303 573.60011 431.51519 581.52175 C 425.15652 584.3671 419.4958 588.4533 413.547 592 C 423.45077 581.53672 430.91688 568.69486 434.58416 554.70588 C 437.97944 547.17774 438.8639 537.38858 442.41467 530.84864 C 447.78123 539.51878 453.14738 548.7522 462.19068 554.23206 C 473.27017 560.85354 488.63864 565.63106 500.25137 557.50937 C 504.99365 554.65878 509.06664 550.29821 511.46721 545.4148 C 512.01695 538.8902 512.07141 532.28563 510.78939 525.89828 C 511.42321 517.94817 496.50643 515.44691 490.2054 518.64418 C 481.60603 521.9861 475.12119 535.94409 485.67759 541.18056 C 494.978 546.51234 505.52357 529.08027 492.19953 528.31548 C 486.69413 531.45046 497.90064 538.22699 487.95378 536.69773 C 479.88369 532.23185 489.90073 519.28352 497.43733 522.8661 C 505.8295 524.65242 508.78901 535.03323 506.88542 542.27671 C 502.94088 551.73558 492.69045 557.74132 482.50002 556.47857 C 479.25628 556.82736 476.18606 556.42151 473.46049 554.51698 C 460.37961 547.88434 448.8587 535.99282 446.59595 521.01462 C 444.03451 504.27923 453.16085 488.44415 462.01296 474.97444 C 471.80711 460.69391 485.44317 445.42547 504.1498 445.11906 C 507.39419 444.7666 510.64977 444.35912 513.37845 446.54635 C 523.99245 450.79593 532.35574 461.48959 530.806 473.325 C 530.92414 484.47419 518.41824 490.95085 508.71944 486.75042 C 498.54519 485.73871 497.67427 472.18007 507.45661 469.6135 C 514.52067 470.01714 507.15963 474.58544 504.51858 475.85953 C 504.08966 481.48316 512.05728 482.14638 514.63111 477.32547 C 521.47804 465.66379 501.94873 460.16196 498.02569 471.71087 C 492.0408 480.21073 501.03309 490.8806 509.90622 491.68539 C 519.97224 493.49941 531.89821 489.01429 535.0771 478.56865 C 538.64659 464.84639 532.59231 448.30577 518.82228 442.85483 C 508.65885 438.5256 496.57807 439.5293 486.50063 443.554 C 475.60932 449.93163 467.51861 460.11846 459.54225 469.68944 C 451.06719 480.48105 444.21222 492.83267 442.35548 506.60781 C 441.16766 510.12678 440.58216 523.30728 438.40903 521.62869 C 435.4818 505.92433 430.47189 490.33094 420.57613 477.53393 C 414.73401 469.30297 407.31911 462.42493 400.199 455.337 C 407.31157 455.45967 414.50271 456.35762 421.56687 456.00038 C 433.99217 453.21702 446.81876 449.4866 455.95196 440.05476 C 466.30327 430.92989 474.59448 418.52801 474.72261 404.27249 C 476.47181 388.647 469.4074 370.89015 453.94518 364.94677 C 441.69272 360.75752 425.87527 363.88386 417.97355 374.63203 C 412.4389 384.34248 412.49519 399.31842 423.31163 405.40185 C 431.59135 410.22203 443.43465 405.68965 445.09888 395.94487 C 445.97752 386.70349 430.9487 383.22672 427.127 391.264 C 429.20694 396.58044 434.0304 396.2607 437.51087 393.04237 C 447.4015 398.27048 428.46566 406.8359 424.07628 399.03789 C 417.25334 392.60815 417.50771 380.81808 424.744 374.769 C 435.74506 363.40312 455.27396 368.14575 464.09008 379.88537 C 474.96212 392.40903 471.08141 410.81208 462.84841 423.57834 C 448.87086 446.01374 418.80563 455.86665 394.0012 447.23103 C 371.76044 440.2577 349.01019 430.13683 325.13741 433.9956 C 320.31745 434.26815 308.83183 437.87206 307.31165 436.65433 C 322.00128 425.39076 335.06682 410.30166 338.195 391.5 C 340.66314 402.31111 343.89586 413.52729 352.61307 421.0801 C 359.26038 429.00126 371.81223 432.36384 380.9022 426.90864 C 389.05687 419.46546 395.06712 406.64007 390.272 395.883 C 383.95604 386.80013 367.3894 386.50106 362.42906 396.9836 C 357.85095 407.68031 373.69082 415.27708 377.63618 404.09609 C 382.64155 397.59235 372.23081 393.74755 372 401.77 C 369.56347 408.33971 363.69389 397.52389 370.75847 396.30709 C 377.98567 391.8645 385.98507 399.35264 386.30776 406.72894 C 387.92652 410.52057 384.36306 413.85004 382.85617 417.08999 C 375.18112 427.48311 358.1733 423.00614 352.22567 412.92859 C 336.87868 389.84318 344.58552 356.6677 365.96783 340.0419 C 376.13924 331.49527 392.3169 325.65079 403.98287 334.63338 C 410.55693 340.52474 416.38188 352.35956 410.12132 360.28951 C 406.83873 365.69049 390.59417 367.29009 399.39083 358.51553 C 402.47969 354.56099 403.03906 343.02985 395.954 344 C 393.0768 344.4648 389.07637 342.61747 387.59969 345.9652 C 382.9227 352.61189 384.05468 364.10568 392.09775 367.72104 C 399.82861 373.89996 411.64506 370.29643 415.06004 361.07784 C 421.7881 347.00444 412.48949 327.49622 396.42919 325.79003 C 379.75416 323.56195 362.72827 331.84499 353.10392 345.46195 C 347.14774 352.48188 343.99311 361.17239 340.054 369.324 C 336.72776 359.10424 336.27905 347.54812 331.17089 337.66414 C 325.48504 323.70141 315.4178 312.25585 304.44533 302.18461 C 305.4882 297.90858 317.88739 301.51125 323.15175 299.86424 C 342.61788 298.20438 359.5751 284.1604 367.09454 266.4537 C 369.73517 262.51989 368.01112 257.54168 368.5 253.093 C 368.2557 248.44978 369.50059 243.47467 366.58917 239.42585 C 361.96013 227.91637 350.30723 219.0762 337.52715 220.47325 C 331.99127 219.61422 321.72359 228.30942 324.84148 217.23885 C 325.35171 213.32902 327.14856 209.36644 325.15042 205.58801 C 323.32217 196.53327 316.92022 188.77944 308.1149 185.82152 C 304.27951 183.58754 299.61392 185.70836 295.4444 185.65046 C 283.00377 187.45702 270.8808 193.29733 263.69175 203.94734 C 262.08142 205.23978 259.10111 211.79841 259.18203 206.58968 C 256.82153 191.30137 253.88863 176.01418 247.79098 161.70679 C 245.0462 153.98367 255.13904 164.57912 259.50622 165.05718 C 263.85555 167.68274 269.1707 165.99946 274 166.48371 C 278.42854 166.17247 283.23937 167.56764 287.11476 164.78725 C 293.34063 162.11042 299.11746 158.37621 303.64 153.294 C 308.92559 165.28979 318.98667 175.14838 331.62068 179.05332 C 341.10974 180.09543 350.97009 178.71533 360.5183 180.06748 C 359.6849 184.12888 354.37608 189.75176 353.01923 195.19516 C 356.7179 200.26751 365.12413 198.8295 370.93907 198.88697 C 390.75761 197.58216 409.59252 190.14168 427.66237 182.38182 C 440.54968 175.64596 453.88659 168.68113 464.07798 158.1247 C 469.34483 153.59789 459.19797 148.99064 454.90212 149.88874 C 430.70336 148.50498 405.58313 151.22715 384.00694 163.00522 C 372.84148 168.42289 361.56771 175.67061 348.57979 174.46206 C 343.27325 174.18086 337.76006 174.951 332.57067 174.05375 C 321.13935 170.53761 311.64846 161.82456 307.55372 150.53099 C 305.85959 146.63841 307.56114 142.10675 307.3537 137.93423 C 307.48857 134.13945 307.34897 130.2617 310.01762 127.23279 C 316.46166 116.57341 326.66926 105.98931 340.085 106.217 C 351.37784 104.82656 361.7747 110.32245 370.40669 117.02196 C 389.75245 129.53187 410.49612 143.33324 434.46446 143.19801 C 454.67259 143.27935 477.13192 145.20424 494.34781 132.45683 C 511.26398 120.89917 526.49502 105.30186 532.48856 85.23258 C 537.79258 72.205251 540.51189 57.842353 548.49349 46.081302 C 554.22526 38.383756 561.9832 31.784058 571 28.510667 C 576.95127 28.685666 583.0945 28.155307 588.93105 28.753372 C 596.71327 32.663247 605.13327 39.862708 603.5049 49.496747 C 601.98902 59.378692 590.7815 69.513094 581.14894 62.062781 C 576.49995 59.721442 576.51766 55.601884 579.52645 52.028766 C 584.59388 47.515066 582.30395 51.857256 582.48113 55.479625 C 593.83183 58.933964 589.38882 39.471296 579.68996 45.407918 C 572.61175 49.036995 573.59045 59.019501 576.94645 64.725126 C 582.33504 67.85412 588.94011 70.024364 595.01985 68.674864 C 602.75366 63.009553 609.20547 54.056434 607.291 43.983375 C 605.16772 29.516113 589.27535 21.57301 575.73163 23.614928 C 561.65529 24.60268 549.71253 34.19357 542.86682 46.110492 C 540.62581 51.02072 535.45846 55.356791 533.92952 47.595688 C 530.65675 38.431269 525.88981 28.773625 516.24516 24.988076 C 513.40451 23.179826 510.42237 21.94818 507 22.510579 C 502.04186 22.674775 496.9169 22.178309 492.06 22.743489 C 482.86488 26.732177 474.93171 34.963435 475.05138 45.566335 C 473.75483 54.598533 478.45417 65.465289 488.28963 66.96775 C 496.56545 67.840653 505.95009 61.044721 505.7723 52.466182 C 504.2108 41.988121 486.03483 46.821551 492.73 54.985875 C 496.56531 52.570733 504.27852 52.894804 498.98639 58.924687 C 490.16898 68.724854 478.00301 58.434386 478.66677 47.658588 C 478.12556 37.467569 487.72654 28.852039 497.20542 27.191766 C 506.39781 25.595664 516.659 28.047343 522.14222 36.141918 C 526.17591 41.138279 529.24872 47.065343 531.49 52.999996 C 531.97182 68.322755 530.2662 84.164214 522.08724 97.514029 C 509.92473 117.45568 489.83237 134.6186 465.79208 136.77449 C 442.50998 140.18703 416.68415 139.54397 397.03365 124.9702 C 378.84509 111.1 369.9874 88.518601 367.4916 66.365814 C 365.8243 54.768875 365.64335 41.061925 375.08043 32.530257 C 384.38382 20.862329 407.85362 26.933708 408.03166 42.515777 C 409.51875 51.597699 398.48376 59.707623 391.61975 51.887618 C 386.2931 47.821896 395.82316 38.612418 397.12962 46.52775 C 405.20438 43.986994 393.02082 33.42956 388.66071 41.12917 C 383.11937 49.26128 390.31443 61.850556 400.49752 59.235266 C 410.73623 57.88502 413.99938 45.437553 412.41977 36.716178 C 409.76057 25.432316 396.02908 21.521947 385.79832 22.496328 C 372.12338 23.761357 362.97678 37.042607 362.33091 50.027236 C 361.51019 65.12413 365.11005 80.173057 369.56439 94.501937 C 371.76618 102.07629 376.94048 108.5507 379.065 116 C 368.57604 110.74 359.57858 102.31129 353.8787 91.986971 C 343.55805 74.576391 338.2721 54.80687 331.98833 35.725989 C 330.22091 23.894367 329.75557 11.656143 332.046 -0.137 C 329.00576 0.17435517 325.2274 -0.26578895 326.02834 3.9680742 C 324.56778 13.610751 325.45775 23.375959 325.891 33.063 C 319.9504 27.43464 312.42405 23.265746 304.50002 21.5059 C 290.23481 21.201119 274.86771 21.988732 263.28814 31.39621 C 259.60487 33.383365 250.69883 46.046542 253.66006 35.104639 C 255.10617 24.381678 257.24816 13.306907 255.025 2.565 C 255.19401 -0.22897766 245.49044 -1.7358858 248.9 2.25 z M 212.914 10.918 C 199.396 14.965831 196.48436 35.466801 208.13737 43.292125 C 215.99972 50.344152 229.12014 50.877409 237.49857 44.584338 C 241.06212 34.925973 224.69283 50.018522 218.97 43.9 C 208.60504 42.63265 201.42703 30.055058 207.39196 20.949719 C 211.7275 13.779774 226.12984 13.374926 227.73432 22.845963 C 230.68305 29.434561 217.28559 35.810695 216.84516 29.729047 C 221.16889 27.289451 222.04391 27.520723 218 24.393 C 210.27469 22.075288 215.03804 42.336956 224.18646 36.222735 C 232.02866 32.388515 236.75632 20.044355 228.77997 13.908174 C 224.3345 10.781344 218.17993 9.8207706 212.914 10.918 z M 311.579 29.136 C 326.52899 34.397438 331.46633 51.072873 336.29897 64.504355 C 338.99313 72.632588 342.77374 83.256655 335.40518 90.118691 C 332.24243 94.300686 324.25758 91.57271 321.75672 87.610812 C 319.02415 79.067045 325.98076 86.483628 328.26398 88.293957 C 336.90777 87.419893 333.66558 75.700134 326.8392 74.241669 C 320.20396 72.473517 316.15 79.990837 316.11924 85.480272 C 318.15111 91.504758 322.58253 97.513706 329.63681 97.295884 C 333.13083 97.80389 336.28721 97.362349 338.29673 94.181045 C 342.45562 87.018339 347.36433 89.965067 350.41354 96.246514 C 355.66084 101.2696 352.36405 102.83149 346.58071 100.50083 C 333.497 98.513281 320.81562 104.99762 311.38531 113.59052 C 301.60438 118.12434 299.19418 102.55115 299.99894 95.685 C 299.90604 91.477603 300.7396 87.060357 298.05952 83.438931 C 294.91974 75.566069 289.13075 67.712046 279.93875 67.098978 C 273.36648 66.281662 266.60976 65.856239 260.0262 65.919741 C 254.87037 67.627215 249.75669 69.472627 244.544 71 C 248.10163 61.16132 253.19885 51.447483 260.13327 43.482787 C 270.89162 33.964929 284.78203 26.012652 299.58145 26.541906 C 303.68659 26.762231 307.7314 27.707527 311.579 29.136 z M 301.433 45.462 C 294.85317 54.137078 302.83086 64.915312 312.624 64.60507 C 316.58042 63.883849 327.75748 60.606167 325.70909 56.848031 C 318.3401 57.147679 308.04004 64.064584 303.13095 54.325318 C 301.10773 44.178638 318.5136 56.150369 312.73835 44.526018 C 311.69369 41.395098 307.14631 43.709429 304.544 43 C 302.67255 42.4202 302.36074 44.319238 301.433 45.462 z M 276.677 71.497 C 287.11541 74.8455 297.06713 84.639523 296.49063 96.226884 C 295.92573 104.43523 286.80263 104.74982 280.51319 104.48667 C 276.57029 103.55949 270.87449 97.563447 274.19275 93.3524 C 277.76163 88.6577 283.88561 93.495507 278.103 97.11875 C 288.19942 103.19668 286.29701 82.30879 276.33911 85.02615 C 266.32147 87.275906 265.98854 103.47203 275.54536 106.97613 C 282.2408 113.33234 294.9272 101.96088 297.55584 111.81705 C 299.8888 115.5457 303.13257 118.55028 306.071 121.783 C 302.54505 129.67663 302.55231 138.47271 301.825 146.945 C 294.71481 157.91543 281.3171 164.10469 268.3365 162.21599 C 256.18472 161.10681 247.3039 151.63554 240.79775 142.15188 C 237.55671 138.12017 233.99812 134.36326 230.542 130.519 C 239.60992 130.06659 249.58329 125.52515 251.68259 115.82564 C 254.35055 106.47672 245.26282 97.34739 236.41594 97.104827 C 230.11461 99.613331 222.21551 104.79965 224.69745 112.64888 C 228.87263 110.4393 237.47958 96.62165 243.8826 106.94072 C 248.85913 113.95432 244.12521 124.88952 235.3135 125.236 C 226.38667 124.40751 218.66381 118.8539 210.4455 115.47389 C 201.98975 110.57807 192.31358 108.52658 183.31457 105.13812 C 195.62231 102.7083 207.66181 97.742124 218.22345 91.12649 C 218.96052 94.043448 212.43017 105.15074 219.63667 99.100742 C 233.23338 85.856498 248.67691 71.010777 268.807 70.164 C 271.48823 70.136902 274.12366 70.733738 276.677 71.497 z M 415.667 84.667 C 414.09164 94.375933 428.54059 93.939936 435.2045 95.303125 C 446.76992 96.426919 459.6308 96.650498 469.57694 89.740453 C 471.63116 81.630853 463.18683 86.656529 460.33643 89.732879 C 450.87543 92.275452 440.69399 91.04897 431.10613 89.763625 C 425.49107 89.957334 420.49344 84.204553 415.667 84.667 z M 233.288 106.449 C 233.41252 109.51792 230.8287 117.1888 235.665 117.276 C 243.31908 118.02083 239.60174 101.03097 233.288 106.449 z M 187.999 112.5 C 210.52634 116.73078 229.01403 133.56641 238.39366 154.07123 C 249.62615 179.12297 257.83144 207.52175 251.30601 234.97298 C 247.4719 252.76718 236.1943 268.54047 220.7005 278.07587 C 210.79962 285.38791 198.93103 289.92093 186.54087 289.90348 C 171.76846 290.95618 157.11996 284.07948 146.80297 273.82574 C 130.42199 254.40395 138.13711 219.68001 162.55325 210.87613 C 174.91321 206.1171 190.73088 211.50852 195.66959 224.32007 C 197.26667 228.44817 198.68039 233.47512 197.83254 237.82226 C 194.75922 244.37163 191.24718 252.89561 182.69 252.776 C 179.67737 253.15173 176.57765 253.79365 174.648 250.859 C 167.00747 248.266 174.06495 230.92075 177.89102 240.24009 C 177.15332 243.87013 178.31973 248.05815 182 245.5 C 182.93936 239.23613 180.8929 231.22598 172.59456 233.33245 C 166.46182 236.91459 167.1979 247.21758 170.75914 252.75116 C 172.61967 256.35205 178.1787 255.60847 181.62428 256.74563 C 192.58764 256.77857 200.91237 245.61857 201.94574 235.42115 C 203.54421 226.09385 198.93564 217.23786 191.57481 211.68205 C 186.96844 206.9944 175.08443 204.80469 182.94848 196.78497 C 191.68148 187.09864 194.21632 170.52879 185.054 160.188 C 179.40135 153.55991 169.55134 150.74849 161.13311 150.19728 C 154.12698 151.80882 150.139 159.1323 148.84651 165.54496 C 149.90217 171.08392 154.12452 177.93558 160.5238 176.55554 C 165.81775 169.90606 150.54472 172.64265 153.7128 164.20529 C 154.98129 160.39203 158.26653 154.67491 162.88 155 C 171.87889 153.93857 180.07034 159.27045 184.92322 166.54249 C 187.81338 169.50815 186.25765 174.19917 187.04066 177.98291 C 187.80075 181.98767 184.49363 185.23784 183.24413 188.8395 C 174.91554 205.61787 152.32751 211.86915 136.11802 202.9833 C 126.51374 198.86348 121.2145 188.91195 117.174 179.84137 C 112.32804 163.20135 115.96542 144.0516 128.26216 131.4695 C 142.87325 114.95278 166.60171 107.91491 187.999 112.5 z M 600.481 113.394 C 589.57521 118.53165 585.4363 134.38237 594.20011 143.32362 C 602.4514 152.81919 618.89972 141.86305 612.98144 130.70201 C 610.85742 127.58597 601.89547 126.19576 601.74126 131.38526 C 598.71814 138.08071 607.59089 139.79488 608.75 133.25 C 614.10063 141.65926 597.03703 145.4302 594.99498 135.76385 C 593.56926 132.63932 591.88168 129.42928 594.15 126.266 C 599.83911 114.18261 617.83219 113.64762 626.59068 122.6389 C 630.51146 126.29472 633.42622 131.17755 635.5 136 C 635.34385 141.99807 635.80374 148.14051 635.27789 154.05196 C 630.46735 164.98628 623.51387 175.56475 612.43036 180.94646 C 599.76 187.71015 584.54085 186.43068 571 183.456 C 553.85403 176.59946 538.80115 164.67054 520.33092 161.10233 C 486.44689 153.12321 448.72819 165.86721 426.98544 193.12819 C 406.32288 217.538 396.38497 251.58864 403.21668 283.07955 C 411.58939 315.94708 438.55386 342.39818 470.12822 353.61851 C 477.24689 355.89372 484.57205 358.37767 491.99915 359.17363 C 501.8045 358.67068 511.72128 358.85247 521.45853 357.931 C 537.40792 353.6455 553.22465 347.82252 566.23816 337.35289 C 588.52186 320.23354 605.30268 292.94188 602.72413 264.0347 C 601.40234 246.50804 595.52032 228.18461 602.65096 211.12437 C 609.23745 194.77056 622.76551 178.83974 641.45408 177.41159 C 645.93319 177.25751 650.61432 175.89787 654.70869 178.38478 C 668.12586 182.36838 677.9911 199.03704 670.32152 212.0002 C 666.93331 218.73802 658.42987 221.16263 651.65916 219.66685 C 649.8989 217.4523 646.17205 216.07435 645.70162 213.31171 C 643.25715 208.24012 652.58319 199.00815 651.35367 207.91567 C 655.30803 216.17667 662.93562 206.13086 659.02519 201.34331 C 653.47303 198.93256 645.25641 197.79924 642.32955 204.56162 C 641.10407 208.68286 640.18687 214.7952 642.83876 218.39229 C 645.41957 220.46007 647.61502 223.50759 650.423 225 C 657.61365 225.54587 665.40056 224.05229 669.99608 217.92496 C 676.42456 211.55827 679.48034 201.97975 676.36246 193.26124 C 673.29351 181.8337 662.10072 173.70006 650.85025 171.53244 C 644.90966 169.33864 632.98649 174.64124 630.52727 172.08798 C 638.42194 163.69485 641.21834 151.50756 641.4976 140.26481 C 639.84251 125.65844 627.25178 111.45099 611.76125 112.01962 C 607.98253 111.92309 604.0446 111.9843 600.481 113.394 z M 278.5 116.02 C 268.38414 118.97571 263.11832 133.21001 271.45281 140.91909 C 278.43595 152.32676 297.26031 140.32855 287.44 130.369 C 285.62232 127.10495 281.47759 130.61946 282.23919 132.71636 C 287.32456 137.06276 283.82537 145.9458 277.29082 139.91586 C 266.78306 134.13 274.64647 118.63623 285.29367 121.11303 C 291.2831 122.10988 299.95654 124.82872 301.351 126.528 C 299.16797 118.18884 286.34261 114.08907 278.5 116.02 z M 358.458 120.338 C 363.27497 126.99577 360.37878 136.21006 353.74724 140.40074 C 351.60695 143.44723 347.8835 141.20297 344.86147 141.26952 C 335.2605 142.57882 329.48456 127.42222 339.60548 123.99798 C 346.41631 120.0457 344.84126 135.11854 350.70564 132.49692 C 355.74834 124.644 346.70117 112.84829 337.87014 118.06498 C 326.70624 122.59695 327.82811 140.82851 339.11673 144.51584 C 351.80997 149.61225 367.79198 137.71137 366 124.002 C 367.06244 119.6001 361.73719 116.98355 358.312 116 C 353.58711 115.13683 357.84506 118.1712 358.458 120.338 z M 456.982 156.25 C 451.5456 162.35891 443.87505 166.29276 436.91525 170.53433 C 419.9786 179.38355 402.84272 188.9249 383.62603 191.60293 C 375.85145 192.70305 367.75788 194.87929 359.966 192.834 C 369.32002 174.53992 389.20339 165.13623 408.07689 159.70422 C 422.7459 155.99683 438.05705 155.21885 453.13164 155.15526 C 454.31327 155.42474 456.32098 154.98993 456.982 156.25 z M 517.835 165.627 C 535.89987 168.17904 552.58242 180.10874 560.75727 196.41451 C 564.95701 203.55907 562.7634 213.86353 570.63803 218.68572 C 580.3581 224.95128 589.21827 233.1606 593.32263 244.25935 C 604.32172 267.95045 596.33675 296.15672 580.43129 315.61905 C 557.1895 345.98649 515.42375 361.23322 478.31478 350.84543 C 453.53456 344.4942 433.45833 326.52663 418.95064 306.08899 C 408.52313 291.26452 405.92116 272.71562 406.673 255.00004 C 405.90836 247.53991 409.06352 240.57273 410.81927 233.47275 C 418.94489 207.23911 438.23701 184.37 462.95597 172.32394 C 479.38749 164.38056 498.19336 161.52615 516.13131 165.33437 L 517.835 165.627 z M 204.464 173.277 C 200.1057 176.62133 194.81621 181.46229 196.03926 187.49637 C 196.38868 194.75934 195.71081 203.72238 202.91068 207.99245 C 216.58392 219.50717 240.05192 208.07636 240.63854 190.59373 C 241.43713 179.68001 230.03411 173.48062 220.94696 171.01138 C 215.3924 169.48278 209.12161 169.33563 204.464 173.277 z M 210.104 176.914 C 206.95083 183.41092 222.19739 179.10369 221.19825 187.14925 C 226.20831 188.0858 227.32711 188.92932 222.90574 192.09182 C 219.34623 198.2463 209.77203 194.79338 206.56702 199.01192 C 213.3161 205.86222 226.61916 199.58155 231.0277 192.3395 C 235.27023 183.2488 220.39852 184.16109 219.10561 176.11736 C 224.17266 176.96937 232.34505 180.68634 235.002 186.505 C 238.24946 195.98617 228.45201 203.66171 220.679 206.74625 C 211.59685 210.20107 200.70473 203.65985 201.56664 193.41537 C 200.67992 187.8804 204.9746 173.81608 210.104 176.914 z M 572.182 188.992 C 584.45524 191.73877 597.46183 191.86238 609.521 188.188 C 604.6404 196.44752 598.69209 204.41203 596.58075 214.01914 C 594.04819 219.61648 596.24326 228.83672 593.55422 232.60091 C 587.78557 224.88921 580.19092 219.04874 572.8279 212.98661 C 567.08015 206.90504 567.47444 197.70845 562.97465 190.83515 C 562.58084 189.1584 558.02792 183.19248 561.963 185.98 C 565.2554 187.32353 568.7463 188.111 572.182 188.992 z M 490.697 212.523 C 475.0967 215.94572 462.84977 230.4727 462.94204 246.57271 C 462.27013 250.69321 465.8378 254.03712 467.15266 257.77489 C 474.96441 271.14211 483.08354 284.78323 494.46112 295.44499 C 501.89167 302.62965 512.61132 307.11865 522.87836 303.80753 C 534.40675 301.01519 544.03165 292.12123 548.32893 281.26702 C 548.61959 272.06188 548.83578 260.59777 539.55397 255.53248 C 528.63058 248.79444 513.05214 257.73378 512.94949 270.41279 C 513.25805 274.56803 519.20925 278.45063 523.15 278.952 C 527.78343 279.48813 538.97006 273.21462 534.95474 268.60928 C 530.32255 263.27383 522.3082 266.97924 524.1274 273.80255 C 512.91649 272.46556 521.38479 258.34803 528.96216 257.52305 C 537.54702 255.08741 543.27337 263.65685 544.15702 271.15188 C 545.38585 274.19472 545.44464 277.16833 543.72977 280.03696 C 538.8902 291.49225 527.32737 300.62422 514.4825 299.8975 C 503.8463 301.16907 496.89847 291.64936 490.71908 284.56798 C 482.21932 273.25666 472.5519 261.97533 468.55486 248.1508 C 464.54332 230.88176 482.35878 215.96835 498.63189 216.60998 C 507.33257 216.51044 517.95953 222.52322 516.78686 232.46156 C 517.93726 241.78486 506.92183 248.48574 498.94569 244.07537 C 493.24563 243.09666 494.67416 230.80376 499.587 233.54709 C 503.83524 235.77618 498.65646 243.15057 504.266 243.414 C 509.16951 245.78752 513.07987 236.83249 509.74879 234.02179 C 506.85215 229.89759 501.72673 229.76255 497.163 230 C 493.3182 234.89292 490.80936 242.40875 496.8866 246.8205 C 498.78395 249.66909 501.49357 250.55634 504.801 250 C 518.05413 250.33493 527.42063 231.83314 517.4625 222.13994 C 510.48029 217.53485 503.86694 209.50232 494.61619 211.74533 C 493.29708 211.93418 491.98944 212.19935 490.697 212.523 z M 703.994 237.934 C 690.93163 240.97976 684.07733 256.8994 688.464 268.931 C 692.4867 276.68696 704.4522 282.3395 711.38988 274.90301 C 719.18875 270.07783 715.33506 254.02785 705.22492 260.40837 C 694.90581 263.63026 703.81473 272.85892 710.60103 267.32444 C 712.19426 271.15857 702.88225 275.83811 698.78056 272.01752 C 689.89277 267.86941 688.93929 255.98843 696.00173 249.52912 C 703.35121 242.19828 716.24825 238.51428 725.10547 245.52712 C 731.70788 249.91394 736.73326 256.69685 739.5 264 C 739.3429 269.34786 739.80495 274.84076 739.27796 280.10199 C 734.2584 291.1885 727.77745 302.2175 716.79509 308.33342 C 708.5582 313.34402 698.96518 315.94755 689.50186 317.14908 C 664.01963 315.61677 636.81956 312.84423 613.48255 325.49926 C 601.87694 332.4737 590.12013 340.49005 582.48347 351.89167 C 574.24875 366.8009 566.76475 382.44567 562.61334 399 C 562.94282 416.32579 560.60444 434.34167 567.66464 450.71575 C 572.91325 464.00078 580.32341 476.64778 589.8118 487.34447 C 610.46142 508.93354 640.58742 520.02341 670.25381 518.97876 C 695.78321 518.84422 722.31042 509.72767 740 490.811 C 749.31247 479.10461 759.96868 467.86189 765.67326 453.83661 C 774.87357 427.75998 775.28139 396.15252 758.16397 373.13705 C 750.57592 362.9642 740.53808 353.75985 738.05741 340.72243 C 732.66026 320.02069 738.06368 294.53666 756.725 282.178 C 767.41445 276.14487 782.69424 274.57013 791.82618 284.28566 C 800.5546 292.13868 802.03115 308.90877 790.84979 315.29791 C 784.44644 321.10323 769.33313 314.22831 775.83378 305.72271 C 777.80916 303.48473 777.59264 313.42509 783.05698 309.05483 C 794.98632 301.60995 773.71526 292.91209 770.54491 303.62975 C 764.31425 312.62404 774.97591 322.76492 784.1847 321.73505 C 801.7409 320.37362 809.47579 295.4499 797.42585 283.31598 C 788.42763 273.79996 773.42961 268.76648 761.07075 274.52488 C 753.77669 274.4333 749.31955 280.71747 744.241 284.981 C 743.82098 276.68716 743.93791 268.26182 743.1873 260.04892 C 739.92511 252.97358 736.58724 245.1658 728.91984 241.86535 C 721.41162 237.93481 712.36037 235.68167 703.994 237.934 z M 444 275.755 C 435.92023 281.06714 429.9298 289.40569 428.67067 299.05039 C 421.55871 308.22642 433.12055 312.7043 440.92749 312.0235 C 455.04152 312.61818 469.48723 300.55084 468.92912 285.982 C 468.17033 277.67815 460.2779 272.09999 452.22237 273.0743 C 448.78975 272.10629 446.68683 273.9255 444 275.755 z M 459.08 278.706 C 468.94933 284.71556 464.40817 300.3643 454.33842 303.43034 C 447.6402 305.20338 439.4637 308.69006 432.95337 305.35348 C 436.71571 299.39688 435.88728 291.70445 440.37287 285.99923 C 443.9128 279.83481 452.1057 274.34223 459.08 278.706 z M 361.576 280.916 C 357.52637 288.17578 354.17829 297.47101 357.39938 305.64062 C 360.21043 308.01443 363.50218 317.3968 365.382 313 C 369.6258 313.87188 363.91288 317.01635 370.17663 316.85842 C 381.27442 317.98158 394.92631 313.56525 397.81439 301.48254 C 400.76395 292.96358 396.70264 281.59015 386.55328 281.33213 C 383.46538 280.72424 380.28538 279.36472 377.55079 281.64073 C 371.22345 282.42557 362.36296 294.00499 370.43856 296.61697 C 376.09972 290.37192 377.19807 300.16481 377.5 304.5 C 385.26964 306.77308 390.61254 300.72028 393.5573 294.29958 C 393.36805 299.18235 388.81797 306.0768 384.18264 309.57275 C 381.36702 312.35209 376.90639 310.44965 373.36225 310.88362 C 363.50224 311.23675 358.149 299.82394 361.76334 291.50931 C 362.70818 287.93613 372.87317 274.38051 361.576 280.916 z M 386.527 287.111 C 390.75347 288.05146 396.48769 292.19745 389.47013 290.86512 C 387.38339 294.35378 380.79026 303.73653 381.60402 294.52456 C 379.93102 290.32134 368.93492 288.88844 378.70428 286.70292 C 381.28848 285.68378 383.97793 286.41998 386.527 287.111 z M 265.323 288.955 C 298.11838 296.78441 324.89373 324.73814 331.93809 357.59257 C 336.06679 378.1286 334.19978 401.64565 319.41096 417.72639 C 306.55231 432.96581 287.90004 444.25206 267.48128 443.96683 C 249.83045 444.88386 231.72008 438.29994 220.12331 424.67279 C 212.07393 417.48903 208.78179 406.8899 207.91812 396.43753 C 207.30502 384.1386 195.90813 376.59631 191.34501 365.86027 C 187.64548 358.15254 186.7563 349.38562 186.03963 341.01578 C 189.29856 325.95323 195.23876 310.31755 208.52 301.323 C 220.73941 292.79509 235.0658 285.89147 250.34887 287.1126 C 255.3804 287.25283 260.42929 287.73654 265.323 288.955 z M 733.703 304.25 C 732.58048 310.66181 730.36684 317.04564 729.83848 323.49119 C 730.77993 333.59024 733.42664 343.39376 736.522 353 C 727.35629 348.51215 717.06897 347.77618 707.39638 345.02688 C 702.69422 340.10752 699.13481 333.66785 693.5045 329.32216 C 692.55312 327.58566 686.1336 324.37544 689.30469 323.74998 C 704.61004 320.45702 720.35742 315.07493 731.31448 303.34269 C 732.26793 302.08493 735.04201 301.34006 733.703 304.25 z M 847.259 305.621 C 838.62404 309.77695 830.45943 317.78378 830.3932 327.99181 C 828.49646 336.61555 833.17443 345.39706 841.47499 348.49613 C 850.56232 353.59507 859.87609 344.84761 860.94024 335.887 C 861.34141 325.57401 843.20128 326.45802 844.67273 336.02641 C 848.81153 341.50482 851.76513 336.7329 854 334 C 861.71893 341.58203 843.81346 350.12383 839.16901 340.54921 C 831.73963 333.18053 834.85363 319.95236 844.06883 315.66661 C 854.00462 309.27114 869.31749 308.49524 877.54222 318.1331 C 883.40871 323.9214 887.60638 331.35437 890.37578 338.99999 C 890.25468 345.32596 890.7513 351.79414 890.25717 358.03459 C 882.91403 375.61473 867.80729 388.72957 851.07887 397.18997 C 842.64256 402.08866 833.60523 406.02526 825.14629 410.8084 C 819.21576 416.8878 812.92781 422.71086 807.21763 428.94833 C 799.34115 444.68651 790.96213 460.71581 789.86691 478.6467 C 785.85174 513.61223 801.24031 550.27098 829.36607 571.4906 C 841.96287 580.24282 856.68476 585.84723 871.5 589.32027 C 893.09573 589.63954 915.44244 589.27026 935.3732 579.88454 C 955.18622 570.48004 973.85808 556.29153 983.70632 536.20654 C 995.35629 514.42558 997.9693 488.66209 994.95487 464.41169 C 992.3112 444.64018 980.03852 428.01562 965.81645 414.76118 C 962.76059 411.5148 959.72274 408.24305 955.34982 406.85156 C 942.33342 400.12848 928.23582 395.20243 916.43225 386.378 C 905.60749 377.79634 899.746 364.567 898.19964 351.08028 C 897.7236 346.33722 899.68244 341.55282 900.29926 336.84874 C 902.46323 325.47601 910.52323 314.84241 922.275 312.415 C 933.24489 308.83225 948.45563 312.20002 952.00678 324.53504 C 955.88997 333.83383 948.9616 346.8758 938.126 345.591 C 931.73806 346.83484 927.94969 334.95103 935.65361 336.67252 C 940.84177 347.00003 947.77598 328.65602 937.29297 329.10858 C 925.6628 327.39027 924.35039 346.74446 934.33119 349.81359 C 945.57878 354.11441 956.33138 343.054 957.1382 332.26876 C 958.21219 329.14394 958.05792 326.18945 956.02868 323.49501 C 951.54413 312.61037 940.29975 304.06453 928.09895 306.26067 C 913.52762 307.16936 899.70282 317.52917 895.8355 331.75137 C 891.8544 333.1951 889.53469 320.75884 884.67888 318.4725 C 878.11934 310.10812 868.48032 304.53845 857.68666 304.7152 C 854.19936 304.17896 850.59891 304.47963 847.259 305.621 z M 669 322.631 C 684.40836 326.75732 696.22928 338.32242 706.27994 350.12011 C 714.78998 353.71514 725.2846 352.79405 733.78 357.593 C 753.98105 368.46915 765.65598 391.5144 766.77575 413.94404 C 767.25772 444.75908 751.91385 475.23157 727.91848 494.32264 C 714.65895 504.79314 698.1545 509.52347 682 513.30277 C 671.52044 513.17156 660.95981 513.70886 650.52981 513.16865 C 630.80737 508.8983 611.14649 501.42161 596.70079 486.79152 C 581.40842 472.7002 571.14956 453.29081 569.20126 432.49915 C 567.0271 413.97895 567.48108 394.54568 575.58485 377.38327 C 586.89753 349.79268 611.1311 326.07704 641.42496 321.55886 C 650.55404 320.097 660.04948 320.14223 669 322.631 z M 232.5 328.167 C 221.6752 334.12708 217.13735 351.07413 226.13325 360.42148 C 232.41588 364.71348 245.59032 362.81949 243.79435 352.88954 C 245.97982 345.72888 233.91143 338.12513 233.17217 347.77263 C 238.60849 347.6663 242.83051 351.72794 236.86709 356.08804 C 230.9007 360.76762 222.41636 351.00622 225.49569 344.33463 C 227.71717 334.18484 240.01472 329.5367 249.04006 333.61712 C 258.67617 334.55205 260.44148 345.80827 264.7947 352.62937 C 267.93384 359.33266 271.67625 365.89656 274.444 372.687 C 274.32837 380.94393 275.33865 390.73937 268.816 396.883 C 261.14294 399.71967 250.46261 400.63449 244.98237 393.24275 C 235.75556 388.67365 250.90463 372.55832 250.14 385.593 C 249.72049 395.42259 265.0473 395.99365 262.65037 384.88575 C 261.30824 380.86371 257.78061 375.8325 253.529 375 C 249.61577 373.65097 236.90406 380.14417 245.523 374.556 C 252.9326 367.30689 236.89825 376.84758 238.13402 382.43298 C 236.31348 387.29509 237.01879 395.12215 241.71161 397.91165 C 246.15815 399.86438 250.47164 402.58089 254.99705 404.07777 C 261.329 403.59312 268.06134 401.97445 273.26882 398.58788 C 276.47611 391.27776 280.34643 383.78888 281.11138 375.8505 C 276.48648 362.049 268.23682 349.78559 261.19846 337.135 C 256.2312 326.7222 242.36128 325.65648 232.5 328.167 z M 290.854 334.518 C 280.99818 336.58942 276.14439 349.9548 283.95473 357.02488 C 290.89558 362.93983 301.25844 361.08331 309.40289 359.12313 C 318.92628 357.72472 325.91697 345.03334 316.10755 338.89483 C 309.0258 333.71016 299.26451 332.08193 290.854 334.518 z M 572.449 339.333 C 551.49956 352.31807 530.8765 366.34626 513.29971 383.7279 C 504.07836 394.74429 494.72332 406.63595 491.1104 420.78871 C 490.88447 431.93998 506.52104 423.89758 512.501 422 C 534.32104 412.17205 550.83812 393.7402 565.03663 375.0235 C 573.37459 363.3261 580.22613 350.67713 587.126 338.104 C 584.74263 330.046 576.78905 337.23879 572.449 339.333 z M 309.757 341.566 C 321.00542 343.0726 312.92706 358.91967 307.107 351.934 C 314.65191 350.92317 301.65525 342.35349 300 345.841 C 299.2641 350.44707 310.41152 355.17923 300.554 356.44 C 292.0228 359.44514 279.14824 350.63839 287.276 341.985 C 294.42119 338.90348 302.63322 337.66829 309.757 341.566 z M 575.636 346.329 C 565.52704 365.87708 552.90654 384.4028 536.19874 398.92714 C 526.25315 408.33149 514.69148 416.45274 501.07427 419.31389 C 492.83496 420.72894 504.12978 408.18347 505.51984 403.90052 C 517.92019 383.79919 537.35195 369.332 556.39753 355.94851 C 562.65136 352.30502 571.50502 344.40576 576.527 343.97787 L 576.15153 345.03639 L 575.636 346.329 z M 895.529 363.25 C 899.84471 378.28796 911.38344 390.77796 925.215 397.794 C 915.08674 399.97525 904.22708 401.04536 895.411 406.909 C 886.49273 400.57144 875.30725 398.39784 864.65406 397.4078 C 866.56071 391.53524 877.04616 387.75399 880.94704 381.32001 C 886.56971 375.313 890.93139 368.20195 893.61021 360.45708 C 895.02469 359.30842 895.21609 362.67299 895.529 363.25 z M 643.792 369.404 C 620.93966 375.61599 611.82113 409.86283 630.24257 425.63809 C 645.9537 436.65588 663.37789 444.93175 680.5 453.5 C 684.61998 453.2791 688.92232 453.74216 692.93634 453.12386 C 704.17851 447.41115 715.9074 439.3627 718.65777 426.19907 C 719.54846 421.56025 719.67464 416.59059 719.22057 411.9537 C 716.24655 405.33444 712.50216 398.7573 705.87558 395.22411 C 702.65021 393.57087 698.51338 394.63494 694.91831 394.08429 C 691.7544 394.30419 687.80886 392.51956 685.88368 395.91632 C 679.54736 401.29012 675.91127 412.94111 684.19827 418.39359 C 691.68571 428.71563 710.94347 413.15953 696.61442 407.25705 C 688.70108 405.04784 687.18617 415.61721 694.5 416 C 685.29123 420.61088 680.04047 404.84565 688.44894 400.21724 C 698.62396 393.75041 713.05159 401.73512 714.65891 413.32033 C 717.77046 427.30078 707.85078 440.49083 695.70036 446.31361 C 684.84892 452.4943 672.93056 444.89948 663.39464 439.64401 C 650.16288 432.34646 634.0747 426.88978 626.55073 412.73557 C 621.80186 398.57274 628.2539 380.57696 642.87952 375.24769 C 648.88592 371.72368 655.74752 373.57413 661.44416 376.64183 C 665.3815 382.1507 667.96526 389.23291 667.48693 396.22535 C 665.27097 401.53261 657.83634 403.63766 652.478 401.52387 C 648.76848 398.35634 651.26264 394.39482 654.88827 398.55836 C 665.83468 402.33822 662.54346 381.72954 652.69642 387.59806 C 648.67021 389.96026 644.19193 396.90369 647.23599 401.23721 C 652.9857 409.93474 668.68302 408.48374 671.10815 397.64702 C 675.66715 383.79307 663.75247 367.84598 649.09968 368.63738 C 647.30803 368.67685 645.52228 368.93858 643.792 369.404 z M 198.643 386.069 C 201.59846 387.88148 201.19839 391.11603 201.32093 394.12909 C 200.92255 402.29715 204.5939 409.60462 207.408 417 C 198.67679 412.29449 188.99289 409.33292 178.98257 409.90279 C 172.55863 408.63806 183.93085 399.24644 184.30261 394.0506 C 186.41476 390.85775 186.80039 387.24301 186.6814 383.50498 C 186.86641 378.96197 187.05242 374.41899 187.238 369.876 C 190.92023 375.35463 194.37332 381.01633 198.643 386.069 z M 945.278 406.813 C 971.98152 419.39147 991.56949 447.42285 991.1293 477.36577 C 992.47453 499.70688 988.52227 523.15814 974.91402 541.47847 C 958.70209 564.21123 932.30208 577.68484 905.5 583.33316 C 893.01199 583.25782 880.47634 583.53945 868.01762 583.24443 C 851.42753 579.53241 835.51958 571.92113 823.65141 559.52529 C 801.49024 537.4354 791.52722 504.55334 796.51942 473.7847 C 799.51315 453.02096 807.75864 431.99713 824.64036 418.63266 C 832.79352 411.98873 842.32998 406.28415 852.49999 403.65325 C 860.30791 403.74796 868.21637 403.32072 875.96336 403.73188 C 882.76614 406.49028 889.62402 409.20095 896.26263 412.28452 C 903.25614 408.54996 910.44823 404.51422 918.53297 403.3914 C 927.61281 401.41964 937.02773 402.36413 945.278 406.813 z M 357 440.669 C 384.14776 446.20094 406.40186 465.67855 421.71234 488.00657 C 432.65895 505.91541 434.94127 528.13337 431.512 548.54 C 424.17621 570.72481 410.91655 593.14388 388.59942 602.80562 C 366.89999 612.4038 340.60215 612.41903 319.91427 600.14736 C 302.66375 591.02308 292.66081 571.76011 291.99179 552.62811 C 290.88794 542.80927 279.90251 539.14131 275.8669 530.81479 C 272.51715 524.86196 269.76309 518.41625 267.563 512 C 267.70535 503.69072 267.34997 495.28623 267.79629 487.03481 C 274.97004 466.62518 291.19402 448.66381 312.22191 442.29498 C 326.55185 436.91546 342.21852 438.13259 357 440.669 z M 640.559 445.532 C 632.2761 447.85126 625.96848 454.82191 622.05743 462.31521 C 618.83469 468.31763 620.09959 475.33365 623.082 481.132 C 621.05485 484.31659 617.533 489.42407 619.99919 492.52852 C 629.10124 493.9896 638.6918 490.8299 644.527 483.49114 C 653.80869 473.34332 654.60458 456.19095 645.90046 445.55619 C 644.44523 443.63791 642.09995 444.01638 640.559 445.532 z M 916.326 450.044 C 905.07392 451.25764 898.32391 463.80606 899.85846 474.25183 C 901.1663 478.36422 904.42098 484.26517 909.13099 484.49488 C 911.89826 484.50647 922.24103 484.62961 918.972 481.982 C 920.55929 479.38898 929.31005 475.84883 925.72004 469.11421 C 924.7227 461.0016 916.41674 463.27643 911.5 466.13 C 916.80059 468.60286 919.11831 475.67964 914.49636 480.04134 C 910.48531 479.99213 904.95565 479.03723 903.63135 474.32046 C 902.79383 471.03394 905.7123 467.38243 906.34737 464.05273 C 909.82687 454.71065 923.41569 450.71323 930.58769 458.45052 C 943.31467 469.90697 940.36767 493.91275 924.40574 501.05181 C 911.36405 507.19613 896.49263 508.02292 882.27606 508.15919 C 869.54685 508.17611 855.01436 503.73155 849.37115 491.23081 C 843.399 481.44104 845.94123 467.09679 856.40722 461.47308 C 863.21248 456.75001 874.04398 451.79099 880.72249 459.42426 C 883.67531 463.17165 885.60563 470.12526 882.89232 474.12445 C 878.45636 480.1607 867.32465 481.45032 865.11962 472.76075 C 864.72798 468.46 877.71239 480.02635 875.08741 470.78989 C 871.19105 466.87227 862.61939 461.2399 862.28092 471.08131 C 860.14147 481.45497 872.55756 486.12024 880.46308 482.19007 C 890.6903 476.05621 890.11255 459.12425 880.74262 452.3347 C 877.81518 450.46152 873.51256 451.68907 870.09867 451.11425 C 858.0064 450.27071 849.57316 461.18873 844.55528 470.83248 C 841.32359 474.90578 842.95362 480.2144 842.525 484.99992 C 841.67214 489.69616 845.58651 493.27076 847.54121 497.15472 C 857.07031 510.94566 875.24394 514.45779 890.94784 512.65328 C 903.57386 511.24287 916.93304 510.93381 928.47917 505.1205 C 936.34073 500.66464 941.44224 492.12129 943.1402 483.50145 C 942.87518 472.00863 941.626 458.37786 930.46869 452.05812 C 926.10281 449.54613 921.21312 448.396 916.326 450.044 z M 644.217 454.087 C 649.94053 463.64901 644.93185 476.41315 637.33796 483.45767 C 633.24174 487.51548 624.72453 489.99709 627.54313 481.40832 C 627.36718 476.91794 625.87399 472.33768 625.93731 467.92876 C 627.95386 462.53744 631.06998 457.46273 636.2055 454.51528 C 639.00042 450.8921 640.98322 449.75787 644.217 454.087 z M 771.317 462.25 C 755.51147 476.47469 748.54571 497.35416 744.13082 517.53384 C 740.0294 534.6882 737.21813 552.80552 740.915 570.275 C 745.57857 580.25101 753.58395 568.50856 756.77557 563.4654 C 774.38736 539.46903 782.14698 509.75068 784.67212 480.47438 C 785.17468 473.60079 784.94351 466.70589 785 459.821 C 779.80304 453.71976 776.08775 457.23588 771.317 462.25 z M 779.648 476.049 C 778.50725 502.07326 772.97726 528.77057 757.94562 550.52561 C 754.88056 554.677 750.09644 568.25008 744.81717 564.10799 C 743.81351 545.06612 746.3051 525.76727 753.42964 508.0006 C 759.85714 491.89903 766.86217 475.05605 779.739 463 C 780.24877 467.31155 779.75156 471.71702 779.648 476.049 z M 379.5 468.165 C 371.65498 471.17617 366.36423 478.83228 363.65426 486.33833 C 365.81459 498.4652 367.62161 513.25763 379.67292 519.6307 C 392.50674 526.14988 411.6378 522.81707 417.43441 508.41244 C 421.76565 497.1952 414.59017 485.53971 407.59473 477.1607 C 400.36138 470.32495 389.46775 465.49625 379.5 468.165 z M 395.128 474.427 C 403.47595 479.40868 410.37475 487.77808 412.99766 497.19813 C 414.81881 506.79828 407.34364 518.74923 396.677 517.476 C 386.34083 518.03117 375.21519 513.02047 371.66622 502.68314 C 366.84022 493.73851 369.1379 481.57937 378.07038 476.09636 C 383.02981 472.7769 389.62583 472.03231 395.128 474.427 z M 381.5 481.921 C 377.11763 482.63852 367.20375 493.0731 375.45462 493.32725 C 379.0321 489.03172 387.8105 481.3369 392.52125 486.48487 C 383.97763 489.27209 375.77799 497.22933 383.44815 505.78745 C 385.52638 512.9758 392.77436 507.71855 387.67616 503.34783 C 379.56575 493.99176 394.49455 493.91434 397.50312 487.00813 C 399.53227 478.63673 386.05851 479.21084 381.5 481.921 z M 550.153 484.074 C 542.96495 485.14971 537.03477 490.58755 533.56196 496.57321 C 532.64816 504.66042 532.96659 514.85479 541.57085 518.75412 C 550.12487 522.5984 563.34952 517.74213 564 507.487 C 562.95441 500.98841 547.73057 496.68786 548 505.587 C 547.60882 512.71008 555.84763 510.31346 556 505.5 C 561.02063 514.39368 546.93037 517.33719 541.5166 512.5535 C 532.88589 506.60104 538.27699 493.69067 546.53405 490.33741 C 559.62801 483.62383 577.57247 494.35056 578.5861 508.84684 C 581.31963 529.45931 566.53976 547.88751 549.48482 557.53874 C 532.86944 567.25125 512.83473 568.31365 494.23972 565.13732 C 491.31761 564.1785 489.07386 566.91751 486.5 567.857 C 497.93996 572.6651 510.86407 572.91456 523.08683 572.05686 C 547.11938 569.81599 570.28849 554.7951 580.38213 532.626 C 586.04482 518.78982 586.20848 500.67026 574.24087 489.99272 C 571.18811 487.37046 567.77262 484.605 564.15712 483.01083 C 559.47206 483.07942 554.77116 483.19635 550.153 484.074 z M 314.269 486.896 C 304.47536 493.0872 300.7309 507.75347 307.27273 517.46102 C 312.21267 524.02491 321.41275 522.42923 326.09537 516.58708 C 328.87717 512.10961 326.02014 502.88342 319.594 503 C 310.04356 503.756 321.14985 507.30311 323.65385 508.64325 C 322.31366 520.82829 306.03487 515.63036 308.08638 504.79175 C 309.4258 492.27849 324.80413 486.78453 335.56834 489.99241 C 344.56833 495.45616 348.1814 506.19507 353.49077 514.8116 C 356.39344 520.49796 359.86738 526.02046 362.43108 531.8067 C 362.25975 536.52764 364.49632 541.674 361.78963 545.94703 C 359.48427 552.83849 354.0943 559.02048 346.3608 559.38288 C 337.85506 561.65847 327.92215 556.14341 327.32263 546.90414 C 325.80642 542.86066 331.23893 539.06566 334.497 538.229 C 339.38673 537.70221 334.85546 544.74416 336.59539 547.45549 C 336.57256 555.56016 347.28728 551.61415 347.07493 546.35745 C 347.15658 540.25867 343.24733 534.35151 337.546 532.22313 C 328.29655 532.55375 321.66772 541.92776 323.10632 550.83117 C 323.45208 557.45712 329.55751 561.78816 334.829 564.5 C 339.86444 564.33806 345.05451 564.81451 349.99759 564.27121 C 356.89945 561.21198 363.8698 556.50566 365.27735 548.48542 C 368.38839 538.1903 366.64432 527.06534 360.89958 518.03598 C 354.45611 507.58681 349.60699 495.42893 339.84748 487.55512 C 333.4862 483.49449 325.68709 484.45625 318.5 483.807 L 314.269 486.896 z M 889.5 522.716 C 880.9028 526.57323 877.30693 537.26997 877.25066 546.13002 C 876.09005 554.58243 882.646 562.44801 878.51431 570.0707 C 883.14566 576.11166 893.34113 574.17396 898.78953 569.90175 C 908.75602 561.42858 912.02391 546.22162 908.21794 533.98998 C 905.52256 526.96448 897.2218 520.71876 889.5 522.716 z M 900.364 529.462 C 907.62155 536.22059 904.78945 547.24857 902.56454 555.64706 C 901.46367 562.65968 888.24149 573.7832 885.86918 562.59828 C 881.97273 554.61105 881.79877 544.29616 885.588 536.2 C 887.88847 530.64603 894.44628 523.34997 900.364 529.462 z M 677.5 551.888 C 664.77702 554.29839 657.5395 569.06109 661.08775 580.93063 C 663.3696 585.46137 667.85058 588.92089 671.947 591.5 C 679.82172 591.51039 689.90977 592.49748 693.93654 583.98499 C 696.97732 580.45839 692.59894 575.57996 690.68359 572.49461 C 685.93443 565.70479 673.15375 570.16994 676.28992 578.87264 C 677.83992 583.90885 683.76281 582.23153 681.74917 577.29941 C 688.25005 567.24064 692.85236 587.58576 682.92422 587.24623 C 675.54644 589.63842 666.96065 585.17156 665.71474 577.26464 C 663.60362 569.35589 667.84652 559.92173 676.44778 558.43782 C 681.22232 557.39099 686.01481 554.73721 690.92582 556.56468 C 697.83133 557.46484 704.86434 559.75086 708.9755 565.78275 C 712.4772 570.13662 716.1887 575.06137 717.49143 580.49996 C 717.41101 591.99786 718.14857 604.19495 711.55724 614.29197 C 699.7725 635.5761 676.26929 648.38406 652.40013 650.22584 C 645.07697 651.85383 635.7058 649.85924 630.5 656.5 C 646.04066 657.48373 661.74285 654.63344 676.52313 649.9291 C 692.25456 645.05144 704.61261 633.69243 714.64994 621.05893 C 717.69379 617.28823 718.29711 612.08735 720.31405 607.71472 C 723.3801 601.70082 722.21782 594.83735 722.86012 588.33647 C 722.75128 584.0092 724.33876 579.34404 721.57265 575.54605 C 717.74996 565.50711 710.11584 557.13798 700.02617 553.21357 C 695.6489 550.24007 690.13642 551.77488 685.1718 551.29091 C 682.6093 551.35926 680.02456 551.39161 677.5 551.888 z M 492.843 579.971 C 511.7861 583.42426 529.22938 592.35032 545.19212 602.83221 C 572.37199 621.6999 589.49822 656.71354 582.03794 689.73668 C 576.99615 713.60171 564.11874 737.09476 542.25254 749.30887 C 523.56373 760.5479 500.13255 765.0237 479.15659 757.79156 C 462.74169 753.04937 446.91577 741.77237 441.60647 724.90664 C 440.4027 721.66932 439.50501 718.00291 435.25536 719.02947 C 424.97675 718.90808 414.38865 716.11384 407.22401 708.27059 C 395.45946 697.24783 386.57937 682.28461 386.40522 665.80515 C 384.02015 642.51144 394.29063 619.38429 410.78377 603.23774 C 426.41346 587.54208 448.06292 576.90665 470.56062 577.99963 C 478.0213 578.02942 485.51431 578.51841 492.843 579.971 z M 778 582.129 C 764.2266 584.93428 750.53846 593.74425 746.34077 607.82277 C 744.49211 614.61286 740.9051 621.29482 741.56134 628.49984 C 741.79956 636.81004 741.35707 645.21251 742.01396 653.46616 C 744.75169 664.09596 747.74327 674.69615 751.441 685 C 740.76163 676.99415 729.48902 669.55647 716.75746 665.19318 C 691.99715 655.98449 664.10103 652.49562 638.67189 661.21483 C 615.44737 668.03265 596.11794 685.36212 585.73286 707.09568 C 574.37765 727.71387 568.3327 752.43542 574.15535 775.67414 C 580.35166 796.35681 594.73175 813.80332 599.41344 835.00761 C 602.25995 852.81729 594.23245 873.67093 577.23659 881.49664 C 566.8581 885.56852 553.09658 883.92363 546.92175 873.65838 C 541.85843 865.25739 542.62893 850.53405 553.6537 847.39133 C 560.41519 842.57105 568.32561 855.81657 561.0385 857.05938 C 563.94636 847.52659 548.03969 854.5095 556.13339 860.63096 C 563.83123 867.85701 570.66262 856.10834 569 848.806 C 565.03233 844.69487 560.34886 838.85736 553.85717 841.75742 C 545.23324 843.56462 540.0633 851.97395 537.87098 859.81114 C 538.18947 872.85446 547.27553 885.29881 560.27203 888.22141 C 577.35428 892.76908 593.55361 879.75861 599.98531 864.68315 C 607.25683 850.43691 605.32153 833.44908 598.82673 819.31464 C 593.95242 808.65778 607.50201 821.54727 612.18144 821.60511 C 623.21181 825.11467 635.88023 828.83064 647.07 824.023 C 657.52876 833.82737 668.10548 845.07249 682.96028 847.4415 C 687.11217 848.32091 691.31787 848.90733 695.5 849.62 C 680.43438 855.90159 665.56614 865.89456 659.91158 881.95291 C 657.31341 888.94079 656.90363 896.63507 656.9699 903.96766 C 660.06817 914.36781 666.87651 923.87674 677.12247 928.17848 C 680.90421 930.58645 685.70195 928.92755 689.94896 929.29574 C 700.55994 929.13137 711.87339 922.80319 713.82332 911.64612 C 714.75863 907.93028 712.39994 903.88775 710.99216 900.51163 C 705.72707 891.18523 689.8846 890.22083 685.20103 900.60004 C 682.15216 904.35479 686.42964 910.46012 690.21925 911.83288 C 700.83635 915.7261 699.9817 898.17088 693 901.865 C 694.42942 911.47462 685.31266 901.69865 692.55845 899.10075 C 702.80703 894.27856 713.32148 908.47688 706.18761 917.02252 C 698.55495 925.4518 685.1399 925.15616 675.22571 921.45906 C 663.75314 916.58766 660.39374 902.55108 662.62126 891.28796 C 666.02588 872.65557 682.69387 859.81779 699.54086 853.42407 C 719.01639 846.58905 739.57126 839.94163 754.28523 824.66302 C 766.63345 813.22249 774.96936 798.25175 780.5 782.5 C 781.01995 801.66807 782.39822 821.54835 792.09575 838.58872 C 801.54727 857.25758 820.32566 867.96857 833.65402 883.41453 C 841.5232 891.8417 848.7005 902.39149 847.36325 914.52887 C 848.13357 931.08669 835.20381 948.5466 817.86778 948.73409 C 808.05975 949.58458 797.38051 942.45327 797.65888 931.92988 C 796.0054 923.27162 806.90238 913.20161 814.74475 918.84587 C 819.86136 924.05525 815.51483 924.6142 811.34533 921.36012 C 800.55211 922.22085 814.64288 937.65438 819.63122 928.05972 C 827.56953 918.50788 811.94494 907.58712 803.2 913.411 C 794.8776 917.53685 791.40756 927.24607 793.50305 935.97294 C 796.28654 951.07729 814.90219 957.30213 828.1591 952.40617 C 851.30966 944.23862 859.79446 912.60626 846.81676 892.56711 C 844.13058 886.422 835.28727 879.68573 834.47858 875.16381 C 849.59906 879.74389 866.8869 879.04196 880.21855 869.88343 C 883.91398 869.34352 887.03576 861.22124 890.47072 864.17504 C 898.50659 871.27416 907.89534 877.25864 918.85954 878.17358 C 923.73154 879.88666 937.42821 876.03712 928.36639 884.04009 C 919.12518 894.16905 911.0131 906.80945 912.24344 921.13462 C 912.6397 936.69386 924.53167 952.59453 940.96665 952.87695 C 952.34483 953.84733 964.26992 948.65015 969.98357 938.52052 C 971.22189 934.38178 970.53582 929.57513 971.02983 925.17836 C 971.0242 920.80969 966.66231 917.37164 963.149 915.303 C 960.52736 913.431 957.69147 912.96438 954.62817 913.98949 C 947.99077 913.86438 943.92256 919.27078 942.773 925.219 C 945.4844 931.42599 953.79672 932.06914 955.57 926 C 961.85023 921.07384 946.04693 921.99458 953.30315 918.48485 C 962.29498 915.87324 970.05357 926.94818 965.92816 934.9406 C 961.31352 945.32979 949.10982 948.09372 938.76034 948.2138 C 934.42731 947.06468 930.22855 944.34989 926.3533 942.00217 C 917.56179 934.73779 916.61104 921.51027 918.7014 911.03777 C 923.42423 891.79047 939.89452 878.82177 955.72016 868.53896 C 972.59861 857.36009 985.39426 840.35496 990.78272 820.79135 C 996.68804 795.39822 994.68222 767.19231 981.48201 744.30163 C 972.87225 729.17289 959.47407 717.58975 945.006 708.254 C 952.63928 708.19123 960.39729 708.71118 967.95394 708.29038 C 978.03327 704.30151 988.29355 697.64458 990.73054 686.26349 C 993.75142 675.50331 987.67159 663.99729 977.6378 659.5052 C 967.80773 653.50662 954.63455 662.3308 953.11525 672.79272 C 952.15207 681.16452 961.43206 688.92725 969.23674 684.473 C 975.25411 682.78462 977.05128 671.82703 970.30496 671.19339 C 965.57355 671.42144 957.44916 676.38287 966.71662 677.89822 C 974.1502 679.21373 956.50718 684.1987 957.78153 676.47325 C 955.78961 664.82511 971.91326 659.11809 979.74161 666.52745 C 990.62288 674.34463 987.51698 692.70492 975.82868 698.06255 C 971.10183 699.9407 966.9154 704.29554 961.50001 703.41038 C 940.33493 703.83701 919.17918 692.52007 908.68942 673.94937 C 899.74 658.88325 894.52267 639.05789 902.61678 622.54215 C 908.26229 614.67741 915.13969 605.7847 925.06287 603.53238 C 936.16887 600.93304 950.61943 606.86365 951.93889 619.30644 C 952.90073 627.91506 943.9194 632.84021 936.40283 632.93608 C 931.56889 633.53981 927.34217 626.57015 929.49752 622.17256 C 933.28597 615.68347 934.67958 632.87542 940.65431 625.28466 C 943.54013 616.50915 930.65474 612.50632 926.24249 619.51812 C 921.12007 626.13352 927.00738 635.46645 933.55883 638.23745 C 941.27764 637.53265 950.20587 637.10623 955.52945 630.73087 C 954.03958 625.39223 960.14686 618.69831 955.64064 611.70769 C 950.83855 601.02379 937.78923 596.32482 926.70889 598.35065 C 913.43663 599.33233 902.73981 610.03208 897.33876 621.54118 C 888.42459 641.25655 896.27559 663.51638 907.15351 680.72814 C 910.60087 687.36733 920.94881 694.31157 921.82347 699.51303 C 912.47088 698.61682 903.49799 694.70435 894.00002 695.59334 C 883.52311 695.79421 872.95409 695.30177 862.53399 695.9305 C 844.6989 700.30933 826.45156 706.07481 812.9568 719.17957 C 800.1286 730.11411 791.1399 744.83099 785.86007 760.73716 C 781.57846 772.49367 783.56707 752.683 782.68306 748.45946 C 781.64598 733.52229 776.71539 718.90731 769.53013 705.85327 C 766.23322 701.4557 764.58313 698.58609 770.25003 702.31192 C 786.62632 711.40563 810.40459 710.24221 822.51162 694.69308 C 828.7557 685.49373 829.1885 669.82177 819.05912 663.07701 C 809.03628 657.12384 792.0984 659.348 788.77246 672.09472 C 787.1392 678.93021 792.2636 686.2547 798.833 688.173 C 802.18676 686.30126 808.54068 684.57898 808.47946 680.55326 C 808.14042 674.74703 797.65311 668.07923 798.07356 675.81113 C 804.30077 674.87274 804.46541 681.71857 798.60109 682.77513 C 788.9304 681.30522 793.95028 666.39156 801.688 665.063 C 804.6729 663.29237 807.72658 663.81543 810.76765 665.13571 C 821.77098 668.30671 826.77588 683.41428 819.03052 692.15745 C 814.77178 697.43699 808.08106 700.07274 802 702.5 C 795.36528 702.35797 788.60269 702.7845 782.04813 702.28596 C 771.28683 697.82121 760.93014 691.05044 755.85406 680.12569 C 746.34708 661.39115 746.71985 639.62076 748.21501 619.20013 C 750.24984 605.46997 759.40137 592.98027 772.36902 587.70632 C 776.30366 585.5054 781.15273 587.03996 785.50594 586.54895 C 790.12571 585.67175 793.89035 588.88252 797.8048 590.77579 C 805.40343 595.64005 813.32925 605.37751 808.11307 614.68358 C 804.12603 624.32574 788.52042 627.68011 782.88025 617.94248 C 777.96876 611.38765 791.40174 606.47946 791.43833 611.22986 C 784.37147 611.97353 791.9672 620.00648 794.29998 617.11328 C 802.42944 610.13323 789.22577 599.99128 782.5794 606.71403 C 773.54664 610.99101 777.34112 623.0544 784.55097 626.96184 C 786.83839 629.38539 789.8064 629.69404 792.96467 629.41146 C 796.61474 629.17704 800.76921 630.58913 803.54674 627.50642 C 808.47701 624.3264 812.3054 619.30653 814.49786 614 C 814.6349 605.76134 814.85156 596.21521 807.57652 590.67048 C 799.68871 583.51332 788.47049 580.42721 778 582.129 z M 985.092 584.586 C 975.38833 586.67392 968.68875 594.63293 964.99433 603.39308 C 963.86043 607.36406 964.92695 611.852 964.63438 616.02063 C 967.24061 622.1587 973.17924 627.27564 980.03673 628.27356 C 990.14076 631.13662 1003.796 620.72776 999.6123 609.91762 C 996.60217 602.07779 980.82542 604.17839 984.59418 613.7291 C 990.26486 622.4401 990.14155 604.33016 994.79683 612.887 C 995.3237 617.4538 990.90789 622.9991 986.7 624 C 979.44815 624.80228 970.42259 621.92618 969.31075 613.61426 C 967.51462 598.69375 983.45188 586.79905 997.54613 589.1715 C 1009.7804 590.1103 1020.0372 599.13264 1023.956 610.5 C 1024.1728 604.23094 1024.3696 596.73229 1018.1136 593.14804 C 1008.9576 586.15361 996.68279 580.5299 985.092 584.586 z M 838.152 599.591 C 827.69384 601.7646 818.63062 613.0727 822.80056 623.8083 C 824.58118 632.36454 831.43652 641.13187 841.09114 639.74473 C 851.05686 639.60959 859.63803 626.53229 851.71953 618.60993 C 848.66288 616.71924 842.76622 612.26908 840.40938 617.21628 C 833.478 620.13582 839.73907 629.37971 843.23212 627.08942 C 842.05914 622.92217 849.88792 619.16382 849 624.5 C 850.54197 634.90408 835.89107 637.47674 830.579 630.082 C 823.20084 622.03267 829.32716 609.59652 837.82621 605.1307 C 840.87256 602.23647 845.45386 604.11977 849.22953 603.71694 C 861.57752 604.05972 872.32388 613.87821 874.23092 626.00834 C 880.8846 652.82703 865.93363 682.44427 841.25968 694.36161 C 835.03198 698.87981 822.53245 698.96951 820.42539 706.86606 C 831.60718 706.79358 841.54786 700.06606 850.84687 694.4642 C 866.85195 684.47698 878.85703 667.58159 880.39323 648.48823 C 882.33736 632.48431 879.36511 613.1496 864.76547 603.74176 C 856.91631 599.02722 847.06471 597.24071 838.152 599.591 z M 507.5 600.838 C 499.76416 604.61194 493.7308 612.61216 495.07334 621.55611 C 494.38998 635.7924 509.13621 646.64204 522.574 645.294 C 525.91866 645.57646 529.12924 645.29075 531.9332 643.28209 C 540.65076 640.04238 546.94531 631.31373 545.87128 621.84965 C 545.24335 611.46748 535.89538 603.27596 526.47705 600.34922 C 520.35578 599.18826 513.36271 598.12953 507.5 600.838 z M 529.692 606.841 C 540.25445 611.71659 544.8858 627.89191 534.95623 635.7622 C 524.53348 644.8698 504.54271 640.9678 500.4346 627.03653 C 498.24404 619.10218 500.41468 608.94816 508.89389 605.76367 C 511.42146 603.66946 514.40229 603.67121 517.48874 604.1614 C 521.65771 604.3905 525.89242 605.029 529.692 606.841 z M 513.985 612.029 C 513.09981 616.05572 510.72802 621.34416 512.6365 625.14581 C 515.28702 632.98612 524.79352 631.06819 522.71243 622.38454 C 519.08821 619.33528 518.44967 612.04988 515.12655 610.42864 L 513.985 612.029 z M 453 632.935 C 441.39869 635.84474 432.45137 646.88382 433.044 659 C 431.94491 671.35455 443.26757 683.94204 455.97394 681.55445 C 464.13652 679.54068 468.75648 670.13738 464.71052 662.77588 C 462.39533 660.28752 459.81128 654.17886 455.70281 655.20911 C 447.67862 654.32414 445.14109 666.8381 453.768 667 C 459.32599 668.72087 450.39029 656.31015 458.70637 659.96239 C 469.09727 665.52282 458.43977 679.22907 449.40823 676.67374 C 437.69571 673.05411 433.77629 657.34605 440.73492 647.7531 C 445.48915 639.56374 456.0773 634.20964 465.17443 638.61547 C 480.28507 644.50538 495.24916 651.98332 507.331 662.945 C 511.60577 670.22768 520.73012 676.35245 519.85551 685.40273 C 519.94589 695.80342 511.81019 703.72093 503.53325 708.76155 C 494.44968 713.83815 480.53598 709.65948 476.69597 699.7732 C 473.98918 693.10662 479.93255 682.33019 486.9405 683.7665 C 481.75493 689.51962 488.96781 698.48269 494.16577 698.55106 C 501.55378 693.78237 498.61354 678.37776 489.24308 678.03616 C 477.00017 676.77768 466.74643 691.18813 472.80088 702.2005 C 476.52438 712.37524 488.99831 714.06433 498.42999 714.10972 C 501.68027 714.43869 504.74631 714.00568 507.4443 712.05059 C 523.61807 705.26212 526.99343 683.08967 518.65094 669.08505 C 509.17563 652.32988 490.13686 645.34206 473.85565 637.1336 C 467.36321 634.41261 460.17725 630.74666 453 632.935 z M 683.701 662.944 C 703.2227 665.98561 722.48746 672.1869 739.31948 682.65979 C 760.60874 698.04595 776.34849 722.40403 777.49131 749.09509 C 779.75542 779.1521 766.65917 810.32039 741.92577 828.04046 C 724.26125 841.46295 700.18654 847.89435 678.77289 840.19982 C 666.67616 836.68786 656.92313 828.30804 649.108 818.722 C 643.16033 819.70926 637.22928 821.72913 631.27116 822.08555 C 618.19544 820.72232 605.93717 814.46637 597.19507 804.61152 C 582.36593 790.39561 574.92845 769.26452 577.63221 748.90289 C 580.7693 728.88823 588.40197 709.23722 600.543 692.948 C 617.35092 672.47699 643.96643 660.78982 670.40591 662.15188 C 674.84234 662.20978 679.31267 662.22272 683.701 662.944 z M 685.275 668.971 C 674.02124 672.00679 663.716 684.66876 668.65041 696.53355 C 672.185 708.99127 683.15318 720.16822 696.80421 719.77423 C 708.99676 721.22748 724.31034 717.26734 728.90348 704.52377 C 732.81545 693.43818 726.85082 681.07806 716.71481 675.7435 C 707.42461 670.29535 696.05624 666.82121 685.275 668.971 z M 709.053 678.065 C 716.72488 680.01321 720.78489 685.91036 723.73177 692.68184 C 726.6084 695.65249 724.24717 699.92986 724.43079 703.57191 C 723.32366 708.27709 717.49831 711.13683 713.34243 712.92207 C 701.61847 716.66814 686.66571 715.66964 678.02837 706.02386 C 673.52456 698.76666 671.27756 687.44442 676.7512 680.2904 C 679.95983 676.12844 684.5989 674.65398 681.0324 681.31394 C 677.68868 692.84169 685.64183 708.17266 698.79408 707.63547 C 709.2959 710.10069 720.64611 701.33545 715.32865 690.20692 C 714.66405 684.8933 702.4673 675.87063 707.38198 686.7833 C 708.42065 690.3643 711.5517 693.9206 711.98111 697.37931 C 710.32674 699.57353 709.44191 703.20299 705.95403 701.98623 C 698.47298 702.20037 687.82801 701.59568 686.00619 692.52223 C 684.11321 686.05691 686.67627 677.60156 692.99834 674.90674 C 698.46954 675.23121 703.95271 675.91606 709.053 678.065 z M 493.171 683.655 C 499.1336 690.02133 490.60085 695.52545 488.635 686.704 C 487.07316 682.87167 490.14176 680.1723 493.171 683.655 z M 907.26 702.54 C 943.49509 707.33723 977.95791 733.58596 986.26442 770.13113 C 991.38696 793.76709 989.43653 819.81605 975.96604 840.47533 C 964.48318 858.18142 945.69582 873.9063 923.5 873.287 C 910.61589 873.79458 897.86248 867.24757 891.29461 856.06371 C 889.73579 851.69944 887.1536 857.23361 885.0233 858.39691 C 881.13039 861.59396 877.79954 865.76791 873.54531 868.3366 C 847.65652 878.25911 816.1165 866.79389 801.32721 843.64644 C 790.32212 827.44928 785.70365 807.50344 787.28588 788.07288 C 787.46314 776.42127 788.91065 764.62323 794.37162 754.15363 C 806.55595 723.43026 838.08405 703.2738 870.50369 700.95914 C 882.7611 699.91788 895.10895 700.79296 907.26 702.54 z M 890.39 711.602 C 877.99356 718.55203 872.5656 735.76571 878.83079 748.47929 C 885.79056 758.98456 898.99656 750.24936 901.46525 740.70013 C 906.72601 734.0533 905.55824 724.31351 896.83004 721.48583 C 898.38934 718.05726 904.52517 713.02914 900.418 709.607 C 896.99601 708.17045 893.2514 709.61061 890.39 711.602 z M 892.88 719.914 C 890.50257 726.2666 902.66132 727.92411 898.06067 735.39264 C 896.67563 742.66455 886.7518 753.81432 882.29303 742.35529 C 879.41772 739.81695 882.18877 736.34563 882.547 733.273 C 883.02615 727.43753 889.29854 715.90475 893.59375 717.54312 L 893.29594 718.63411 L 892.88 719.914 z M 647.144 723.277 C 636.71526 729.6974 625.75048 739.29052 624.81744 752.36978 C 623.11712 763.91187 628.80109 777.84099 641.386 780.062 C 649.40862 783.05914 654.22227 777.53232 659.05263 773.6335 C 667.50913 764.50077 654.56496 749.54006 644.07703 755.14997 C 638.87737 756.79133 639.73356 761.41229 641.21462 765.594 C 643.96874 775.26997 660.2049 760.78029 648.04181 758.98238 C 641.70259 757.52489 654.26479 757.61595 655.39337 759.29625 C 660.06072 765.77281 653.6037 779.23867 644.80334 776.32543 C 636.3554 775.49484 630.50392 768.61817 629.58293 760.41767 C 626.03958 741.38765 646.69256 721.2282 665.54926 728.84383 C 679.77634 733.95313 694.74436 738.99399 706.23525 749.17363 C 714.94404 757.84293 714.38498 772.32628 709.53647 782.78999 C 704.88059 791.88462 693.15432 797.10765 683.72137 792.19912 C 680.12491 789.79701 675.92371 786.1186 674.84272 781.98459 C 674.93656 775.66479 677.05133 767.54806 684.72218 767.24782 C 691.73032 763.93609 694.61041 778.29166 688.76925 777.87918 C 683.81103 778.90616 685.84162 773.49634 684.79364 770.52478 C 679.14321 767.29947 679.78915 785.06657 688.448 782.262 C 692.96484 783.04006 697.95566 777.7693 694.61903 773.74074 C 693.44595 763.37592 679.43946 760.50816 673.82612 769.02626 C 668.17651 777.79322 670.79875 792.66672 681.70558 795.98087 C 685.8851 796.98965 690.00721 800.21918 694.39082 798.45262 C 698.071 797.36489 702.66336 797.95437 704.95052 794.30401 C 713.73583 786.59826 719.76923 775.03315 717.75281 763.11455 C 716.35281 747.78773 702.00095 738.68663 689.37626 732.64108 C 676.49628 727.2362 662.70486 719.797 648.33088 722.93284 L 647.144 723.277 z M 874.5 763.932 C 860.3643 764.72889 843.77745 770.20199 838.66207 784.8513 C 832.85354 800.04207 839.19498 821.30253 855.83809 826.33464 C 867.78483 830.19172 883.60769 820.2366 881.24379 806.8283 C 880.28502 796.84731 866.86583 791.16524 859.52425 798.49137 C 850.09733 805.78351 870.02225 818.19679 869.63471 804.35078 C 869.72651 801.0056 861.5562 798.89539 868.74487 800.22465 C 872.48999 802.29458 879.20812 806.24713 876.33295 811.28159 C 874.45718 821.53201 861.23871 825.8945 853.16322 819.77275 C 839.8779 811.44628 836.93927 791.15059 847.50753 779.47164 C 852.3085 773.31294 860.20626 770.48278 867.49997 768.7534 C 882.62565 769.18304 897.89127 768.06965 912.88772 770.33729 C 927.0608 774.19118 933.09228 790.51524 932.21334 803.99692 C 932.21668 807.88996 928.94702 811.09495 927.16887 814.38165 C 921.09287 823.18226 905.8313 827.01823 899.01316 817.04726 C 892.93535 809.28458 901.48714 794.39469 911.22428 800.68184 C 916.33539 807.23046 908.33739 802.2775 906.22032 802.5495 C 897.9225 807.72085 906.66322 813.64766 913.43969 810.22418 C 919.66956 807.42972 916.03592 799.36426 911.88629 796.69521 C 906.0697 795.92585 898.76172 795.19642 895.53681 801.39479 C 890.41093 808.99801 894.04059 820.22001 901.0655 825.29188 C 914.42481 830.82365 933.16754 823.22614 935.17276 807.84676 C 937.25233 795.93313 936.15717 781.80036 926.07512 773.61362 C 914.88113 762.38563 898.03607 763.32943 883.43939 763.41651 C 880.456 763.51567 877.47494 763.68657 874.5 763.932 z " fill="none" stroke="#cc9966" vector-effect="non-scaling-stroke" data-view-type="laser" fill-rule="nonzero"></path>
  </svg>