<?xml version="1.0" encoding="utf-8"?>
<!DOCTYPE svg PUBLIC "-//W3C//DTD SVG 1.0//EN" "http://www.w3.org/TR/2001/REC-SVG-20010904/DTD/svg10.dtd">
<svg version="1.0" xmlns="http://www.w3.org/2000/svg" width="225px" height="225px" viewBox="0 0 225 225" preserveAspectRatio="xMidYMid meet">
 <g fill="#110c08">
  <path d="M12.50 223.60 c0.05 -1.20 0.65 -1.70 5.40 -4.40 2.95 -1.70 6.40 -3.45 7.70 -3.95 1.30 -0.50 2.65 -1.25 3 -1.65 0.55 -0.65 0.40 -0.65 -0.85 0.05 -1.95 1.10 -8.05 3.20 -12.75 4.40 -2.60 0.65 -5.50 0.95 -9.35 0.95 l-5.65 0 0 -80.25 0 -80.25 1.60 0 c1.90 0 8.75 -2.05 12.20 -3.60 3.10 -1.45 10.30 -5.45 10.10 -5.65 -0.10 -0.10 -1.75 0.40 -3.70 1.05 -4.55 1.50 -9.15 2.20 -15.30 2.20 l-4.90 0 0 -26.25 0 -26.25 2.25 0 2.25 0 0 2.15 c0.05 1.15 0.35 2.80 0.75 3.60 0.65 1.45 0.65 1.35 0.70 -2.10 l0.05 -3.65 31.40 0.05 c17.25 0 32.85 0.15 34.75 0.40 1.85 0.20 3.35 0.15 3.35 -0.05 0 -0.20 10 -0.40 22.25 -0.40 l22.25 0 0 1.50 c0 1.20 -0.20 1.50 -1.05 1.50 -0.95 0 -0.90 0.20 0.75 3.35 1.10 2.10 1.80 4.05 1.80 5.20 l0 1.85 -3.35 0.80 c-5.30 1.35 -9 3.20 -11.15 5.65 -2.35 2.70 -5.10 9 -5.40 12.40 -0.25 2.90 0.95 7.85 2.65 11.30 2 3.95 8.05 8.05 12.75 8.70 2.75 0.35 5.50 -0.95 6.20 -2.90 0.55 -1.50 0.10 -2.35 -0.80 -1.45 -0.40 0.40 -2.50 0.60 -6.05 0.60 l-5.45 0 -2.90 -2.95 c-3.65 -3.70 -4.25 -5.40 -4.25 -12.05 0 -5.15 0.05 -5.30 1.85 -8.50 3.75 -6.70 7.45 -8.70 16.20 -8.70 5.15 -0.05 5.70 0.05 8.25 1.40 1.50 0.80 3.30 2 4.10 2.70 1.50 1.40 3.90 5.40 4.70 7.85 l0.50 1.50 0.80 -1.60 c1.05 -2 1.05 -2.15 -0.10 -2.15 -0.60 0 -1.05 -0.45 -1.25 -1.20 -0.45 -1.90 -4.10 -6.15 -6.40 -7.50 -1.20 -0.65 -3.20 -1.50 -4.50 -1.80 -1.30 -0.35 -2.60 -0.90 -2.90 -1.30 -1.05 -1.25 -2 -5.95 -2 -10.05 l0 -4.15 7.50 0 7.50 0 0 3.20 c0 2.35 0.25 3.50 0.95 4.35 0.85 1.15 1.15 1.20 4.85 0.95 3.70 -0.25 3.95 -0.35 4.10 -1.40 0.10 -0.70 0.80 -1.55 1.70 -2 2.80 -1.55 3.90 -2.65 3.90 -3.90 l0 -1.20 8.75 0 8.75 0 0 2.40 c0 1.30 0.45 3.25 0.95 4.35 l0.90 2 -0.25 -4.35 -0.25 -4.40 26.30 0 26.30 0 0 40.50 0 40.50 -1.30 0 c-0.75 0 -1.80 -0.40 -2.35 -0.90 -0.95 -0.85 -0.95 -0.80 0.05 0.65 2 2.85 2.70 6.55 3 15 0.25 7.95 0.25 8 -1.05 10.50 l-1.35 2.50 1.50 0.15 1.55 0.15 0 5.50 0 5.50 -4.10 -0.30 c-2.30 -0.20 -4.45 -0.40 -4.75 -0.50 -1.05 -0.35 -0.75 -3.30 0.50 -4.65 1.55 -1.75 0.25 -0.95 -4.55 2.80 -3.95 3.15 -5 4.40 -2.50 3.05 2.10 -1.20 7.75 -0.80 11.80 0.80 l3.60 1.45 0 11.45 0 11.45 -3.75 -0.20 c-3.30 -0.15 -3.90 -0.35 -5.10 -1.55 -1.20 -1.20 -1.40 -1.80 -1.55 -5.05 -0.20 -3.50 -0.15 -3.70 1.40 -5.45 0.90 -1.05 1.90 -1.85 2.30 -1.85 0.95 0 0.90 -0.65 -0.25 -2.05 -1.20 -1.45 -2 -0.90 -2.50 1.65 -0.30 1.45 -0.55 1.70 -2.25 1.90 l-1.95 0.25 -0.05 6.75 c-0.05 3.70 -0.20 7.10 -0.30 7.50 -0.20 0.65 0.35 0.70 3.35 0.55 3 -0.10 3.80 0 4.85 0.85 1 0.75 1.80 0.90 3.55 0.70 l2.25 -0.25 -0.05 37.85 -0.05 37.80 -23.20 0 -23.20 0 0 -1.50 c0 -0.85 0.25 -1.50 0.65 -1.50 0.30 0 2.50 -1.15 4.85 -2.50 2.35 -1.40 5.90 -3.30 7.90 -4.25 1.95 -0.90 3.60 -1.80 3.60 -2 0 -0.15 -1.05 0.25 -2.35 0.95 -7.50 3.75 -15.60 5.10 -26.90 4.55 -10.20 -0.50 -15.90 -2.45 -21.55 -7.40 -1.30 -1.15 -2.20 -1.75 -1.95 -1.35 1.95 3.30 6.45 7.95 10.35 10.65 1.85 1.25 2.40 1.90 2.40 2.95 l0 1.40 -71.50 0 -71.50 0 0 -1.40z m107.15 -5.05 c2.50 -0.95 5.15 -4.85 2.80 -4.10 -0.40 0.15 -3.15 0.35 -6.10 0.45 l-5.40 0.20 -2.70 -2.70 c-2.15 -2.15 -2.85 -3.30 -3.70 -6.10 -1.40 -4.50 -1.35 -8.75 0.05 -12.30 1.35 -3.40 4.50 -7.65 6.60 -8.95 5.50 -3.35 15.15 -3.30 20.25 0.10 4.35 2.95 5.90 5.10 7.60 10.35 0.80 2.40 0.90 2.55 0.90 1.15 0.05 -0.85 0.25 -2.15 0.55 -2.85 0.35 -1 0.30 -1.30 -0.20 -1.30 -0.40 0 -1.20 -0.80 -1.80 -1.80 -2.50 -4.30 -4.45 -6.10 -8.05 -7.45 -6.80 -2.60 -7.70 -4.40 -7.35 -14.60 0.15 -4.85 0.45 -6.90 1.15 -8.40 0.50 -1.10 1 -2.20 1.15 -2.50 0.10 -0.25 -0.35 0.20 -1.10 1 -1.10 1.35 -3.20 6.65 -4 10.40 -0.20 0.75 -0.65 1.35 -1.10 1.35 -0.60 0 -0.40 0.70 1 3.25 1.10 2 1.80 3.95 1.80 5 0 1.60 -0.10 1.75 -1.55 1.75 -1.95 0 -6.60 1.30 -9.20 2.60 -2.90 1.45 -5.05 3.70 -7.10 7.35 -1.70 2.95 -1.85 3.60 -2.05 8.30 -0.30 6.80 0.55 9.70 3.95 13.60 2.90 3.30 4.60 4.50 8.15 5.75 2.95 1 3.80 1.05 5.45 0.45z m-43.85 -3.10 c5.70 -2.10 9.50 -5.90 11.70 -11.70 1.80 -4.65 1.70 -11.90 -0.25 -18.50 -0.85 -2.90 -2.25 -6.25 -3.35 -8 -2.25 -3.65 -2.40 -3.40 -0.40 0.80 2.55 5.55 3.25 8.95 3.25 16.70 0 6.60 -0.10 7.15 -1.35 9.75 -1.85 3.70 -5.40 7.70 -8.10 9 -1.95 0.90 -2.95 1.05 -7.55 0.90 -2.90 -0.10 -5.25 0 -5.25 0.25 0 0.20 0.50 0.85 1.05 1.40 0.95 0.95 1.45 1.05 4.15 0.80 1.70 -0.15 4.45 -0.80 6.10 -1.40z m137.25 -34 c-0.05 -2.55 -0.20 -4.75 -0.30 -4.90 -0.15 -0.10 -0.25 2.10 -0.25 4.95 0 2.85 0.15 5.05 0.30 4.85 0.20 -0.15 0.30 -2.40 0.25 -4.90z m-166.70 -1.05 c-0.10 -1.20 -0.20 -0.35 -0.20 1.85 0 2.20 0.10 3.15 0.20 2.15 0.10 -1.05 0.10 -2.85 0 -4z m101.95 -7 c0.55 -1.25 1.50 -2.20 2.65 -2.75 1.95 -0.95 1.95 -1 1.25 -6.20 -0.20 -1.65 -0.05 -2.80 0.50 -3.85 0.45 -0.90 0.80 -2.80 0.80 -4.45 0 -2.75 -0.15 -3.05 -1.90 -4.80 -2.10 -2.05 -6.20 -3.85 -8.75 -3.85 -2.20 0 -7.55 1.85 -8.50 2.90 -0.75 0.80 -0.40 0.85 4.85 0.85 5.20 0 5.70 0.10 7.15 1.25 2.95 2.35 3.75 5.80 2.70 11.45 -0.55 2.85 -1.55 3.55 -5.15 3.55 -3.50 0 -4.10 -0.80 -3.80 -4.80 0.25 -3.15 -0.20 -3.40 -2.55 -1.40 -1.80 1.50 -1.90 2.40 -0.55 4.45 0.70 1.05 1 2.35 1 4.45 0 4.30 0.85 5.05 5.70 5.05 l3.75 0 0.85 -1.85z m24.70 0.05 c-0.30 -0.90 -0.50 -3.05 -0.50 -4.70 l-0.05 -3 -0.75 1.70 c-0.80 1.85 -0.60 3.50 0.60 6.50 0.90 2.15 1.35 1.80 0.70 -0.50z m-167 -3.55 c-0.05 -3.90 -0.10 -4.05 -0.75 -2.90 -0.50 0.80 -0.65 1.95 -0.45 3.25 0.70 5.05 1.20 4.90 1.20 -0.35z m70.70 -2.90 c15.35 -4.80 16.55 -5.25 18.95 -7.10 5.50 -4.10 8.45 -7.65 9.60 -11.65 0.55 -1.80 0.80 -2 2.30 -2.15 l1.70 -0.15 1.95 6.55 c1.05 3.60 2 6.45 2.10 6.35 0.10 -0.10 -0.10 -1.50 -0.45 -3.15 -1 -4.90 -0.60 -26.65 0.60 -33.35 1.70 -9.20 2.70 -10.55 8.15 -11.30 1.70 -0.20 2.25 -0.45 2 -0.90 -0.30 -0.50 -1.10 -0.50 -3.35 -0.15 -1.65 0.25 -4.05 0.50 -5.35 0.50 l-2.40 0 0 -2.20 c0 -3.40 3.80 -8.85 9.05 -12.95 5.30 -4.20 8 -5.05 14.75 -4.75 2.75 0.15 5.35 0.40 5.85 0.65 0.70 0.30 0.85 0.10 0.85 -1.45 0 -1.80 0 -1.80 -2.10 -1.80 -4.15 0 -11.10 1.05 -13.15 1.95 -1.10 0.50 -2.85 1.60 -3.85 2.50 -1.35 1.20 -2.25 1.55 -3.75 1.55 l-2 0 -0.30 -3.10 c-0.20 -1.75 -0.80 -4.60 -1.35 -6.30 -0.55 -1.75 -1 -4.40 -1 -5.90 0 -2.55 -0.10 -2.70 -1.25 -2.70 -0.85 0 -1.60 -0.60 -2.65 -2.15 -0.80 -1.15 -2.65 -3.25 -4.05 -4.60 -2 -1.90 -2.80 -3.15 -3.40 -5.20 -0.95 -3.25 -2.40 -4.85 -4.90 -5.35 -1.45 -0.25 -2.15 -0.10 -3.25 0.75 -1.90 1.40 -6.25 1.50 -6.95 0.15 -0.25 -0.50 -1.05 -1.20 -1.70 -1.55 -1.10 -0.55 -1.45 -0.55 -2.75 0.20 -2 1.20 -2.60 2.65 -2.60 6.20 0 3.15 -0.35 3.55 -2.80 3.55 -3.40 0 -5.80 3.10 -4.75 6.05 0.30 0.90 0.55 2.70 0.55 4 0 1.90 -0.20 2.55 -1 2.95 -0.55 0.30 -1 0.95 -1 1.45 0 1.05 3.65 4.55 4.75 4.55 1.25 0 4.70 -4.90 7.55 -10.70 1.65 -3.40 3.25 -5.95 4.10 -6.55 1.70 -1.25 7.65 -1.60 11.90 -0.75 2.65 0.55 3.30 0.95 6.60 4.20 4.55 4.50 5.75 6.30 7.10 10.75 0.95 3.05 1.05 4.45 0.90 9.70 -0.25 6.70 -0.85 8.85 -2.65 8.85 -0.95 0 -1.15 0.35 -1.40 2.40 -0.15 1.30 -1.20 5.05 -2.30 8.35 -2.10 6.45 -3 10.15 -3.20 13.75 -0.10 2.20 -0.15 2.25 -1.85 2.40 -1.40 0.10 -2.30 -0.25 -4.45 -1.90 -1.50 -1.10 -2.85 -2 -2.95 -2 -0.10 0 0.60 0.90 1.55 2 4.20 4.60 5.85 8.80 5.85 14.65 0 3.35 -1.40 8.55 -3.05 11.20 -2.45 3.90 -9.35 7.85 -19 10.85 -5.70 1.75 -9.40 3.30 -8 3.30 0.40 0 1.40 -0.20 2.25 -0.50z m125.15 -8.70 c-0.85 -1.20 -2.10 -3.05 -2.70 -4.10 l-1.10 -1.95 -0.05 1.70 0 1.65 -2.85 -0.25 c-1.60 -0.15 -4.60 -0.75 -6.65 -1.30 -2.90 -0.80 -4.15 -0.90 -5.55 -0.55 -2.50 0.70 -5.75 3.15 -6.05 4.60 -0.20 1.15 -0.20 1.15 3.05 -0.55 3.30 -1.65 3.30 -1.65 8.60 -1.35 5.35 0.30 11.10 1.80 13.55 3.50 0.60 0.45 1.20 0.80 1.25 0.80 0.10 0 -0.60 -1 -1.50 -2.20z m-168.35 -2.60 l-2.50 -3.95 0 1.90 c0 1.85 0 1.85 -2 1.85 -1.10 0 -3.15 -0.45 -4.55 -1 -6 -2.25 -9.10 -1.80 -12.40 1.75 -2.50 2.75 -2.65 3.60 -0.25 2 4.25 -2.90 12.75 -2.95 19.75 -0.10 2.30 0.95 4.25 1.65 4.35 1.60 0.10 -0.10 -1 -1.90 -2.40 -4.05z m98.05 -3.40 l1.70 -0.75 -1.80 -0.05 c-1.45 0 -1.90 0.25 -2.40 1.35 -0.50 1.10 -0.50 1.25 0.10 0.75 0.35 -0.30 1.45 -0.90 2.40 -1.30z m-75.25 -3.90 c0.65 -0.55 2.30 -1.15 3.85 -1.35 1.55 -0.20 3.15 -0.65 3.55 -1 1.10 -0.90 1.75 -3.60 2.10 -8.55 0.30 -3.85 0.20 -4.55 -1 -7.50 -1.35 -3.30 -4.25 -6.80 -7.05 -8.45 -0.80 -0.50 -3 -1.30 -4.85 -1.75 l-3.35 -0.90 -0.15 -1.95 -0.15 -1.90 -4 2.75 c-5.30 3.65 -5.45 3.90 -1.95 2.65 3.75 -1.35 6.80 -1.10 11.75 1.05 3.90 1.65 6.40 3.45 7.45 5.50 0.35 0.65 0.75 3.25 0.90 5.80 0.20 4.15 0.10 4.80 -1.15 7.65 -1.95 4.25 -3.05 5.05 -7.30 5.05 -1.85 0 -3.95 -0.20 -4.65 -0.50 -3.95 -1.50 -3.60 -9.90 0.55 -12.90 1.35 -1 1.35 -1 0.45 -2.05 -1.40 -1.50 -2.30 -1.35 -2.30 0.45 0 1.55 -0.15 1.65 -2.65 2.25 -1.40 0.30 -1.40 0.35 -1.10 2.95 0.20 1.65 0.15 3.10 -0.20 3.70 -0.35 0.70 -0.40 1.15 -0.05 1.35 0.75 0.45 0.60 3.35 -0.25 5.40 -0.40 1 -0.75 1.95 -0.75 2.10 0 0.10 1.30 0.10 2.90 -0.05 2.25 -0.25 3.35 -0.10 5.10 0.70 2.30 1.10 2.60 1.05 4.30 -0.50z m139.80 -5.90 c-0.20 -5.05 0.45 -8.45 2.25 -11.50 0.60 -1.05 0.50 -1.05 -0.55 0.20 -0.65 0.80 -1.35 2.20 -1.55 3.15 -0.25 1.45 -0.50 1.65 -1.80 1.65 l-1.45 0 0.70 1.75 c0.45 1 1 3.20 1.30 4.90 0.55 3 0.95 4.85 1.15 4.85 0.05 0 0 -2.25 -0.05 -5z m-166 -7.30 c0.45 -1.40 1.20 -3.35 1.65 -4.25 l0.90 -1.70 -1.05 0.90 c-0.55 0.50 -1.30 1.90 -1.65 3.15 -0.60 2 -0.80 2.20 -2.25 2.20 l-1.60 0 0.90 2.65 c0.50 1.40 1.10 3.50 1.30 4.60 0.40 1.95 0.45 1.90 0.75 -1.50 0.15 -1.90 0.65 -4.65 1.05 -6.05z m-19.40 1.40 c1.75 -3.35 7 -4.45 12.30 -2.60 1.50 0.50 2.80 0.90 2.85 0.80 0.35 -0.30 -0.75 -2.90 -1.80 -4.20 -1.55 -2.05 -3.45 -2.45 -5.60 -1.15 -1.80 1.10 -5.65 1.45 -6.20 0.55 -0.55 -0.95 -1.75 0.50 -1.75 2.10 0 1.15 -0.30 1.60 -1.60 2.15 -2.35 0.95 -2.50 1.25 -1.40 2.65 0.65 0.80 1 2 1 3.35 0 3 0.70 3.30 1 0.40 0.15 -1.30 0.70 -3.15 1.20 -4.05z m166.85 -0.10 c0.60 -1.10 1.85 -2.30 2.75 -2.75 2.05 -0.95 6.45 -0.95 9.20 0 1.20 0.40 2.25 0.65 2.40 0.55 0.55 -0.55 -0.55 -3.05 -1.95 -4.40 -1.20 -1.25 -1.75 -1.45 -3 -1.20 -0.85 0.15 -1.85 0.65 -2.25 1.05 -0.90 0.85 -3.30 1 -4.75 0.20 -1.60 -0.85 -3.35 0.60 -3.55 2.90 -0.15 1.65 -0.35 1.95 -1.60 2.15 -1.85 0.30 -2.20 1.25 -0.85 2.10 0.70 0.45 1.05 1.15 1.05 2.25 0 0.85 0.15 2 0.35 2.50 0.25 0.65 0.45 0.35 0.75 -1.25 0.20 -1.15 0.85 -3 1.45 -4.10z m-82.05 -11.75 c-0.70 -0.40 -1.80 -0.70 -2.50 -0.70 -1 0 -0.80 0.15 0.75 0.70 2.65 0.85 3.25 0.85 1.75 0z m-66.30 -10.40 c3.65 -1.65 9.35 -7.10 11.05 -10.50 1.70 -3.45 1.70 -6.45 0 -7.80 -0.70 -0.55 -1.95 -1.10 -2.70 -1.30 -1.05 -0.20 -1.55 -0.70 -1.90 -1.90 -0.40 -1.50 -0.60 -1.60 -3.45 -1.90 -1.65 -0.15 -3.30 -0.45 -3.65 -0.65 -0.90 -0.55 -2 0.60 -2.35 2.50 -0.25 1.30 -0.55 1.70 -1.40 1.70 -2.40 0 -2.50 1.50 -0.35 4.90 0.95 1.55 1.70 0.75 2.05 -2.30 l0.25 -2.35 3.30 -0.15 3.30 -0.15 1.35 3.65 c1.55 4.35 1.65 6.60 0.30 8.75 -1.25 2.05 -2.45 2.85 -6.70 4.20 -3.75 1.20 -8.30 1.15 -12.05 -0.10 -1.75 -0.60 -2.20 -1.15 -3.80 -4.20 -4.60 -9 -3.55 -18.45 3 -26.95 6.20 -8.10 11.95 -11.20 20.85 -11.35 l3.45 -0.05 -2.25 -0.75 c-1.55 -0.50 -3.55 -0.65 -6.45 -0.50 -3.75 0.20 -4.70 0.50 -8.85 2.55 -5.65 2.85 -9.40 6.65 -12.60 12.85 -3.05 6.05 -3.70 10.70 -2.20 16.70 1.35 5.45 2.45 7.80 5.40 11.15 4.80 5.45 10.20 6.75 16.40 3.95z m165.45 0.45 c1.80 -0.65 3.95 -1.70 4.80 -2.25 3 -2.15 8.45 -9.90 8.90 -12.70 0.30 -2.10 -1.25 -4.15 -3.90 -4.90 -1.55 -0.50 -2.05 -0.90 -2.35 -2.15 -0.40 -1.45 -0.55 -1.55 -3.40 -1.85 -1.60 -0.15 -3.30 -0.45 -3.75 -0.65 -1.05 -0.45 -1.85 0.55 -2.05 2.65 -0.15 1.50 -0.40 1.80 -1.75 2.15 -2 0.50 -2.05 1.05 -0.35 3.30 1.45 1.90 2.20 1.55 2.20 -1.05 0 -3.15 2.15 -4.20 5.75 -2.85 2.05 0.80 3.90 5.45 3.65 9.15 -0.30 3.85 -1.35 5.15 -5.65 6.90 -2.90 1.15 -4.25 1.40 -7.85 1.40 -5.20 0.05 -6.35 -0.40 -8.40 -3.25 -3.10 -4.30 -3.70 -6.40 -3.70 -12.70 -0.05 -3.30 0.25 -6.85 0.60 -8.35 0.90 -3.45 4.50 -8.45 9.45 -13.20 3.40 -3.25 4.35 -3.90 7.15 -4.70 1.80 -0.50 5.30 -1.05 7.75 -1.15 4.45 -0.25 4.50 -0.30 2.50 -0.90 -7.35 -2.30 -17.70 1.35 -24 8.50 -3.10 3.50 -4.60 6.40 -5.85 11.05 -1.20 4.45 -1.50 8.15 -0.90 11.20 1.25 6.60 6.40 13.80 11.75 16.55 2.65 1.30 5.35 1.25 9.40 -0.20z m-135.90 -10.60 c1.20 -2.50 1.85 -7.05 1.50 -9.90 -0.40 -2.85 -3.10 -10.65 -3.85 -11.10 -0.50 -0.30 -0.35 0.80 0.95 7.55 1.10 5.65 0.65 12.25 -1.05 15.85 l-1.25 2.65 1.45 -1.70 c0.80 -0.95 1.80 -2.45 2.25 -3.35z m-4.60 -25.25 c-0.50 -0.80 -1.40 -2 -2 -2.55 -1.05 -1 -1.15 -1 -1.15 -0.15 0 0.50 0.85 1.65 1.90 2.55 2.30 2.05 2.35 2.05 1.25 0.15z m165 -1.65 c-0.50 -0.65 -1 -0.95 -1.10 -0.65 -0.10 0.25 0.20 0.80 0.75 1.20 1.30 0.95 1.35 0.80 0.35 -0.55z m-45.90 -20.15 c3.85 -0.85 10.10 -3.60 14 -6.10 1.40 -0.90 2.05 -1.50 1.50 -1.30 -6.15 2.05 -9.70 2.50 -18.50 2.45 -7.60 0 -9.65 -0.20 -13.10 -1.10 -5.70 -1.55 -8.05 -2.65 -11.35 -5.35 -2.80 -2.25 -2.90 -2.30 -2 -0.75 0.55 0.85 3 3.55 5.45 5.95 4.55 4.35 5.80 5.10 12.25 7 2.10 0.60 6.90 0.30 11.75 -0.80z m-96.45 -8.70 c4.25 -2.05 8.60 -6.70 10.45 -11.25 1.20 -3 1.40 -4.15 1.45 -8.70 0.05 -4.45 -0.15 -5.90 -1.35 -9.60 -1.20 -3.80 -3.10 -7.90 -3.60 -7.90 -0.10 0 0.25 0.95 0.75 2.15 2.90 6.55 3.35 19.55 0.90 24.90 -1.65 3.65 -4.45 6.70 -7.60 8.35 -2.30 1.20 -3.05 1.35 -8.15 1.35 -3.10 0 -5.65 0.15 -5.65 0.30 0 0.80 1.80 1.70 3.95 2 3.30 0.50 5.35 0.10 8.85 -1.60z m136.20 -33.85 c-0.35 -2.20 -0.40 -2.15 -0.40 1.40 0 2.75 0.10 3.40 0.40 2.35 0.25 -0.75 0.25 -2.45 0 -3.75z m-165.60 2.30 c0.70 -0.80 0.65 -0.90 -0.05 -0.90 -0.55 0 -0.85 -0.60 -1 -2.10 -0.10 -1.25 -0.20 -0.55 -0.20 1.60 -0.05 2.05 0.05 3.40 0.20 3 0.15 -0.40 0.60 -1.15 1.05 -1.60z"/>
 </g>
 <g fill="#4a3b2f">
  <path d="M0 221.25 l0 -3.75 4.90 0 c5.15 0 9.20 -0.80 16.35 -3.30 6 -2.05 8.20 -3.55 14.25 -9.70 6.65 -6.75 9.30 -14.25 8.90 -25 -0.15 -4.90 -0.30 -5.50 -2.10 -9.15 -2.60 -5.25 -5.80 -8.15 -11.65 -10.50 -2.40 -0.95 -5.65 -1.90 -7.20 -2.10 -5.85 -0.75 -11.45 1.65 -14.40 6.10 -1.35 2 -1.55 2.75 -1.55 5.60 0 2.80 0.30 3.95 2 7.50 2.55 5.55 2.10 6.50 -1.55 3.20 -3.05 -2.75 -4.35 -5.40 -4.75 -9.45 -0.35 -3.80 0.35 -5.85 2.95 -9 0.65 -0.80 1.65 -2.45 2.20 -3.70 1.25 -2.85 4.55 -5.85 6.90 -6.30 2.75 -0.50 7.20 0.05 10.70 1.30 1.70 0.65 3.20 1 3.35 0.90 0.15 -0.15 -0.10 -1.50 -0.50 -2.95 -4.20 -14.70 -4 -14.20 -6.20 -15.10 -3.55 -1.40 -4.90 -1.50 -7.30 -0.45 -2.70 1.20 -3.90 3.20 -4.30 7.10 -0.20 2.15 -0.45 2.80 -1.15 2.90 -1.55 0.30 -2.85 -1.35 -2.85 -3.60 0 -1.35 -0.45 -2.60 -1.35 -3.90 -1.10 -1.65 -1.20 -2.10 -0.75 -3.15 0.30 -0.65 1.40 -1.55 2.40 -2 1.35 -0.55 1.75 -0.95 1.50 -1.55 -0.85 -2.25 2.95 -4.50 4.80 -2.85 0.90 0.85 1.05 0.80 3.15 -0.30 3.25 -1.70 6.80 -1.30 8.75 0.95 0.80 0.90 1.55 2.45 1.75 3.45 l0.35 1.80 0.80 -2.45 c1.05 -3.30 8.60 -10.95 15.35 -15.55 11.20 -7.65 14 -13.40 12 -24.60 -1.40 -7.90 -1.70 -8.70 -3.80 -10.80 -1.80 -1.80 -2.15 -1.95 -4 -1.70 -1.15 0.15 -2.45 0.60 -2.85 1.05 -1 1 -1.45 6.05 -0.60 7.05 0.90 1.10 2.25 0.90 3.15 -0.40 0.70 -0.95 0.90 -1 1.35 -0.35 0.25 0.40 0.45 1.45 0.40 2.25 -0.15 1.35 -0.35 1.50 -2 1.65 -2.30 0.20 -3.70 -0.50 -4.90 -2.55 -1.30 -2.05 -1.25 -4.50 0.05 -7.20 1.35 -2.80 3.60 -4.65 5.60 -4.65 l1.60 0 -2 -2 c-1.55 -1.55 -2.85 -2.25 -5.50 -3 -4.20 -1.20 -6.85 -1.25 -10.90 -0.20 -6 1.55 -9.55 4.15 -14.40 10.50 -2.90 3.75 -4.55 7.30 -5.50 11.65 -0.65 3.10 0.50 8.65 2.65 12.65 1.80 3.40 2.10 3.60 6.15 4.45 2.75 0.55 3.30 0.50 6.65 -0.55 4.10 -1.30 5.75 -2.40 6.90 -4.60 0.70 -1.40 0.70 -1.70 -0.60 -5.20 l-1.35 -3.75 -1.80 0.15 c-1.75 0.15 -1.80 0.20 -2.05 2.55 -0.40 3.05 -1.40 4.15 -3.30 3.50 -2.55 -0.85 -4.75 -6.90 -3.10 -8.55 0.35 -0.35 1.10 -0.60 1.70 -0.60 0.80 0 1.15 -0.40 1.40 -1.60 0.35 -1.80 2.10 -3.90 3.20 -3.90 0.45 0 1.20 0.40 1.70 0.85 0.60 0.50 1.90 0.85 3.60 0.90 3.20 0.15 3.65 0.35 4.05 2.20 0.25 1.10 0.70 1.55 2.20 1.95 2.90 0.90 3.60 2 3.65 5.75 0.05 4.50 -1.55 7.65 -6.05 12 -6.75 6.55 -14.05 8.15 -21.05 4.60 -2.65 -1.35 -6.50 -5.45 -8 -8.50 -1.55 -3.20 -3 -9.60 -3 -13.20 0.05 -10.60 6.05 -20.85 14.90 -25.45 4.80 -2.50 7.65 -3.20 12.85 -3.15 5.35 0 9.65 1.40 14.30 4.55 5.90 4 7.55 5.65 9.75 9.55 3.45 6.20 4.80 10.50 5 16 0.30 7.85 -1.25 11.45 -7.65 17.85 -1.75 1.75 -3.15 3.35 -3.15 3.60 0 0.20 1.50 0.80 3.40 1.25 4.05 1.10 5.70 2.05 8.45 4.85 2.15 2.20 3.85 5.50 4.65 9.05 0.45 2.10 -0.15 9.50 -1.05 13 -0.60 2.35 -2.85 3.85 -5.55 3.75 -1.30 -0.05 -2.25 0.30 -3.40 1.25 -1.90 1.60 -3.90 1.70 -6.90 0.35 -1.90 -0.85 -2.45 -0.90 -4.40 -0.40 -3.85 1.05 -4.85 -0.85 -2.90 -5.55 0.65 -1.60 0.65 -1.80 -0.35 -2.85 l-1.10 -1.15 1 -1.60 c0.85 -1.30 0.95 -1.90 0.55 -3.55 -0.55 -2.65 -0.15 -3.85 1.50 -4.20 2.45 -0.50 2.60 -0.65 2.60 -2.10 0 -0.80 0.30 -1.70 0.65 -1.95 0.95 -0.75 3.65 0.20 4.80 1.65 1.50 1.90 1.30 3.35 -0.60 4.85 -2 1.50 -3.60 4.80 -3.15 6.50 0.60 2.40 1.95 3.45 4.70 3.75 3.45 0.30 4.80 -0.65 6.70 -4.75 1.40 -2.90 1.50 -3.55 1.25 -6.45 -0.35 -3.70 -0.90 -4.95 -3.05 -6.80 -2.15 -1.90 -8.60 -4.55 -11.05 -4.55 -1.35 0 -3.40 0.60 -5.85 1.80 -4.05 1.95 -5.95 3.95 -8.40 8.85 -1.50 2.95 -3 8.30 -3 10.60 0 4.35 4.45 12.70 10.65 20 3.70 4.35 6.20 10.10 6.65 15.35 0.20 2.10 0.55 4.10 0.80 4.40 0.30 0.35 0.35 1.05 0.15 1.50 -0.15 0.50 -0.85 2.95 -1.50 5.40 -1.45 5.60 -5.45 14.10 -8.40 17.80 -2.85 3.55 -9.05 8.65 -11.90 9.75 -3.40 1.30 -12.90 6.90 -12.95 7.60 0 0.45 -1.75 0.60 -7 0.60 l-7 0 0 -3.75z"/>
  <path d="M154 224.40 c0 -0.35 -1.10 -1.40 -2.40 -2.25 -7.20 -5 -11.45 -11 -12.35 -17.45 -0.50 -3.70 -2.15 -9.50 -3.30 -11.85 -3 -5.90 -11.25 -9.85 -17.55 -8.45 -6 1.40 -9.65 4.65 -12.20 10.85 -1.45 3.65 -1.50 5.20 -0.15 9.55 0.85 2.80 1.55 3.95 3.70 6.10 2.60 2.60 2.60 2.60 5.80 2.60 1.80 0 4.25 -0.40 5.65 -0.85 2.40 -0.90 2.40 -0.90 3.35 0.30 1.40 1.70 1.15 3.25 -0.75 5.15 -2.20 2.20 -4.30 2.80 -7.80 2.30 -5.90 -0.95 -11.70 -5.15 -14.10 -10.35 -1.30 -2.85 -2 -10.55 -1.30 -15 0.85 -5.70 4.55 -11.15 9.15 -13.45 2.60 -1.30 7.25 -2.60 9.20 -2.60 0.85 0 1.55 -0.10 1.55 -0.25 0 -0.10 -1.40 -2.70 -3.05 -5.75 -1.70 -3.10 -3.50 -6.75 -4.05 -8.15 -1.50 -3.95 -5.40 -16 -5.40 -16.75 0 -0.35 -0.20 -0.50 -0.50 -0.35 -0.25 0.15 -0.50 0.70 -0.50 1.20 0 1.45 -2.60 5.90 -4.70 8.10 -4.35 4.45 -7.25 6.15 -14.85 8.55 -3.95 1.30 -7.85 2.45 -8.65 2.65 l-1.45 0.30 1.55 0.85 c4.60 2.60 7.75 7.15 9.85 14.35 1.35 4.50 1.50 5.70 1.45 11.75 0 5.85 -0.15 7.15 -1.15 9.75 -3.20 8.20 -9.65 12.60 -19.35 13.10 -4.05 0.25 -4.65 0.15 -5.40 -0.65 -0.45 -0.55 -2 -2.35 -3.50 -4.05 -2.90 -3.25 -5.30 -6.75 -5.30 -7.65 0 -0.30 0.20 -0.40 0.50 -0.25 0.30 0.20 0.50 -0.55 0.50 -1.85 0 -2.85 1.50 -5.15 4.15 -6.45 l2.20 -1.05 2.35 1.05 c1.30 0.55 2.50 1.45 2.65 1.95 0.10 0.50 0.70 1.10 1.30 1.35 0.85 0.40 1.10 0.90 1.10 2.50 0 1.40 -0.25 2.05 -0.80 2.15 -0.60 0.10 -0.75 -0.20 -0.55 -1.30 0.30 -2 -0.65 -3.55 -2.65 -4.40 -2.20 -0.90 -4.25 -0.90 -5.60 0.05 -1.45 1 -2.20 3.80 -1.60 5.90 0.50 1.90 4.55 6.05 6.60 6.80 2.45 0.95 7.80 0.65 10.20 -0.50 2.65 -1.25 6.20 -5.25 8.05 -8.95 1.20 -2.50 1.35 -3.25 1.35 -8.25 -0.05 -6.25 -0.80 -9.60 -3.60 -16.15 -1.35 -3 -2.65 -5.10 -4.45 -6.95 -2.35 -2.45 -2.70 -2.65 -4.90 -2.65 -1.30 0 -3.10 0.35 -4.05 0.70 -1.60 0.70 -1.75 0.70 -1.75 -0.10 0 -0.50 0.65 -1.25 1.45 -1.75 2.15 -1.25 3.50 -4.45 3.65 -8.70 0.15 -3.05 0.30 -3.65 1 -3.65 0.55 0 1 0.50 1.20 1.25 0.45 1.90 -0.30 6.85 -1.20 7.90 -1.05 1.20 -0.60 1.45 1.10 0.60 0.80 -0.40 4.05 -1.55 7.25 -2.55 9.65 -3 16.55 -6.95 19 -10.85 1.30 -2.15 3.05 -7.60 3.05 -9.70 0 -4.35 -2.75 -10.30 -6.35 -13.75 -1.90 -1.80 -6.65 -3.10 -9.60 -2.70 -1.25 0.20 -2.85 0.35 -3.50 0.35 -2.15 -0.05 -5.05 -1.05 -5.05 -1.75 0 -0.50 1.25 -0.75 4.90 -1 2.65 -0.15 6.45 -0.45 8.40 -0.60 3.95 -0.35 5.85 0.35 10.15 3.60 1.20 0.95 2.35 1.55 2.60 1.40 0.25 -0.15 0.45 -1.45 0.45 -2.85 0.05 -3.20 0.80 -6.50 3.20 -13.55 1 -3 1.95 -6.50 2.15 -7.75 0.35 -2.70 1.10 -3.95 1.75 -2.95 0.30 0.50 0.50 0.50 0.90 -0.10 1.80 -2.70 2 -10.20 0.45 -15.25 -1.30 -4.25 -2.55 -6.10 -7.05 -10.55 -3.30 -3.25 -3.95 -3.65 -6.60 -4.20 -3.75 -0.75 -7.25 -0.45 -8.95 0.80 -0.80 0.55 -2.45 3.20 -4.05 6.50 -3.10 6.25 -6.20 10.55 -8.05 11 -1.80 0.45 -3.95 -0.60 -6 -2.85 -2.20 -2.45 -2.35 -4.45 -0.40 -6.25 1.30 -1.20 1.30 -1.30 0.70 -3.80 -0.85 -3.15 -0.85 -4.50 -0.05 -6.40 0.70 -1.75 2.75 -3 4.85 -3 2.25 0 2.75 -0.60 2.40 -2.70 -0.75 -4 2.05 -7.75 5.90 -7.90 1.75 -0.05 4.05 1.15 4.55 2.40 0.40 1.10 2.20 0.85 4.05 -0.60 1.50 -1.10 2 -1.25 3.85 -0.95 4.80 0.80 5.85 1.70 7.15 6.15 0.50 1.65 1.50 3.10 3.30 4.85 1.40 1.35 3.25 3.50 4.10 4.70 l1.55 2.25 0.45 -1.50 c0.55 -1.70 2.25 -3.70 3.20 -3.70 0.90 0 0.80 0.35 -0.35 1.85 -1.40 1.75 -1.35 7.40 0 11.75 0.55 1.70 1.15 4.55 1.35 6.25 0.15 1.75 0.50 3.15 0.80 3.15 0.25 0 1.25 -0.70 2.25 -1.55 1 -0.90 2.75 -2 3.85 -2.50 2.15 -0.95 9.05 -1.95 13.60 -1.95 1.45 0 3.20 -0.25 3.90 -0.60 1.60 -0.75 1.85 -0.45 1.15 1.45 -0.40 1.05 -0.40 2.25 -0.05 4.05 0.60 3.10 0.40 3.15 -4 1.60 -3.45 -1.20 -7.60 -1.30 -11.15 -0.15 -4.05 1.25 -10.20 6.40 -13.25 11 -3.25 5 -3.20 5.35 0.45 4.95 1.55 -0.20 3.45 -0.60 4.20 -0.90 2.25 -0.85 3.70 -0.15 4.90 2.35 1.20 2.50 1.15 3.65 -0.15 4.45 -0.75 0.45 -1.10 0.30 -2.10 -0.90 -1.10 -1.40 -1.15 -1.40 -3.30 -0.70 -1.80 0.55 -2.40 1.10 -3.30 2.95 -1.85 3.60 -3.05 11.60 -3.30 22.20 -0.25 9.65 0.10 14.80 1.40 19.75 0.40 1.50 1.25 4.65 1.85 6.95 0.75 2.90 1.20 3.90 1.45 3.25 0.15 -0.50 0.90 -2.85 1.65 -5.20 1.05 -3.50 1.80 -4.80 4.10 -7.50 4.80 -5.55 6.40 -10.75 4.45 -14.50 -1.60 -3.10 -4.05 -3.75 -7.30 -1.90 -1.95 1.10 -1.95 1.10 -1.95 4.25 0 1.75 0.20 3.15 0.50 3.15 0.30 0 0.50 0.25 0.50 0.50 0 0.85 -2.50 0.55 -2.85 -0.30 -1.30 -3.40 0.40 -8.15 3.30 -9.40 3.90 -1.70 6.45 -1.15 8.70 1.80 2.05 2.70 2.35 4 1.75 7.40 -0.25 1.70 -0.40 3.20 -0.20 3.35 0.15 0.20 0.80 -0.15 1.45 -0.75 1.75 -1.65 6.65 -3.20 10.10 -3.25 3.95 0 8 1.60 10.45 4.10 1.90 1.95 1.90 2 1.95 6.15 0.05 3.20 -0.15 4.55 -0.85 5.85 -0.90 1.65 -0.90 1.80 -0.05 3.40 1.35 2.50 0.55 5.60 -1.75 6.75 -1.10 0.60 -2.15 1.70 -2.85 3.15 -1.25 2.40 -1.60 2.55 -4.10 1.70 -1.20 -0.45 -2.15 -0.40 -3.85 0.05 -2.15 0.60 -2.30 0.60 -3.70 -0.75 -1.35 -1.25 -1.50 -1.80 -1.50 -4.35 0 -2.35 -0.30 -3.45 -1.55 -5.65 l-1.55 -2.75 0.95 -1.55 c1.35 -2.35 3.30 -3.60 5.45 -3.55 2.60 0.10 2.95 0.65 2.20 3.25 -0.80 2.90 -0.10 4.35 2 4.35 2.20 0 3.30 -1.45 3.70 -4.65 0.45 -3.30 -0.40 -5.40 -2.80 -7.35 -2.05 -1.60 -6.75 -1.95 -10.30 -0.80 -6.55 2.20 -9.60 6.90 -10 15.40 -0.40 8.45 0.80 10.65 7.35 13.15 3.60 1.35 5.55 3.15 8.05 7.45 0.60 1 1.30 1.80 1.55 1.80 0.20 0 1.70 -0.90 3.25 -2 2.35 -1.65 3.30 -2 5.25 -2 2.10 0 2.80 0.30 5.55 2.40 3.15 2.35 3.15 2.40 3.85 5.95 0.85 4.25 0.45 5.60 -2.05 7.15 -1.65 1 -3.90 1.35 -3.90 0.60 0 -0.25 0.90 -0.90 1.95 -1.50 2.15 -1.20 2.55 -1.90 2.55 -4.20 0 -4.10 -1.90 -6.80 -5.85 -8.40 -2 -0.75 -3.20 -0.50 -6.30 1.50 -3.35 2.10 -4.60 4.95 -4.20 9.45 0.35 4.45 1.75 7.45 4.60 9.95 5.25 4.60 11.30 6.80 20.25 7.30 14.60 0.85 25.95 -2.85 34.55 -11.25 3.50 -3.45 4.65 -5 6.35 -8.45 3.10 -6.25 3.75 -9.45 3.50 -16.95 -0.20 -5.80 -0.30 -6.55 -1.75 -9.35 -1.50 -3.10 -3.80 -6.40 -5.15 -7.60 -3.65 -3.10 -9.40 -5.30 -15.30 -5.80 -3.70 -0.30 -4.15 -0.25 -6.95 1.10 -3.90 1.90 -6.50 4.65 -7.35 7.75 -0.55 2.05 -0.50 2.85 0.25 5.75 0.50 1.85 1.45 4.20 2.10 5.20 1.45 2.15 1.60 3.65 0.45 4.10 -2.60 1 -7.70 -7.10 -7.70 -12.15 0 -2.70 1.70 -6.60 3.50 -8.10 1.05 -0.90 1.75 -2.10 2.20 -3.75 0.50 -2.05 0.95 -2.70 2.95 -4.05 3.90 -2.60 7.35 -2.65 15.20 -0.25 1.45 0.40 2.75 0.65 2.90 0.50 0.15 -0.15 -0.25 -1.70 -0.95 -3.45 -0.70 -1.75 -1.50 -4.60 -1.80 -6.35 -0.90 -5.05 -2.15 -7.50 -4.35 -8.45 -5 -2.05 -8.35 -1.10 -10.40 3 -0.75 1.50 -1.25 3.40 -1.25 4.65 0 2.85 -0.85 3.25 -2.60 1.25 -1 -1.10 -1.40 -2.10 -1.40 -3.35 0 -1.35 -0.35 -2.05 -1.25 -2.80 -0.80 -0.60 -1.25 -1.45 -1.25 -2.40 0 -1.60 0.70 -2.35 2.50 -2.60 1.05 -0.10 1.30 -0.45 1.40 -2 0.10 -1.25 0.55 -2.15 1.25 -2.65 1.20 -0.85 3.95 -1 5.35 -0.25 0.70 0.35 1.15 0.30 1.75 -0.35 1.05 -1.05 5.70 -1.50 7.20 -0.65 1.55 0.80 3.05 3.45 3.05 5.40 0 2.10 0.85 2.05 1.25 -0.10 0.70 -3.55 6.55 -9.75 17.25 -18.10 7 -5.45 7.90 -6.35 9.40 -9.15 0.85 -1.70 1.60 -3.55 1.60 -4.10 0 -0.60 0.35 -0.95 1 -0.95 0.95 0 1 0.35 1 5 0 4.55 -0.10 5 -0.95 5 -1 0 -7.15 6.45 -6.75 7.10 0.15 0.20 1.25 0.40 2.40 0.40 1.20 0 2.90 0.15 3.75 0.30 1.50 0.30 1.55 0.40 1.55 3 0 2.45 -0.10 2.70 -1.10 2.70 -0.60 0 -2.50 -0.60 -4.30 -1.30 -4.05 -1.60 -6.60 -1.60 -10.25 0 -3.10 1.35 -6.05 4.15 -8.45 8 -4.35 7.15 -4.50 14.30 -0.40 21.65 1.85 3.25 4.90 7.50 7.25 10.15 1.90 2.10 5.50 8.75 6.25 11.55 0.30 1.10 0.55 3.40 0.60 5.10 0 1.70 0.20 3.35 0.45 3.65 1.10 1.40 -4.15 16.20 -7.65 21.60 -3 4.60 -8.80 9.75 -13.65 12.15 -2.20 1.05 -5.90 3.05 -8.25 4.45 -2.35 1.35 -4.55 2.50 -4.85 2.50 -0.35 0 -0.65 0.35 -0.65 0.75 0 0.65 -1.80 0.75 -13 0.75 -10.05 0 -13 -0.15 -13 -0.60z"/>
  <path d="M43.20 212.45 c0.40 -1.95 3.05 -6.30 4.35 -6.95 1.40 -0.80 2.45 -0.60 2.45 0.45 0 0.65 -0.40 1.05 -1.10 1.15 -0.85 0.10 -1.60 1.05 -2.80 3.40 -1.85 3.65 -3.45 4.75 -2.90 1.95z"/>
  <path d="M210.15 211.70 c0.35 -2.20 2.55 -5.70 3.60 -5.70 1.05 0 0.95 0.85 -0.25 2.35 -0.55 0.70 -1.25 2.15 -1.50 3.20 -0.35 1.25 -0.85 1.95 -1.35 1.95 -0.60 0 -0.70 -0.35 -0.50 -1.80z"/>
  <path d="M222.70 207.15 c0.15 -1.05 0.30 -2.30 0.30 -2.75 0 -0.55 0.40 -0.90 1 -0.90 0.90 0 1 0.35 1 2.75 0 2.65 -0.05 2.75 -1.30 2.75 -1.25 0 -1.30 -0.10 -1 -1.85z"/>
  <path d="M58.50 173.80 c0 -0.75 1.65 -1.85 3.90 -2.50 0.95 -0.35 1.10 -0.20 1.10 1.15 0 1.40 -0.15 1.55 -1.35 1.45 -0.80 -0.05 -1.90 0.10 -2.50 0.30 -0.85 0.25 -1.15 0.15 -1.15 -0.40z"/>
  <path d="M59.35 157.15 c-0.30 -1.55 0.80 -4.05 1.95 -4.50 1.15 -0.45 1.40 0.20 0.50 1.45 -0.45 0.60 -0.80 1.85 -0.80 2.75 0 2.05 -1.25 2.25 -1.65 0.30z"/>
  <path d="M218.20 150.70 c-1.85 -1.25 -2 -1.30 -4.55 -0.65 -2.15 0.50 -2.90 0.50 -3.90 -0.05 -1.65 -0.90 -1.95 -1.90 -0.95 -3.40 0.45 -0.70 0.80 -2.10 0.75 -3.20 -0.05 -1.05 -0.05 -2.40 -0.05 -3 0.05 -0.65 0.05 -2.75 0 -4.75 -0.05 -3.05 0.10 -3.65 0.90 -4.10 0.50 -0.25 1.40 -0.35 2 -0.20 1.10 0.25 1.25 0.10 1.80 -2.50 0.75 -3.20 4.55 -2.80 6.30 0.70 1.20 2.25 1.05 3.45 -0.45 3.45 -0.50 0 -1.65 0.80 -2.55 1.85 -1.45 1.60 -1.60 2.05 -1.35 4.05 0.15 1.50 0.65 2.65 1.55 3.55 1.15 1.10 1.75 1.30 4.30 1.30 l3 -0.05 0 3.55 0 3.50 -2 0.65 c-2.60 0.80 -2.55 0.80 -4.80 -0.70z"/>
  <path d="M83 140.90 c-1.85 -1.25 -2.90 -2.65 -2.40 -3.20 0.20 -0.15 1.10 0.30 2.05 1 0.95 0.70 1.95 1.30 2.25 1.30 0.35 0 0.60 0.45 0.60 1 0 1.30 -0.45 1.25 -2.50 -0.10z"/>
  <path d="M148 123.85 c0 -0.80 3.10 -3.85 3.90 -3.85 0.90 0 -0.60 2.70 -2 3.70 -1.35 0.95 -1.90 1 -1.90 0.15z"/>
  <path d="M72.75 122.70 c-0.80 -0.40 -2 -1.20 -2.55 -1.75 -2.30 -2.15 -3.55 -10 -1.70 -10.35 0.60 -0.10 0.75 0.50 0.80 2.90 0.05 3.60 1.25 6.15 3.60 7.55 0.85 0.60 1.60 1.35 1.60 1.75 0 0.85 0.05 0.85 -1.75 -0.10z"/>
  <path d="M186.90 117.50 c-6.45 -1.10 -13.40 -9.35 -14.95 -17.80 -1 -5.35 0.25 -13.75 2.95 -19.60 2.70 -5.90 10.45 -12 17.95 -14.05 9.85 -2.70 21.50 1.70 28.65 10.85 1.10 1.40 2.35 2.60 2.75 2.60 0.65 0 0.75 1.35 0.75 8.50 0 7.95 -0.05 8.50 -0.95 8.50 -0.80 0 -0.95 -0.55 -1.25 -3.60 -0.20 -2 -0.70 -4.85 -1.10 -6.35 -0.85 -2.95 -3.20 -6.75 -4.45 -7.25 -1.25 -0.45 -3.70 -0.35 -4.75 0.20 -1.85 1 -2.75 6.75 -1.25 8 0.50 0.40 1.45 0.50 2.75 0.30 1.75 -0.25 2 -0.20 2 0.70 0 2.35 -4.65 2.50 -6.45 0.20 -1.40 -1.80 -1.70 -4 -0.95 -6.95 0.55 -2 1 -2.70 2.75 -3.90 1.15 -0.75 2.80 -1.45 3.65 -1.50 0.80 -0.05 1.50 -0.40 1.50 -0.75 0 -0.85 -4.05 -3.35 -7.50 -4.65 -3.30 -1.25 -8.40 -1.15 -13.50 0.30 -2.80 0.80 -3.70 1.45 -7.15 4.70 -4.70 4.50 -8.15 9.15 -9.20 12.45 -1.20 3.75 -1.05 11.30 0.25 14.25 1.45 3.30 3.95 6.60 5.40 7.30 2.15 0.95 6.45 0.65 10.05 -0.75 5.85 -2.25 7.15 -4.90 4.95 -9.85 -2 -4.60 -5.20 -4.95 -5.35 -0.65 -0.10 2.40 -0.65 4.05 -1.55 4.20 -0.80 0.15 -4 -3.20 -5.50 -5.75 -1.05 -1.80 -0.60 -2.50 1.90 -3.40 1.70 -0.55 1.95 -0.90 2.10 -2.30 0.30 -3 2.15 -4.30 4.40 -3.10 0.80 0.45 2.80 0.95 4.40 1.10 2.85 0.30 3 0.40 3.40 1.85 0.30 1.25 0.80 1.65 2.35 2.15 2.80 0.80 4.05 2.60 4.05 5.70 0 2.95 -1.05 5.25 -4.55 10 -3.10 4.20 -5.45 5.95 -10.50 7.55 -4.25 1.40 -4.40 1.40 -8.05 0.80z"/>
  <path d="M121.15 80.50 c-0.85 -0.35 -1.15 -0.90 -1.15 -2 0 -1.65 1.35 -2.15 1.80 -0.60 0.15 0.45 0.50 1.25 0.75 1.70 0.80 1.55 0.55 1.70 -1.40 0.90z"/>
  <path d="M129.30 79.15 c0.65 -1.50 0.85 -7.20 0.25 -7.80 -0.75 -0.75 -0.70 -1.35 0.15 -1.35 1.90 0 2.85 4.15 2 8.45 -0.25 1.25 -0.60 1.55 -1.55 1.55 -1 0 -1.20 -0.15 -0.85 -0.85z"/>
  <path d="M0 55.50 l0 -4.50 4.15 0 c11.55 -0.05 21.80 -3.80 29.45 -10.90 5.90 -5.50 9.25 -11.75 10.40 -19.50 1.05 -6.90 0.25 -12.55 -2.75 -19.75 -0.35 -0.80 -0.15 -0.90 1.55 -0.75 l1.95 0.15 1.35 4.10 c0.80 2.20 1.55 5.40 1.70 7.10 0.20 1.70 0.55 3.05 0.80 3.05 0.30 0 1.15 -0.55 2 -1.25 0.80 -0.70 1.70 -1.25 1.95 -1.25 0.60 0 0.60 1.35 -0.05 1.75 -1.80 1.10 -4.45 5.90 -5.70 10.25 -2.45 8.70 -8.10 17.95 -13.40 21.95 -2.70 2 -12.45 7.70 -17.40 10.10 -4 1.95 -10.90 3.95 -13.65 3.95 l-2.35 0 0 -4.50z"/>
  <path d="M160 59.45 c-6.45 -1.90 -7.75 -2.65 -12.15 -6.95 -2.45 -2.30 -4.95 -5.15 -5.60 -6.25 -1.25 -2.15 -2.70 -6.75 -4 -12.90 -0.95 -4.20 -3.05 -8.75 -5.15 -11 -0.75 -0.75 -2.60 -2.10 -4.10 -2.95 -2.45 -1.40 -3.20 -1.55 -7 -1.55 -7.30 -0.05 -11.35 2.30 -14.85 8.60 -1.65 2.95 -1.80 3.50 -1.80 7.25 0.05 5.10 0.85 7.05 4.35 10.55 l2.75 2.75 3.90 0 c2.65 -0.05 4.20 -0.25 4.85 -0.75 2 -1.50 4.30 -0.65 4.30 1.60 0 2.30 -1.30 4.45 -3.30 5.40 -2.40 1.15 -7.80 0.80 -10.95 -0.75 -3.55 -1.75 -7.20 -4.90 -8.50 -7.45 -3.30 -6.55 -3.60 -14.10 -0.85 -20.60 2.90 -6.75 6 -9.35 13.95 -11.50 2.15 -0.60 4 -1.15 4.10 -1.25 0.10 -0.05 -1.10 -2.60 -2.65 -5.65 -1.55 -3 -2.80 -5.60 -2.80 -5.75 0 -0.75 3 -0.25 3.45 0.55 0.50 0.85 0.50 0.85 0.55 0.05 0 -0.75 0.50 -0.90 3 -0.90 l3 0 0 3.40 c0 3.45 1 8.15 2 9.30 0.30 0.40 1.60 0.95 2.90 1.30 1.30 0.30 3.30 1.15 4.50 1.80 2.35 1.40 5.95 5.60 6.40 7.55 0.30 1.10 0.50 1.20 2 0.90 1.80 -0.30 1.95 -0.20 1.25 1.15 -2.10 4.05 -2.65 6.05 -2.30 8.15 0.90 5.70 5.05 11.10 10.40 13.65 7.40 3.50 19.35 4.70 28.25 2.85 9.40 -1.95 13.30 -3.95 20.35 -10.25 4.65 -4.20 7.20 -8.05 9.05 -13.60 1.30 -4.05 1.45 -5.05 1.45 -11.45 0 -6.85 -0.05 -7.10 -1.60 -10.60 -0.90 -1.95 -1.65 -3.70 -1.65 -3.85 0 -0.15 0.75 -0.30 1.70 -0.30 1.60 0 1.70 0.10 3.15 3.90 2 5.10 3 12.50 2.20 16.20 -0.95 4.25 -4.60 13.35 -6.75 16.90 -3.60 5.95 -6.85 8.70 -17.30 14.60 -8.35 4.75 -11.20 6.05 -16 7.15 -4.60 1.05 -12.15 1.40 -14.50 0.70z"/>
  <path d="M67.25 51.70 c-3.30 -0.50 -3.75 -0.75 -5.10 -3.05 -0.75 -1.25 -2.55 -3.45 -4 -4.90 -2.55 -2.45 -3.30 -4.30 -2.15 -5 0.30 -0.15 0.50 -1.30 0.50 -2.45 0 -3.65 3.05 -6.30 7.25 -6.30 1.40 0 1.75 0.20 1.75 1 0 0.80 -0.45 1.05 -2.10 1.30 -3.10 0.50 -4.40 2.05 -4.40 5.20 0 2.35 0.20 2.75 2.35 5.05 3.35 3.55 4.60 4.10 8.85 3.85 11.30 -0.75 17.35 -11.30 14.60 -25.45 -1.05 -5.25 -4.40 -12.35 -7.55 -15.85 -2.90 -3.25 -4.65 -3.65 -8.55 -2.15 -3.30 1.25 -3.20 1.25 -3.20 0.35 0 -0.40 0.70 -1.15 1.50 -1.65 0.85 -0.45 1.50 -1.05 1.50 -1.25 0 -0.20 3.05 -0.40 6.75 -0.40 6.80 0 8.90 0.60 4.25 1.20 -2.95 0.40 -2.85 0.90 0.35 2.40 3.10 1.45 7 7.35 8.95 13.65 1.30 4.05 1.45 5.15 1.40 11.25 -0.05 6.20 -0.15 7 -1.45 10.20 -2.95 7.15 -10.15 12.75 -16.85 13.05 -1.75 0.10 -3.80 0.05 -4.65 -0.05z"/>
  <path d="M210.80 43.45 c1.35 -2.40 3.75 -4.95 4.75 -4.95 0.80 0 0.50 1.30 -0.55 2.25 -0.55 0.50 -1.65 1.90 -2.40 3.10 -0.75 1.25 -1.75 2.15 -2.25 2.15 -0.80 0 -0.75 -0.25 0.45 -2.55z"/>
  <path d="M44.25 43.15 c0.95 -2.40 3.40 -4.65 5 -4.65 1.75 0 1.55 1.10 -0.40 2 -0.90 0.40 -2.05 1.55 -2.60 2.60 -0.55 1.10 -1.35 1.90 -1.90 1.90 -0.80 0 -0.80 -0.15 -0.10 -1.85z"/>
  <path d="M222.90 42.45 c-0.95 -0.55 -1.25 -2.95 -0.40 -2.95 0.30 0 0.50 -0.45 0.50 -1 0 -0.65 0.35 -1 1 -1 0.90 0 1 0.35 1 2.75 0 2.85 -0.35 3.25 -2.10 2.20z"/>
  <path d="M64.85 41.65 c-0.90 -0.85 -0.20 -1.60 1.55 -1.75 1.70 -0.15 1.90 -0.30 2.30 -2 0.55 -2.10 1.80 -2.60 1.80 -0.70 0 1.75 -0.50 2.80 -1.30 2.80 -0.40 0 -0.70 0.30 -0.70 0.70 0 1.05 -2.80 1.80 -3.65 0.95z"/>
  <path d="M154 36.75 c0 -0.95 4.40 -5.25 5.35 -5.25 0.50 0 0.60 0.35 0.35 1.15 -0.45 1.60 -1.65 2.80 -3.80 3.90 -1.65 0.85 -1.90 0.85 -1.90 0.20z"/>
  <path d="M145 22.65 c0 -1.20 1.85 -2.10 5 -2.50 1.80 -0.20 2.50 -0.05 3.65 0.85 2.15 1.70 1.80 2.60 -0.65 1.65 -2 -0.80 -4.30 -0.60 -7.10 0.60 -0.70 0.25 -0.90 0.10 -0.90 -0.60z"/>
  <path d="M64.35 22.65 c-0.90 -0.85 -0.25 -1.65 1.30 -1.65 0.90 0 1.90 -0.25 2.25 -0.60 0.45 -0.45 0.60 -0.35 0.60 0.50 0 1.55 -3.05 2.85 -4.15 1.75z"/>
  <path d="M7.50 12.95 c-2.85 -2.75 -4.50 -6.45 -4.50 -10.05 l0 -2.90 2.25 0 2.25 0 0 3.15 c0 2.65 0.30 3.80 2 7.30 1.10 2.25 2 4.20 2 4.35 0 0.10 -0.40 0.20 -0.95 0.20 -0.50 0 -1.90 -0.90 -3.05 -2.05z"/>
  <path d="M173.55 12.70 c-2.90 -3.10 -4.05 -5.75 -4.05 -9.55 l0 -3.15 2.20 0 2.15 0 0.30 3.40 c0.15 2.25 0.75 4.45 1.80 6.70 0.85 1.85 1.55 3.70 1.55 4.15 0 1.45 -1.90 0.75 -3.95 -1.55z"/>
  <path d="M139.25 10.50 c-1.95 -0.70 -2.50 -2 -2.75 -6.35 l-0.25 -4.15 9.30 0 c9.95 0 9.95 0 9.95 2.50 0 0.95 -1.85 2.70 -4.45 4.10 -0.90 0.50 -1.55 1.25 -1.55 1.80 0 1.60 -1.10 2.10 -3.85 1.75 -1.40 -0.15 -3.20 -0.05 -4 0.20 -0.75 0.30 -1.85 0.35 -2.40 0.15z"/>
  <path d="M59.50 6.55 c0 -0.60 0.55 -1.15 1.55 -1.50 2.40 -0.85 2.80 -0.70 2.85 0.95 0.05 1.45 -0.05 1.50 -2.20 1.50 -1.85 0 -2.20 -0.15 -2.20 -0.95z"/>
 </g>
 <g fill="#4a3b2f">
  <path d="M12 224.30 c0 -0.40 0.50 -0.90 1.15 -1.10 0.60 -0.15 3.15 -1.50 5.60 -2.95 2.50 -1.40 5.80 -3.20 7.45 -3.95 6.10 -2.75 13.50 -10.30 16.40 -16.80 0.45 -0.95 1.40 -3.05 2.10 -4.60 2.05 -4.50 2.80 -9.05 2.45 -14.95 -0.40 -7.15 -2.30 -11.90 -7.30 -17.95 -4.15 -5.10 -8.20 -11.60 -9.15 -14.90 -1.90 -6.30 0.90 -15.75 6.45 -21.50 1.80 -1.85 6.60 -4.35 9.45 -4.85 3.10 -0.60 9.35 1.85 12.90 5.05 3.60 3.25 4.30 9.05 1.65 14.05 -1.95 3.75 -3.35 4.75 -6.60 4.75 -3.10 0 -4.55 -0.85 -5.75 -3.50 -0.90 -1.95 -0.90 -2 0.35 -4.40 0.70 -1.35 1.95 -3.05 2.80 -3.85 0.85 -0.75 1.55 -1.60 1.55 -1.90 0 -0.30 -0.65 -1.20 -1.50 -2 -1.95 -2 -3.70 -1.85 -3.90 0.30 -0.25 2.05 -0.95 2.75 -2.75 2.75 l-1.50 0 0.35 3.20 c0.25 2.50 0.15 3.30 -0.45 3.80 -1 0.85 -0.95 1.50 0.30 2.80 0.95 1 0.95 1.20 0.30 2.30 -0.40 0.60 -0.85 2.10 -1.05 3.20 -0.40 2.65 0.45 3.05 3.75 1.90 2.25 -0.80 2.40 -0.80 3.25 0 2.15 2.20 4.75 2.30 7.05 0.30 1.30 -1.20 2.15 -1.50 3.85 -1.50 4.15 0 5.55 -3.35 5.55 -13 0 -3.80 -0.20 -4.65 -1.65 -7.60 -1.20 -2.45 -2.30 -3.80 -4.25 -5.35 -1.50 -1.10 -2.90 -2.05 -3.20 -2.05 -0.45 0 -5.60 -1.55 -7.55 -2.25 -0.45 -0.15 0.90 -1.95 3.80 -5 5.20 -5.50 6.35 -7.60 7.10 -12.65 0.90 -6.30 -0.70 -13 -4.75 -20.10 -2.30 -4.10 -2.90 -4.75 -7.80 -8.25 -5.35 -3.85 -8.90 -5.25 -14.35 -5.60 -10.90 -0.70 -20.15 4.90 -25.60 15.50 -2.20 4.35 -2.20 4.40 -2.40 10.50 -0.20 5.20 -0.05 6.75 0.90 10.10 2.60 9.40 8.40 14.50 16.50 14.50 5.45 0 8.95 -1.75 13.50 -6.60 4.30 -4.60 5.50 -7 5.50 -11 0 -3.40 -0.70 -4.40 -3.40 -4.95 -1.85 -0.35 -2.45 -1 -2.70 -2.70 -0.15 -1.15 -0.40 -1.25 -3.15 -1.50 -1.65 -0.15 -3.60 -0.65 -4.30 -1.15 -1.30 -0.90 -1.35 -0.90 -2.40 0.45 -0.60 0.75 -1.05 2.05 -1.05 3.05 0 1.50 -0.10 1.65 -1.40 1.55 -2.10 -0.15 -2.70 0.45 -2.30 2.25 0.15 0.90 0.75 2.45 1.30 3.50 0.80 1.60 1.15 1.90 2.30 1.75 1.25 -0.15 1.35 -0.35 1.50 -2.50 0.15 -2.70 1.35 -3.90 3.75 -3.90 1.15 0 1.55 0.35 2.30 2.15 2.60 6.10 2.60 7.30 -0.15 10.05 -2 2 -6.95 3.80 -10.25 3.80 -2.70 -0.05 -5.70 -1 -7.15 -2.35 -2.20 -2 -4.90 -9.30 -4.90 -13.40 0 -2.85 2.35 -9.15 4.80 -12.85 3.20 -4.80 7.30 -8.65 11.55 -10.75 4.60 -2.25 10.30 -2.80 15.50 -1.40 2.85 0.75 3.75 1.35 6.60 4.05 l3.30 3.15 -2.90 -0.30 c-2.55 -0.25 -3.05 -0.15 -4.20 0.90 -3.20 2.95 -3.90 8.10 -1.40 10.45 1.45 1.35 4.15 1.60 4.90 0.40 0.70 -1.05 0.05 -1.80 -0.75 -1 -0.95 0.95 -3.30 0.70 -3.90 -0.35 -0.25 -0.55 -0.50 -2.15 -0.50 -3.55 0 -2.20 0.25 -2.80 1.45 -4.05 1.15 -1.10 1.95 -1.45 3.50 -1.45 5.30 0 8.30 7.05 8.30 19.50 0 4.80 -0.10 5.45 -1.40 7.75 -2 3.65 -5.45 7 -10.90 10.75 -5.35 3.65 -8.40 6.35 -12.45 11.05 -2.35 2.75 -2.95 3.80 -3.50 6.35 -0.85 4.15 -2 4.25 -2 0.20 0 -2.40 -0.20 -3.15 -1.35 -4.50 -1.20 -1.45 -1.70 -1.65 -3.90 -1.70 -1.45 -0.05 -3.15 0.30 -4.10 0.75 -1.80 0.95 -3.45 1.10 -3.90 0.35 -0.45 -0.70 -2.40 -0.65 -3.15 0.10 -0.35 0.35 -0.60 1.30 -0.60 2.15 0 1.40 -0.25 1.70 -2 2.40 -2.40 0.95 -2.70 2.55 -0.75 4.35 0.90 0.85 1.25 1.75 1.35 3.70 0.10 1.85 0.35 2.60 0.95 2.70 0.65 0.10 0.85 -0.45 1.10 -2.45 0.80 -6.60 6.05 -9.60 12.20 -6.95 2.85 1.20 3.35 2.05 4.90 8.05 1.20 4.70 2.65 9 3.55 10.65 l0.80 1.40 -2.15 -0.35 c-1.20 -0.20 -3.30 -0.80 -4.60 -1.30 -2.65 -1.05 -8.80 -1.35 -10.85 -0.55 -1.75 0.70 -3.80 3 -4.80 5.35 -0.45 1.10 -1.50 2.80 -2.35 3.70 -2.45 2.85 -3.50 5.70 -3.10 8.70 0.20 1.45 0.65 3.30 1 4.10 0.75 1.70 5 6.65 5.40 6.25 0.15 -0.15 -0.50 -1.85 -1.45 -3.75 -1.50 -3.10 -1.70 -3.95 -1.70 -7.40 0 -4.60 0.55 -5.85 3.75 -8.80 3.30 -3.05 5.75 -4.05 10.05 -4.05 6.70 0 14.50 3.25 18.65 7.80 3 3.30 5.45 8.90 5.90 13.45 0.60 6.65 -1.60 16.20 -5 21.60 -2.70 4.25 -9.65 10.75 -13.70 12.85 -3.15 1.60 -11.25 4.30 -15.20 5.05 -4.60 0.85 -11.45 1 -11.45 0.25 0 -0.30 1.95 -0.50 4.90 -0.50 5.15 0 9.20 -0.80 16.35 -3.30 6 -2.05 8.20 -3.55 14.25 -9.70 6.65 -6.75 9.30 -14.25 8.90 -25 -0.15 -4.90 -0.30 -5.50 -2.10 -9.15 -2.60 -5.25 -5.80 -8.15 -11.65 -10.50 -2.40 -0.95 -5.65 -1.90 -7.20 -2.10 -5.85 -0.75 -11.45 1.65 -14.40 6.10 -1.35 2 -1.55 2.75 -1.55 5.60 0 2.80 0.30 3.95 2 7.50 2.55 5.55 2.10 6.50 -1.55 3.20 -3.05 -2.75 -4.35 -5.40 -4.75 -9.45 -0.35 -3.80 0.35 -5.85 2.95 -9 0.65 -0.80 1.65 -2.45 2.20 -3.70 1.25 -2.85 4.55 -5.85 6.90 -6.30 2.75 -0.50 7.20 0.05 10.70 1.30 1.70 0.65 3.20 1 3.35 0.90 0.15 -0.15 -0.10 -1.50 -0.50 -2.95 -4.20 -14.70 -4 -14.20 -6.20 -15.10 -3.55 -1.40 -4.90 -1.50 -7.30 -0.45 -2.70 1.20 -3.90 3.20 -4.30 7.10 -0.20 2.15 -0.45 2.80 -1.15 2.90 -1.55 0.30 -2.85 -1.35 -2.85 -3.60 0 -1.35 -0.45 -2.60 -1.35 -3.90 -1.10 -1.65 -1.20 -2.10 -0.75 -3.15 0.30 -0.65 1.40 -1.55 2.40 -2 1.35 -0.55 1.75 -0.95 1.50 -1.55 -0.85 -2.25 2.95 -4.50 4.80 -2.85 0.90 0.85 1.05 0.80 3.15 -0.30 3.25 -1.70 6.80 -1.30 8.75 0.95 0.80 0.90 1.55 2.45 1.75 3.45 l0.35 1.80 0.80 -2.45 c1.05 -3.30 8.60 -10.95 15.35 -15.55 11.20 -7.65 14 -13.40 12 -24.60 -1.40 -7.90 -1.70 -8.70 -3.80 -10.80 -1.80 -1.80 -2.15 -1.95 -4 -1.70 -1.15 0.15 -2.45 0.60 -2.85 1.05 -1 1 -1.45 6.05 -0.60 7.05 0.90 1.10 2.25 0.90 3.15 -0.40 0.70 -0.95 0.90 -1 1.35 -0.35 0.25 0.40 0.45 1.45 0.40 2.25 -0.15 1.35 -0.35 1.50 -2 1.65 -2.30 0.20 -3.70 -0.50 -4.90 -2.55 -1.30 -2.05 -1.25 -4.50 0.05 -7.20 1.35 -2.80 3.60 -4.65 5.60 -4.65 l1.60 0 -2 -2 c-1.55 -1.55 -2.85 -2.25 -5.50 -3 -4.20 -1.20 -6.85 -1.25 -10.90 -0.20 -6 1.55 -9.55 4.15 -14.40 10.50 -2.90 3.75 -4.55 7.30 -5.50 11.65 -0.65 3.10 0.50 8.65 2.65 12.65 1.80 3.40 2.10 3.60 6.15 4.45 2.75 0.55 3.30 0.50 6.65 -0.55 4.10 -1.30 5.75 -2.40 6.90 -4.60 0.70 -1.40 0.70 -1.70 -0.60 -5.20 l-1.35 -3.75 -1.80 0.15 c-1.75 0.15 -1.80 0.20 -2.05 2.55 -0.40 3.05 -1.40 4.15 -3.30 3.50 -2.55 -0.85 -4.75 -6.90 -3.10 -8.55 0.35 -0.35 1.10 -0.60 1.70 -0.60 0.80 0 1.15 -0.40 1.40 -1.60 0.35 -1.80 2.10 -3.90 3.20 -3.90 0.45 0 1.20 0.40 1.70 0.85 0.60 0.50 1.90 0.85 3.60 0.90 3.20 0.15 3.65 0.35 4.05 2.20 0.25 1.10 0.70 1.55 2.20 1.95 2.90 0.90 3.60 2 3.65 5.75 0.05 4.50 -1.55 7.65 -6.05 12 -6.75 6.55 -14.05 8.15 -21.05 4.60 -2.65 -1.35 -6.50 -5.45 -8 -8.50 -1.55 -3.20 -3 -9.60 -3 -13.20 0.05 -10.60 6.05 -20.85 14.90 -25.45 4.80 -2.50 7.65 -3.20 12.85 -3.15 5.35 0 9.65 1.40 14.30 4.55 5.90 4 7.55 5.65 9.75 9.55 3.45 6.20 4.80 10.50 5 16 0.30 7.85 -1.25 11.45 -7.65 17.85 -1.75 1.75 -3.15 3.35 -3.15 3.60 0 0.20 1.50 0.80 3.40 1.25 4.05 1.10 5.70 2.05 8.45 4.85 2.15 2.20 3.85 5.50 4.65 9.05 0.45 2.10 -0.15 9.50 -1.05 13 -0.60 2.35 -2.85 3.85 -5.55 3.75 -1.30 -0.05 -2.25 0.30 -3.40 1.25 -1.90 1.60 -3.90 1.70 -6.90 0.35 -1.90 -0.85 -2.45 -0.90 -4.40 -0.40 -3.85 1.05 -4.85 -0.85 -2.90 -5.55 0.65 -1.60 0.65 -1.80 -0.35 -2.85 l-1.10 -1.15 1 -1.60 c0.85 -1.30 0.95 -1.90 0.55 -3.55 -0.55 -2.65 -0.15 -3.85 1.50 -4.20 2.45 -0.50 2.60 -0.65 2.60 -2.10 0 -0.80 0.30 -1.70 0.65 -1.95 0.95 -0.75 3.65 0.20 4.80 1.65 1.50 1.90 1.30 3.35 -0.60 4.85 -2 1.50 -3.60 4.80 -3.15 6.50 0.60 2.40 1.95 3.45 4.70 3.75 3.45 0.30 4.80 -0.65 6.70 -4.75 1.40 -2.90 1.50 -3.55 1.25 -6.45 -0.35 -3.70 -0.90 -4.95 -3.05 -6.80 -2.15 -1.90 -8.60 -4.55 -11.05 -4.55 -1.35 0 -3.40 0.60 -5.85 1.80 -4.05 1.95 -5.95 3.95 -8.40 8.85 -1.50 2.95 -3 8.30 -3 10.60 0 4.35 4.45 12.70 10.65 20 3.75 4.40 6.20 10.15 6.65 15.50 0.20 2.15 0.50 4.05 0.70 4.15 0.20 0.10 1.90 -1.55 3.80 -3.75 2.60 -3.05 4.20 -4.35 6.75 -5.65 7.95 -4.10 10.20 -5.65 11.30 -7.95 1.20 -2.50 1.90 -7.70 1.20 -9.45 -0.65 -1.85 -4 -3.95 -6.15 -3.95 -1.50 0 -2.05 0.30 -2.95 1.60 -0.65 0.90 -1.30 2.45 -1.45 3.50 -0.30 2.35 -1.05 2.65 -1.55 0.65 -0.80 -2.85 2.85 -7.25 6.05 -7.35 2 -0.05 6.05 2.60 7.40 4.90 1 1.70 1.10 2.40 0.85 5.40 -0.15 2.20 -0.60 3.85 -1.10 4.40 -1.10 1.25 -0.65 1.50 1.05 0.65 0.80 -0.40 4.05 -1.55 7.25 -2.55 9.65 -3 16.55 -6.95 19 -10.85 1.30 -2.15 3.05 -7.60 3.05 -9.70 0 -4.35 -2.75 -10.35 -6.35 -13.75 -2.35 -2.20 -8.60 -3.55 -11.40 -2.45 -2.20 0.85 -11.80 -2.25 -14.50 -4.70 -1.90 -1.65 -3.25 -5.15 -3.25 -8.25 0 -1.60 0.30 -2.15 1.85 -3.45 2.35 -1.95 4 -1.95 7.20 -0.15 l2.45 1.35 0 2.65 c0 1.65 -0.20 2.55 -0.50 2.35 -0.30 -0.15 -0.50 -1.05 -0.50 -1.95 0 -0.95 -0.45 -2.25 -1.05 -3 -0.85 -1.05 -1.45 -1.30 -3.40 -1.30 -3.75 0 -4.55 1.10 -4.30 5.80 0.10 2.80 0.40 4.05 1 4.65 0.80 0.70 0.80 0.65 0 -0.60 -0.50 -0.75 -0.75 -1.50 -0.60 -1.65 0.15 -0.15 0.60 0.40 1.05 1.20 0.40 0.80 1.15 1.65 1.65 1.80 0.75 0.30 0.75 0.45 0.15 0.85 -0.60 0.45 -0.60 0.50 0.15 0.25 0.50 -0.15 1.85 0.20 2.95 0.75 2.15 1.10 5.20 1.15 16.20 0.15 3.95 -0.35 5.85 0.35 10.15 3.60 1.20 0.95 2.35 1.55 2.60 1.40 0.25 -0.15 0.45 -1.45 0.45 -2.85 0.05 -3.30 0.85 -6.70 3.30 -13.60 1.80 -5.15 1.95 -5.80 1.85 -10.90 -0.05 -3.90 0.10 -5.35 0.50 -5.20 0.35 0.10 0.75 1.35 0.90 2.80 0.40 2.95 0.80 3.60 1.50 2.55 1.75 -2.80 1.95 -10.25 0.40 -15.25 -1.30 -4.25 -2.55 -6.10 -7.05 -10.55 -3.30 -3.25 -3.95 -3.65 -6.60 -4.20 -3.75 -0.75 -7.25 -0.45 -8.95 0.80 -0.80 0.55 -2.45 3.20 -4.05 6.50 -3.10 6.25 -6.20 10.55 -8.05 11 -1.80 0.45 -3.95 -0.60 -6 -2.85 -2.20 -2.45 -2.35 -4.45 -0.40 -6.25 1.30 -1.20 1.30 -1.30 0.70 -3.80 -0.85 -3.15 -0.85 -4.50 -0.05 -6.40 0.70 -1.75 2.75 -3 4.85 -3 2.25 0 2.75 -0.60 2.40 -2.70 -0.75 -4 2.05 -7.75 5.90 -7.90 1.75 -0.05 4.05 1.15 4.55 2.40 0.40 1.10 2.20 0.85 4.05 -0.60 1.50 -1.10 2 -1.25 3.85 -0.95 4.80 0.80 5.85 1.70 7.15 6.15 0.50 1.65 1.50 3.10 3.30 4.85 1.40 1.35 3.25 3.50 4.10 4.70 l1.55 2.25 0.50 -1.50 c0.30 -0.85 1.40 -2.55 2.40 -3.80 3.55 -4.25 7.75 -4.20 12.10 0.15 l2.45 2.45 -0.25 3.75 c-0.30 4.35 -0.70 4.90 -4.70 5.80 -2.25 0.50 -2.75 0.45 -4.85 -0.50 -2.20 -1 -2.35 -1.20 -2.35 -2.95 0 -2.10 0.65 -3.40 1.40 -2.90 0.25 0.15 0.50 1.05 0.50 2 0 2.50 0.35 2.80 3.40 2.80 3.80 0 4.70 -1 4.70 -5.15 0 -2.80 -0.15 -3.30 -1.35 -4.45 -1.95 -1.75 -3.30 -2.40 -5.25 -2.40 -2.15 0.05 -3.60 0.85 -5.15 3 -1.05 1.45 -1.25 2.25 -1.25 5.30 0 2.25 0.40 4.80 1 6.80 0.55 1.70 1.15 4.55 1.35 6.30 0.15 1.70 0.50 3.10 0.80 3.10 0.25 0 1.25 -0.70 2.25 -1.55 1 -0.90 2.75 -2 3.85 -2.50 2.15 -0.95 9.05 -1.95 13.65 -1.95 3.20 0 4.65 -0.70 7.60 -3.75 2.20 -2.20 2.25 -2.40 2.25 -5.40 0 -1.70 -0.15 -3.85 -0.35 -4.75 -0.35 -1.40 -0.25 -1.65 0.50 -1.50 1 0.20 1.45 2 1.55 6.05 l0.05 2.90 -3.50 3.70 c-3.75 3.95 -3.95 4.50 -3 8.45 0.30 1.30 1.25 2.80 2.95 4.50 4.75 4.85 7.05 11.80 6 18 -0.75 4.65 -2.40 7.80 -5.05 9.75 -2.45 1.80 -3.40 1.95 -3.40 0.55 0 -0.55 0.35 -1 0.75 -1 0.45 0 1.75 -0.90 2.95 -2 2.05 -1.90 2.20 -2.25 2.80 -6 1.25 -8.15 -0.40 -13.80 -5.45 -18.95 -2.55 -2.60 -3.90 -3.50 -6 -4.20 -3.35 -1.10 -7.45 -1.10 -10.85 0 -4.05 1.25 -10.20 6.40 -13.25 11 -3.25 5 -3.20 5.35 0.45 4.95 1.55 -0.20 3.45 -0.60 4.20 -0.90 2.25 -0.85 3.70 -0.15 4.90 2.35 1.20 2.50 1.15 3.65 -0.15 4.45 -0.75 0.45 -1.10 0.30 -2.10 -0.90 -1.10 -1.40 -1.15 -1.40 -3.30 -0.70 -1.80 0.55 -2.40 1.10 -3.30 2.95 -1.85 3.60 -3.05 11.60 -3.30 22.20 -0.25 9.65 0.10 14.80 1.40 19.75 0.40 1.50 1.25 4.65 1.85 6.95 0.75 2.90 1.20 3.90 1.45 3.25 0.15 -0.50 0.90 -2.85 1.65 -5.20 1.05 -3.50 1.80 -4.80 4.10 -7.50 3.55 -4.10 5.20 -7.50 5.20 -10.65 0 -3.80 -1.55 -6.15 -4.65 -6.85 -1.40 -0.35 -1.45 -0.40 -0.35 -0.45 0.70 -0.05 1.80 0.30 2.40 0.75 0.65 0.45 1.30 0.65 1.50 0.45 0.45 -0.45 -1.35 -1.75 -2.50 -1.75 -0.50 0 -0.90 -0.20 -0.90 -0.45 0 -0.95 3 0.55 4.30 2.10 2.30 2.75 2.75 4.35 2.15 7.80 -0.30 1.70 -0.45 3.25 -0.25 3.40 0.15 0.20 0.80 -0.15 1.45 -0.75 1.75 -1.65 6.65 -3.20 10.10 -3.25 3.95 0 8 1.60 10.45 4.10 1.90 1.95 1.90 2 1.95 6.15 0.05 3.20 -0.15 4.55 -0.85 5.85 -0.90 1.65 -0.90 1.80 -0.05 3.40 1.35 2.50 0.55 5.60 -1.75 6.75 -1.10 0.60 -2.15 1.70 -2.85 3.15 -1.25 2.40 -1.60 2.55 -4.10 1.70 -1.20 -0.45 -2.15 -0.40 -3.85 0.05 -2.15 0.60 -2.30 0.60 -3.70 -0.75 -1.35 -1.25 -1.50 -1.80 -1.50 -4.35 0 -2.35 -0.30 -3.45 -1.55 -5.65 l-1.55 -2.75 0.95 -1.55 c1.35 -2.35 3.30 -3.60 5.45 -3.55 2.60 0.10 2.95 0.65 2.20 3.25 -0.80 2.90 -0.10 4.35 2 4.35 2.20 0 3.30 -1.45 3.70 -4.65 0.45 -3.30 -0.40 -5.40 -2.80 -7.35 -2.05 -1.60 -6.75 -1.95 -10.30 -0.80 -6.55 2.20 -9.60 6.90 -10 15.40 -0.40 8.45 0.80 10.65 7.35 13.15 3.60 1.35 5.55 3.15 8.05 7.45 0.60 1 1.30 1.80 1.55 1.80 0.20 0 1.70 -0.90 3.25 -2 2.35 -1.65 3.30 -2 5.25 -2 2.10 0 2.80 0.30 5.55 2.40 3.15 2.35 3.15 2.40 3.85 5.95 0.85 4.25 0.45 5.60 -2.05 7.15 -1.65 1 -3.90 1.35 -3.90 0.60 0 -0.25 0.90 -0.90 1.95 -1.50 2.15 -1.20 2.55 -1.90 2.55 -4.20 0 -4.10 -1.90 -6.80 -5.85 -8.40 -2 -0.75 -3.20 -0.50 -6.30 1.50 -3.35 2.10 -4.60 4.95 -4.20 9.45 0.35 4.45 1.75 7.45 4.60 9.95 5.25 4.60 11.30 6.80 20.25 7.30 14.60 0.85 25.95 -2.85 34.55 -11.25 3.50 -3.45 4.65 -5 6.35 -8.45 3.10 -6.25 3.75 -9.45 3.50 -16.95 -0.20 -5.80 -0.30 -6.55 -1.75 -9.35 -1.50 -3.10 -3.80 -6.40 -5.15 -7.60 -3.65 -3.10 -9.40 -5.30 -15.30 -5.80 -3.70 -0.30 -4.15 -0.25 -6.95 1.10 -3.90 1.90 -6.50 4.65 -7.35 7.75 -0.55 2.05 -0.50 2.85 0.25 5.75 0.50 1.85 1.45 4.20 2.10 5.20 1.45 2.15 1.60 3.65 0.45 4.10 -2.60 1 -7.70 -7.10 -7.70 -12.15 0 -2.70 1.70 -6.60 3.50 -8.10 1.05 -0.90 1.75 -2.10 2.20 -3.75 0.50 -2.05 0.95 -2.70 2.95 -4.05 3.90 -2.60 7.35 -2.65 15.20 -0.25 1.45 0.40 2.75 0.65 2.90 0.50 0.15 -0.15 -0.25 -1.70 -0.95 -3.45 -0.70 -1.75 -1.50 -4.60 -1.80 -6.35 -0.90 -5.05 -2.15 -7.50 -4.35 -8.45 -5 -2.05 -8.35 -1.10 -10.40 3 -0.75 1.50 -1.25 3.40 -1.25 4.65 0 2.85 -0.85 3.25 -2.60 1.25 -1 -1.10 -1.40 -2.10 -1.40 -3.35 0 -1.35 -0.35 -2.05 -1.25 -2.80 -0.80 -0.60 -1.25 -1.45 -1.25 -2.40 0 -1.60 0.70 -2.35 2.50 -2.60 1.05 -0.10 1.30 -0.45 1.40 -2 0.10 -1.25 0.55 -2.15 1.25 -2.65 1.20 -0.85 3.95 -1 5.35 -0.25 0.70 0.35 1.15 0.30 1.75 -0.35 1.05 -1.05 5.70 -1.50 7.20 -0.65 1.55 0.80 3.05 3.45 3.05 5.40 0 2.10 0.85 2.05 1.25 -0.10 0.70 -3.55 6.60 -9.75 17.25 -18.10 7.15 -5.55 7.90 -6.25 9.45 -9.35 l1.70 -3.30 -0.30 -6.40 c-0.15 -3.65 -0.65 -7.55 -1.15 -9.15 -0.90 -3 -3.20 -6.70 -4.45 -7.20 -1.25 -0.45 -3.70 -0.35 -4.75 0.20 -1.85 1 -2.75 6.75 -1.25 8 0.50 0.40 1.45 0.50 2.75 0.30 1.75 -0.25 2 -0.20 2 0.70 0 2.35 -4.65 2.50 -6.45 0.20 -1.40 -1.80 -1.70 -4 -0.95 -6.95 0.55 -2 1 -2.70 2.75 -3.90 1.15 -0.75 2.80 -1.45 3.65 -1.50 0.80 -0.05 1.50 -0.40 1.50 -0.75 0 -0.85 -4.05 -3.35 -7.50 -4.65 -3.30 -1.25 -8.40 -1.15 -13.50 0.30 -2.80 0.80 -3.70 1.45 -7.15 4.70 -4.70 4.50 -8.15 9.15 -9.20 12.45 -1.20 3.75 -1.05 11.30 0.25 14.25 1.45 3.30 3.95 6.60 5.40 7.30 2.15 0.95 6.45 0.65 10.05 -0.75 5.85 -2.25 7.15 -4.90 4.95 -9.85 -2 -4.60 -5.20 -4.95 -5.35 -0.65 -0.10 2.40 -0.65 4.05 -1.55 4.20 -0.80 0.15 -4 -3.20 -5.50 -5.75 -1.05 -1.80 -0.60 -2.50 1.90 -3.40 1.70 -0.55 1.95 -0.90 2.10 -2.30 0.30 -3 2.15 -4.30 4.40 -3.10 0.80 0.45 2.80 0.95 4.40 1.10 2.85 0.30 3 0.40 3.40 1.85 0.30 1.25 0.80 1.65 2.35 2.15 2.80 0.80 4.05 2.60 4.05 5.70 0 2.95 -1.05 5.25 -4.55 10 -3.10 4.25 -5.50 5.95 -10.60 7.60 -3.75 1.15 -4.45 1.25 -7.30 0.80 -4.25 -0.70 -6.55 -2.20 -10.45 -6.90 -4.20 -5.05 -5.95 -10.90 -5.40 -18 0.65 -7.75 2.80 -13.20 7.15 -18.05 5.35 -5.95 13.90 -9.75 21 -9.30 8.50 0.55 16.25 4.70 21.65 11.60 1.10 1.40 2.35 2.60 2.75 2.60 0.40 0 0.75 0.25 0.75 0.50 0 1.30 -1.65 0.20 -3.70 -2.45 -3.05 -3.95 -5.85 -6.25 -10.05 -8.35 -4.50 -2.25 -8.20 -3.20 -12.25 -3.20 -4.25 0 -7.45 0.90 -12.40 3.50 -9.60 4.95 -14.45 14.15 -14 26.40 0.25 6.45 1.30 9.50 4.85 14.20 4.70 6.20 10.15 8.20 16.90 6.10 4.60 -1.40 6.35 -2.45 9.05 -5.50 3.80 -4.25 5.60 -7.95 5.60 -11.50 0 -1.65 -0.20 -3.25 -0.40 -3.60 -0.25 -0.35 -1.55 -1.05 -2.90 -1.50 -2.05 -0.75 -2.50 -1.15 -2.70 -2.35 -0.25 -1.45 -0.40 -1.50 -3.35 -1.75 -1.70 -0.15 -3.40 -0.55 -3.75 -0.85 -1.60 -1.65 -3.90 0.10 -3.90 2.95 0 1.70 -0.10 1.80 -2.25 2.35 -1.25 0.30 -2.25 0.85 -2.25 1.20 0 0.95 3.40 5.75 4.45 6.35 1.10 0.55 1.25 0.30 1.85 -3.25 0.45 -2.75 1.05 -3.75 2.25 -3.75 1.80 0 3 1.05 4.25 3.65 1.45 3.15 1.50 5.55 0.25 7.65 -1.40 2.30 -7.75 4.90 -11.70 4.85 -4.15 -0.05 -5.35 -0.75 -7.70 -4.30 -3.35 -5.05 -3.40 -5.10 -3.40 -11.35 0.05 -4.85 0.20 -6.10 1.15 -8.20 1.75 -3.85 5.25 -8.40 9.40 -12.25 4.05 -3.70 5.90 -4.55 12.15 -5.60 3.80 -0.60 6.60 -0.15 10.90 1.90 3.20 1.50 6.65 4.45 6.65 5.60 0 0.25 -0.85 0.35 -1.90 0.20 -3.65 -0.50 -6.30 1.70 -7.10 5.80 -0.40 2.15 -0.35 3 0.30 4.30 1 2.10 3.20 3.15 5.05 2.30 1.65 -0.75 1.15 -1.20 -1.45 -1.25 -2.05 -0.05 -2.20 -0.15 -2.75 -2 -1.35 -4.05 1.10 -7.80 5.10 -7.80 1.95 0 2.40 0.25 4.20 2.30 2.30 2.65 3.30 5.45 3.85 10.70 0.25 2.45 0.55 3.50 1 3.50 0.55 0 0.70 0.85 0.70 3.50 0 2.45 -0.20 3.50 -0.60 3.50 -0.35 0 -1.30 1.35 -2.15 3 -1.95 4 -2.70 4.75 -11.90 11.95 -4.35 3.40 -8.55 7 -9.25 7.95 -0.75 0.95 -2.10 2.60 -3 3.65 -0.90 1.05 -2.15 3.20 -2.75 4.75 -1.50 3.75 -2.35 4.05 -2.35 0.80 0 -1.75 -0.35 -2.95 -1.15 -4.15 -1.05 -1.55 -1.35 -1.70 -3.95 -1.85 -2.05 -0.10 -3.25 0.10 -4.15 0.70 -1.10 0.70 -1.55 0.75 -3.15 0.25 -2.75 -0.90 -4.15 -0.20 -4.80 2.45 -0.50 1.90 -0.80 2.25 -2.20 2.60 -0.90 0.25 -1.75 0.75 -1.90 1.15 -0.40 0.95 0.60 2.60 1.80 3 0.80 0.25 1 0.75 1 2.45 0 1.45 0.30 2.40 0.95 3 0.90 0.80 0.95 0.75 1.25 -1.25 1 -6.30 5.40 -9.75 10.50 -8.25 4.65 1.40 5.80 2.95 6.85 9.20 0.30 1.85 1.25 5 2.05 7.05 1.85 4.75 1.55 5.15 -3 3.70 -5.90 -1.90 -7.80 -2.20 -10.55 -1.60 -3.95 0.85 -5.65 2.25 -6.70 5.60 -0.65 1.95 -1.35 3.15 -2.40 3.90 -2.05 1.45 -3.05 4.10 -3 7.90 0 3.65 1.10 6.35 3.75 9.20 3.05 3.35 3.65 2.20 1.30 -2.45 -1.95 -3.75 -2.50 -8.95 -1.30 -11.80 0.85 -2 4.60 -5.25 8 -7 4.05 -2.05 14.55 -0.20 20.05 3.60 2.90 2 5.75 5.60 7.85 9.90 1.60 3.25 1.65 3.50 1.60 9.85 0 7.15 -0.75 10.90 -3.15 15.75 -4.35 8.75 -11.55 14.75 -22.30 18.65 -5.45 1.95 -10.35 2.55 -18.65 2.25 -6.45 -0.25 -7.90 -0.45 -11.70 -1.80 -4.55 -1.55 -9.75 -4.85 -12.10 -7.60 -2.85 -3.45 -3.85 -10.65 -1.90 -14.45 1.35 -2.75 1.35 -2.65 -0.10 -2.25 -1.05 0.25 -1.35 0 -2.20 -1.90 -1.70 -3.75 -4.25 -6.15 -8 -7.60 -1.85 -0.70 -3.90 -1.65 -4.50 -2.10 -5.20 -3.65 -4.35 -18.40 1.45 -24.15 3.35 -3.40 9.90 -5.30 13.70 -4.05 2.35 0.80 5.20 3.30 6.05 5.35 0.80 1.85 0.10 6.80 -1.15 8.25 -1.65 1.85 -5.35 1.35 -6.15 -0.85 -0.25 -0.60 -0.10 -1.90 0.30 -3 0.80 -2.40 0.60 -2.75 -1.65 -2.75 -1.35 0 -2.15 0.40 -3.45 1.70 -0.95 0.95 -1.70 2.10 -1.70 2.55 0 0.50 0.65 2.05 1.50 3.45 1.20 2.15 1.45 3.10 1.35 5.50 -0.15 3.90 0.30 4.15 6.50 4.05 l4.85 -0.05 0.90 -2.15 c0.60 -1.50 1.30 -2.25 2.40 -2.60 2.20 -0.80 2.85 -3.50 1.40 -5.85 l-1.05 -1.70 1.10 -2.10 c0.80 -1.60 1.05 -3.10 1.05 -5.80 0 -3.60 0 -3.65 -2.10 -5.75 -2.30 -2.25 -6.10 -3.75 -9.65 -3.75 -2.95 0 -8.40 1.85 -9.75 3.25 -2.20 2.35 -2.65 1.75 -2.30 -3.10 0.30 -3.95 0.25 -4.60 -0.70 -6.10 -1.45 -2.30 -1.75 -1.70 -0.50 1.05 0.85 1.95 0.90 2.70 0.50 4.85 -0.55 2.90 -1.90 5.70 -3.60 7.55 -4.25 4.55 -6.90 10.40 -6.90 15.25 0 4.20 -1.50 3.10 -2.55 -1.85 -0.30 -1.45 -1.05 -4.45 -1.70 -6.65 -1.90 -6.70 -2.40 -12.20 -2.10 -23.10 0.30 -10.75 1.45 -18.50 3.35 -22.35 0.90 -1.85 1.40 -2.30 3.50 -3 2.70 -0.90 3.80 -0.70 4.25 0.75 0.35 1.10 1.75 1.30 1.75 0.25 0 -1.40 -1.15 -3.85 -2 -4.30 -0.60 -0.35 -1.40 -0.35 -2.25 0 -0.70 0.25 -2.35 0.50 -3.55 0.50 -1.25 0 -2.75 0.25 -3.30 0.55 -1.35 0.70 -2.15 -0.10 -1.70 -1.70 0.65 -2.60 5.25 -8.60 8.85 -11.55 6.25 -5.15 9.85 -6.30 16.55 -5.30 2.20 0.30 4.30 0.70 4.70 0.85 0.55 0.20 0.70 -0.35 0.65 -2.50 l-0.10 -2.80 -3.05 0.20 c-1.65 0.15 -4.85 0.35 -7.05 0.45 -5.10 0.30 -7.60 1.20 -11.20 4.05 -1.55 1.25 -3 2.25 -3.15 2.25 -0.15 0 -0.40 -1.65 -0.60 -3.60 -0.15 -2 -0.75 -5.10 -1.30 -6.80 -1.45 -4.70 -1.75 -7.95 -0.85 -10.45 0.40 -1.20 0.55 -2.15 0.30 -2.15 -0.25 0 -0.70 1 -1 2.25 -0.30 1.25 -0.85 2.25 -1.20 2.25 -0.35 0 -1.30 -1.05 -2.05 -2.35 -0.75 -1.30 -2.65 -3.70 -4.25 -5.30 -2.20 -2.20 -3.10 -3.55 -3.65 -5.55 -0.95 -3.20 -1.55 -3.75 -4.95 -4.55 -2.90 -0.65 -4.10 -0.40 -5.55 1.20 -1.35 1.50 -2.35 1.30 -4.45 -0.70 -1.15 -1.10 -2.30 -1.75 -3.10 -1.75 -2.15 0 -4.60 1.45 -5.30 3.10 -0.60 1.40 -0.60 2 -0.30 5.60 0.10 1.45 0 1.50 -2.90 2.05 -3.80 0.70 -4.10 0.90 -4.80 3.25 -0.50 1.70 -0.45 2.50 0.30 5.05 l0.95 3.10 -1.35 1.05 c-2.10 1.70 -1.90 4.20 0.60 6.45 2.50 2.25 3.75 2.65 5.30 1.65 1.95 -1.30 3.85 -4.10 7 -10.45 3.50 -7.10 4.75 -8.10 10 -8.05 5.45 0 7.95 1.55 13.85 8.30 3.40 3.95 4.90 8.35 5 14.85 0.10 5.35 -0.50 7.80 -2.40 9.60 -0.65 0.65 -1.60 2.40 -2 3.95 -0.45 1.50 -1.60 5.10 -2.55 8 -1.30 3.70 -1.95 6.80 -2.30 10.75 -0.30 3 -0.60 5.60 -0.70 5.70 -0.05 0.10 -1 -0.80 -2.10 -2.05 -1.10 -1.20 -3.40 -3 -5.10 -3.90 l-3.15 -1.65 -5.05 0.60 c-2.75 0.40 -6 0.75 -7.20 0.85 -1.20 0.10 -2.30 0.25 -2.40 0.40 -0.50 0.45 4.30 0.75 6.10 0.30 2.30 -0.50 6.05 0.15 8.85 1.55 2.55 1.30 6.70 6.90 7.70 10.35 1.10 3.75 1 6.70 -0.30 10.80 -0.90 2.85 -1.65 4.05 -4.10 6.65 -3.55 3.65 -9.65 6.95 -16.15 8.70 -2.20 0.60 -5.45 1.70 -7.20 2.50 -1.75 0.80 -3.60 1.45 -4.05 1.45 -0.50 0 -1.40 0.45 -2.05 0.95 l-1.20 1 2.25 -0.50 c1.25 -0.30 2.95 -0.40 3.85 -0.20 0.85 0.15 1.70 0.10 1.85 -0.15 0.15 -0.25 1.50 -0.60 3 -0.80 1.50 -0.15 5.90 -1.40 9.75 -2.75 6.05 -2.10 7.45 -2.80 10.45 -5.20 3.80 -3.05 6.50 -6.80 7.35 -10.30 1.05 -4.10 1.95 -2.95 4.25 5.35 1.30 4.65 4.25 12.25 5.75 14.90 0.65 1.10 1.85 3.25 2.60 4.75 0.80 1.50 1.75 3.20 2.15 3.80 0.95 1.50 0.50 1.80 -3.15 2.20 -7.15 0.80 -12.15 4.10 -15.10 10.15 -1.15 2.40 -1.45 3.70 -1.65 7.85 -0.25 5.05 0.45 10.10 1.65 12.45 2.50 4.85 8.35 8.70 14.15 9.30 2.55 0.30 3.30 0.15 4.75 -0.75 0.95 -0.60 2.15 -1.65 2.60 -2.35 0.70 -1.10 0.75 -1.50 0.20 -2.50 -0.75 -1.40 -1.20 -1.45 -4.50 -0.40 -1.75 0.60 -3.25 0.70 -5.25 0.45 -2.45 -0.30 -3.20 -0.65 -5.20 -2.55 -2.95 -2.75 -4.55 -6.35 -4.90 -10.75 -0.20 -2.95 -0.05 -3.60 1.50 -7 3.45 -7.30 9.05 -10.85 16.40 -10.35 2.05 0.15 4.30 0.70 5.70 1.35 2.95 1.45 7.10 5.20 8.25 7.50 1.20 2.35 2.85 7.90 3.55 12.05 1.10 6.65 5.50 12.80 12.40 17.40 1.40 0.95 2.60 2.05 2.60 2.40 0 0.85 -1 0.95 -1 0.10 0 -0.35 -1.10 -1.40 -2.40 -2.25 -7.20 -5 -11.45 -11 -12.35 -17.45 -0.50 -3.70 -2.15 -9.50 -3.30 -11.85 -3 -5.90 -11.25 -9.85 -17.55 -8.45 -6 1.40 -9.65 4.65 -12.20 10.85 -1.45 3.65 -1.50 5.20 -0.15 9.55 0.85 2.80 1.55 3.95 3.70 6.10 2.60 2.60 2.60 2.60 5.80 2.60 1.80 0 4.25 -0.40 5.65 -0.85 2.40 -0.90 2.40 -0.90 3.35 0.30 1.40 1.70 1.15 3.25 -0.75 5.15 -2.20 2.20 -4.30 2.80 -7.80 2.30 -5.90 -0.95 -11.70 -5.15 -14.10 -10.35 -1.30 -2.85 -2 -10.55 -1.30 -15 0.85 -5.70 4.55 -11.15 9.15 -13.45 2.60 -1.30 7.25 -2.60 9.20 -2.60 0.85 0 1.55 -0.10 1.55 -0.25 0 -0.10 -1.40 -2.70 -3.05 -5.75 -1.70 -3.10 -3.50 -6.75 -4.05 -8.15 -1.50 -3.95 -5.40 -16 -5.40 -16.75 0 -0.35 -0.20 -0.50 -0.50 -0.35 -0.25 0.15 -0.50 0.70 -0.50 1.20 0 1.45 -2.60 5.90 -4.70 8.10 -4.35 4.45 -7.25 6.15 -14.85 8.55 -3.95 1.30 -7.85 2.45 -8.65 2.65 l-1.45 0.30 1.55 0.85 c4.60 2.60 7.75 7.15 9.85 14.35 1.35 4.50 1.50 5.70 1.45 11.75 0 5.85 -0.15 7.15 -1.15 9.75 -3.20 8.20 -9.65 12.60 -19.35 13.10 -4.05 0.25 -4.65 0.15 -5.40 -0.65 -0.45 -0.55 -2.15 -2.50 -3.85 -4.40 -1.65 -1.90 -3.35 -4.10 -3.75 -4.90 -0.75 -1.45 -0.80 -1.45 -4.85 -1.30 l-4.10 0.15 -1.85 3.75 c-2.20 4.40 -3.20 5.15 -2.75 2 0.35 -2.65 3.40 -7.35 5.05 -7.80 0.70 -0.15 2.85 -0.10 4.75 0.15 l3.55 0.45 0 -2 c0 -2.80 1.55 -5.10 4.20 -6.40 l2.20 -1.05 2.80 1.35 c3.60 1.75 5 3.70 4.65 6.40 -0.30 2.20 -1.75 4.20 -2.50 3.45 -0.30 -0.30 -0.15 -0.90 0.35 -1.60 2.25 -3.20 -0.50 -6.95 -5.05 -6.95 -3.05 0 -5.05 3.25 -4.10 6.65 0.50 1.90 4.55 6.05 6.60 6.80 2.45 0.95 7.80 0.65 10.20 -0.50 2.65 -1.25 6.20 -5.25 8.05 -8.95 1.20 -2.50 1.35 -3.25 1.35 -8.25 -0.05 -6.25 -0.80 -9.60 -3.60 -16.15 -1.35 -3 -2.65 -5.10 -4.45 -6.95 -2.35 -2.45 -2.70 -2.65 -4.90 -2.65 -2.15 0 -6.60 1.45 -8.20 2.70 -0.55 0.40 -0.55 0.60 0.15 1.10 1.35 1 0.50 1.65 -1.50 1.20 -2.75 -0.60 -6.15 1.35 -9.85 5.70 -1.65 1.95 -3.30 3.80 -3.70 4.10 -0.40 0.30 -1.25 2.65 -1.90 5.25 -1.50 5.80 -5.45 14.25 -8.45 18 -2.85 3.55 -9.05 8.65 -11.90 9.75 -3.40 1.30 -12.90 6.90 -12.95 7.60 0 0.85 -2 0.75 -2 -0.10z m65.70 -8.20 c1.35 -0.55 3.65 -1.90 5.10 -3 6.65 -5.15 9.05 -18.15 5.20 -28.80 -0.50 -1.40 -1.05 -3.20 -1.25 -4 -0.40 -1.80 -3.60 -6.80 -4.40 -6.85 -0.35 -0.05 -0.75 -0.05 -0.95 0 -0.25 0 -0.40 -0.20 -0.40 -0.45 0 -0.85 -2.40 -3 -3.35 -3 -0.65 0 -0.45 0.45 0.95 1.90 1.65 1.70 4.90 8.25 6.45 12.85 0.45 1.30 0.70 4.60 0.70 9.50 0 7.40 0 7.55 -1.50 10.20 -2.20 4 -6.40 7.90 -9.45 8.80 -6 1.80 -10.90 0.45 -14.30 -3.80 -2.30 -2.95 -2.95 -5.65 -1.80 -7.90 1.25 -2.35 2.90 -3.20 5.55 -2.95 2.55 0.30 2.55 -0.25 0 -1.10 -1.50 -0.50 -2 -0.45 -3.70 0.55 -2.70 1.50 -3.65 3.60 -3.35 7.45 0.25 3.05 1.45 5.20 3.85 6.90 0.50 0.35 1.65 1.70 2.50 2.95 l1.60 2.30 5.05 -0.30 c3.20 -0.20 5.95 -0.65 7.50 -1.25z m-32.25 -6.35 c0 -0.25 -0.30 -0.05 -0.70 0.45 -0.40 0.55 -0.75 1.35 -0.75 1.75 0.05 0.85 1.45 -1.30 1.45 -2.20z m111.90 -8.05 c1 -0.75 1.65 -1.70 1.65 -2.35 -0.05 -0.90 -0.15 -0.85 -0.70 0.45 -0.45 0.95 -1.20 1.70 -2 1.90 -0.70 0.15 -1.30 0.55 -1.30 0.80 0 0.80 0.50 0.60 2.35 -0.80z m1.45 -7.45 c-0.20 -0.95 -0.55 -1.75 -0.75 -1.75 -0.25 0 -0.15 0.90 0.10 2 0.65 2.40 1.10 2.25 0.65 -0.25z m-9.55 -6.35 c0.85 -0.75 -0.75 -0.45 -2.65 0.55 -1 0.50 -2.30 1.45 -2.85 2.05 -0.85 0.95 -0.50 0.85 2 -0.50 1.65 -0.90 3.20 -1.85 3.50 -2.10z m6.75 2.35 c0 -0.45 -4 -2.90 -4.30 -2.65 -0.15 0.15 0.70 0.85 1.90 1.55 2.55 1.50 2.40 1.40 2.40 1.10z m-83 -30.10 c0 -1.85 -0.10 -3.20 -0.20 -3.10 -0.40 0.45 -0.65 6.90 -0.25 6.65 0.25 -0.15 0.45 -1.75 0.45 -3.55z m-12.40 -4.60 c0.10 -0.85 0.05 -1.40 -0.20 -1.25 -0.40 0.25 -0.60 2.70 -0.20 2.70 0.10 0 0.30 -0.65 0.40 -1.45z m7.95 -41.85 c-0.45 -1.90 -0.45 -1.90 -0.50 -0.35 -0.05 1.65 0.50 3.70 0.80 2.85 0.10 -0.30 -0.05 -1.40 -0.30 -2.50z m62.55 -40.85 c-0.45 -1.40 -0.50 -1.15 -0.50 2.15 0 3.60 0.05 3.65 0.55 1.60 0.35 -1.45 0.35 -2.60 -0.05 -3.75z"/>
  <path d="M83.10 224.15 c0.30 -1.60 6.90 -1.45 6.90 0.10 0 0.60 -0.80 0.75 -3.55 0.75 -3.10 0 -3.50 -0.10 -3.35 -0.85z"/>
  <path d="M95.50 224.30 c0 -0.40 0.60 -0.85 1.30 -1 1.80 -0.45 4.20 0.10 4.20 1 0 0.50 -0.70 0.70 -2.75 0.70 -2 0 -2.75 -0.20 -2.75 -0.70z"/>
  <path d="M178 224.30 c0 -0.40 0.85 -1 1.90 -1.30 1 -0.35 3.30 -1.45 5.10 -2.50 1.80 -1.05 5.30 -2.90 7.80 -4.15 5.65 -2.85 11.65 -8.25 14.60 -13.20 2.10 -3.60 5.15 -10.90 6.15 -14.85 0.35 -1.40 0.50 -4.65 0.35 -8.30 l-0.20 -6 -2.40 -4.60 c-1.35 -2.55 -3.15 -5.45 -4 -6.40 -5.15 -5.75 -9.60 -13.75 -10.35 -18.65 -0.65 -4.25 -0.10 -7.20 2.55 -12.60 1.50 -3.10 2.60 -4.60 4.85 -6.55 2.85 -2.50 7.45 -4.70 9.80 -4.70 1.60 0 11.35 3.45 9.90 3.45 -0.70 0.05 -2.65 -0.55 -4.45 -1.25 -4.05 -1.60 -6.60 -1.60 -10.25 0 -3.10 1.35 -6.05 4.15 -8.45 8 -4.35 7.15 -4.50 14.30 -0.40 21.65 1.85 3.25 4.90 7.50 7.25 10.15 1.95 2.10 5.50 8.75 6.25 11.55 0.35 1.15 0.60 3.50 0.60 5.25 0 1.80 0.15 3.30 0.35 3.40 0.20 0.15 1.40 -1.20 2.70 -3 2.30 -3.20 4.80 -5.20 6.50 -5.20 1.40 0 1 0.85 -0.60 1.15 -1 0.20 -2.15 1.25 -4.05 3.85 -1.45 1.95 -3 3.80 -3.45 4.15 -0.50 0.30 -1.25 2.15 -1.75 4.10 -1.30 5.20 -4.50 13 -6.85 16.60 -3.05 4.65 -8.85 9.80 -13.70 12.20 -2.20 1.05 -5.90 3.05 -8.25 4.45 -2.35 1.35 -4.55 2.50 -4.85 2.50 -0.35 0 -0.65 0.35 -0.65 0.75 0 0.40 -0.45 0.75 -1 0.75 -0.55 0 -1 -0.30 -1 -0.70z"/>
  <path d="M48.30 218.15 c-0.15 -0.15 -0.30 -0.75 -0.30 -1.25 0 -0.65 0.35 -0.90 1.25 -0.90 0.75 0 1.25 0.30 1.25 0.75 0 0.80 -1.70 1.90 -2.20 1.40z"/>
  <path d="M212.80 217.25 c-0.20 -0.55 0.10 -0.75 1.35 -0.75 1.35 0 1.80 -0.30 2.55 -1.75 1.15 -2.10 2.05 -2.30 1.55 -0.35 -0.60 2.50 -1.65 3.60 -3.45 3.60 -1.05 0 -1.80 -0.30 -2 -0.75z"/>
  <path d="M210.30 214.70 c-0.95 -2.45 0.75 -6.95 3.30 -8.75 1.20 -0.90 1.95 -1.05 3.95 -0.80 2.85 0.35 3.60 0.70 3.15 1.45 -0.20 0.30 -1.10 0.40 -2.25 0.20 -3.75 -0.60 -6.15 1.65 -6.75 6.35 -0.35 2.40 -0.85 3 -1.40 1.55z m1.65 -4.80 c0.55 -1.15 0.95 -2.20 0.80 -2.30 -0.15 -0.20 -2.25 3.60 -2.25 4.15 0 0.70 0.50 0.05 1.45 -1.85z"/>
  <path d="M222.75 209.50 c-0.30 -0.50 -0.15 -2.80 0.55 -7.60 0.45 -2.95 1.70 -2.50 1.70 0.60 0 1.90 -0.20 2.50 -0.75 2.50 -1.05 0 -0.95 0.90 0.15 1.15 0.80 0.20 0.80 0.25 0 0.30 -1.10 0.05 -1.20 1.05 -0.15 1.05 0.45 0 0.75 0.45 0.75 1.25 0 0.90 -0.25 1.25 -0.95 1.25 -0.55 0 -1.15 -0.25 -1.30 -0.50z"/>
  <path d="M63.50 189.35 c0 -0.55 1.35 -1.30 6.15 -3.30 0.25 -0.10 0.20 0.30 -0.10 0.85 -0.50 0.95 -4.25 3.10 -5.45 3.10 -0.35 0 -0.60 -0.30 -0.60 -0.65z"/>
  <path d="M70.30 182 c-0.15 -1.10 -0.85 -2.80 -1.55 -3.80 -1.35 -2 -1.60 -2.90 -0.60 -2.60 0.90 0.30 3.30 4.95 3.35 6.50 0 2.15 -0.85 2.10 -1.20 -0.10z"/>
  <path d="M61.60 182.45 c0.05 -0.65 0.40 -1.15 0.65 -1.05 0.75 0.15 0.60 1.75 -0.15 2 -0.45 0.15 -0.65 -0.15 -0.50 -0.95z"/>
  <path d="M218.20 150.70 c-1.85 -1.25 -2 -1.30 -4.55 -0.65 -2.15 0.50 -2.90 0.50 -3.90 -0.05 -1.65 -0.90 -1.95 -1.90 -0.95 -3.40 0.45 -0.70 0.80 -2.10 0.75 -3.20 -0.05 -1.05 -0.05 -2.40 -0.05 -3 0.05 -0.65 0.05 -2.75 0 -4.75 -0.05 -3.05 0.10 -3.65 0.90 -4.10 0.50 -0.25 1.40 -0.35 2 -0.20 1.10 0.25 1.25 0.10 1.80 -2.50 0.75 -3.20 4.55 -2.80 6.30 0.70 1.20 2.25 1.05 3.45 -0.45 3.45 -0.50 0 -1.65 0.80 -2.55 1.85 -1.45 1.60 -1.60 2.05 -1.35 4.05 0.15 1.50 0.65 2.65 1.55 3.55 1.15 1.10 1.75 1.30 4.30 1.30 3.15 -0.05 4.15 0.60 1.40 0.85 -4.25 0.40 -7.50 -1.75 -8.20 -5.35 -0.25 -1.45 -0.05 -2.15 1 -3.75 0.70 -1.10 1.95 -2.45 2.80 -3.10 1.60 -1.15 1.65 -2.30 0.10 -4 -0.85 -1.05 -3.55 -1.20 -3.80 -0.25 -0.90 3.45 -1.05 3.60 -3.05 3.85 -2 0.25 -2 0.25 -1.90 2.25 0.20 3.65 0.20 4.95 0 8.50 -0.10 1.95 -0.35 4.10 -0.60 4.85 -0.30 1.05 -0.15 1.40 0.75 1.90 0.95 0.50 1.55 0.40 3.55 -0.50 l2.40 -1.15 1.30 1.60 c1 1.15 1.75 1.55 3 1.55 0.95 0 1.85 -0.20 2 -0.50 0.35 -0.60 2.25 -0.70 2.25 -0.10 0 0.35 -3.45 1.60 -4.40 1.60 -0.25 0 -1.35 -0.60 -2.40 -1.30z"/>
  <path d="M118.50 147.60 c-0.90 -0.75 -1.15 -1.45 -1.15 -3.65 -0.05 -3.10 1.10 -5.55 3.10 -6.45 2.05 -1 4.10 -1.50 3.80 -0.95 -0.20 0.25 -0.60 0.45 -1 0.45 -1.05 0 -3.25 1.10 -3.25 1.65 0 0.25 0.30 0.35 0.65 0.20 2.10 -0.85 2.35 -0.80 0.75 0.20 -1.85 1.15 -1.90 1.20 -1.90 4.25 0 3.05 0.05 3.15 1.35 3.30 0.85 0.10 1.45 0.50 1.55 1.05 0.25 1.20 -2.40 1.15 -3.90 -0.05z m0.15 -3.70 c-0.40 -2.95 -0.65 -3.05 -0.65 -0.25 0 1.30 0.20 2.35 0.45 2.35 0.25 0 0.35 -0.95 0.20 -2.10z"/>
  <path d="M83.15 141 c-3.15 -1.90 -4.35 -5.05 -3.55 -9.50 0.50 -2.95 1.55 -5.05 2.15 -4.45 0.15 0.20 0 1.90 -0.40 3.85 -0.80 3.80 -0.65 5.85 0.55 7.25 0.40 0.45 0.60 0.85 0.35 0.85 -0.20 0 -0.10 0.35 0.25 0.75 0.35 0.45 1.05 0.65 1.50 0.50 1.05 -0.35 3.50 0.55 3.50 1.25 0 0.85 -2.65 0.55 -4.35 -0.50z"/>
  <path d="M218.90 118.65 c-3.35 -0.30 -3.15 -1.15 1.20 -5.50 3.35 -3.40 4.90 -4.35 4.90 -3.15 0 0.30 -0.40 0.50 -0.95 0.50 -1 0 -7.15 6.45 -6.75 7.10 0.15 0.20 1.45 0.40 2.85 0.45 1.45 0.05 3.15 0.25 3.85 0.45 1.05 0.35 0.95 0.40 -0.75 0.35 -1.10 0 -3.05 -0.10 -4.35 -0.20z"/>
  <path d="M100.10 99.35 c-1.80 -1.90 -2.30 -4 -1.40 -5.80 0.75 -1.45 5.75 -5.30 6.20 -4.80 0.15 0.15 -0.80 1.20 -2.05 2.35 -2.75 2.60 -3.20 4.10 -2.20 7.15 0.45 1.25 0.75 2.25 0.65 2.25 -0.05 0 -0.60 -0.50 -1.20 -1.15z"/>
  <path d="M141.50 73.75 c0 -0.70 0.25 -1.25 0.50 -1.25 0.30 0 0.50 0.55 0.50 1.25 0 0.70 -0.20 1.25 -0.50 1.25 -0.25 0 -0.50 -0.55 -0.50 -1.25z"/>
  <path d="M0.25 59.50 c0.15 -0.25 1.50 -0.50 2.95 -0.50 2.95 0 8.85 -1.75 13.25 -3.95 6.85 -3.40 15.75 -8.80 18.20 -11.05 5.70 -5.20 10.15 -13.65 12.30 -23.25 0.80 -3.65 0.85 -4.50 0.25 -8.85 -0.40 -2.65 -1.25 -6.35 -1.95 -8.20 -1.35 -3.60 -1.35 -5.10 0 -1.90 1.20 2.80 2.75 9.05 2.75 11.05 0 1 0.25 1.65 0.65 1.65 0.35 0 2.30 -1.65 4.35 -3.65 2.50 -2.40 4.90 -4.15 7.25 -5.30 3.65 -1.75 7.90 -4.45 8.15 -5.15 0.10 -0.20 0.55 -0.40 1 -0.40 0.60 0 0.30 0.50 -0.90 1.50 l-1.75 1.50 1.95 -0.80 c1.20 -0.50 2.95 -0.70 4.50 -0.60 1.55 0.10 2.75 -0.05 3.05 -0.40 0.30 -0.35 1.95 -0.75 3.75 -0.90 3.70 -0.35 3.20 0.35 -0.65 0.90 -2.75 0.40 -2.65 0.90 0.50 2.40 3.10 1.45 7 7.35 8.95 13.65 1.30 4.05 1.45 5.15 1.40 11.25 -0.05 6.20 -0.15 7 -1.45 10.20 -1.90 4.65 -6.15 9.20 -10.65 11.40 -3.10 1.55 -3.65 1.65 -8.15 1.60 -2.65 -0.05 -5.30 -0.35 -5.85 -0.65 -0.60 -0.30 -1.60 -1.55 -2.20 -2.70 -0.65 -1.15 -2.55 -3.45 -4.30 -5.05 -2.85 -2.70 -3.35 -3 -5.75 -3.20 -3.30 -0.25 -4.90 0.90 -6.25 4.50 -1.10 2.95 -2.10 3.70 -2.10 1.55 0.05 -2.05 1.65 -5.30 3.30 -6.60 1.30 -1 1.90 -1.10 5.45 -0.95 l4 0.15 0.25 -2.60 c0.30 -2.90 1.40 -4.40 3.85 -5.45 3.85 -1.65 7.50 -0.40 9.15 3.15 1.45 3.05 1.30 4.95 -0.45 6.70 -1.55 1.50 -2.95 1.80 -4.60 0.95 -1.60 -0.90 -1.05 -1.50 1.30 -1.50 2 0 2.35 -0.15 2.80 -1.35 0.75 -1.90 0 -4.60 -1.55 -5.75 -1.05 -0.75 -1.75 -0.85 -3.50 -0.60 -3.20 0.50 -4.50 2 -4.50 5.20 0 2.35 0.20 2.75 2.35 5.05 3.35 3.55 4.60 4.10 8.85 3.85 11.30 -0.75 17.35 -11.30 14.60 -25.45 -1.05 -5.25 -4.40 -12.35 -7.55 -15.85 -3.05 -3.40 -4.60 -3.70 -9.25 -1.90 -4.35 1.70 -5.15 2.60 -3.20 3.35 3.05 1.15 6.70 5.65 6.70 8.35 0 2.30 -3.15 7.50 -4.75 7.90 -1.40 0.35 -3.85 -0.35 -4.15 -1.20 -0.10 -0.35 0.80 -0.60 2.50 -0.70 2.35 -0.15 2.75 -0.30 3.75 -1.85 1.55 -2.30 1.45 -4.70 -0.20 -7.35 -2.40 -3.75 -6.35 -5.10 -10.25 -3.45 -1.65 0.65 -5.95 5.10 -8.95 9.25 -0.70 0.95 -1.90 3.90 -2.65 6.50 -2.45 8.70 -8.10 17.95 -13.40 21.95 -2.70 2 -12.45 7.70 -17.40 10.10 -4 1.95 -10.95 3.95 -13.70 3.95 -1.45 0 -2.25 -0.20 -2.05 -0.50z m76.60 -9.60 c4.10 -1.50 9.60 -7 11.10 -11.05 1.50 -4.10 2.20 -9.45 1.80 -13.60 -0.80 -8.30 -5.30 -17.55 -10.10 -20.70 -3.20 -2.15 -3.65 -1.95 -1.30 0.60 4.65 5.05 7.60 13.45 7.70 22.10 0.10 6.15 -0.35 8.20 -2.80 12 -3.25 5.05 -7.10 7.50 -12.65 8.05 -4.25 0.45 -5.35 0.05 -8.90 -3.40 l-3.20 -3.05 0 -2.95 c0 -3.80 0.55 -4.75 3.40 -6 1.30 -0.55 2.05 -1.10 1.75 -1.25 -1.05 -0.40 -3.90 0.80 -5.10 2.05 -1.10 1.20 -1.30 2.50 -1.10 8.70 0.05 0.75 1.20 2 3.55 3.95 1.95 1.60 3.50 3.25 3.50 3.75 0 0.50 0.50 1 1.15 1.15 4.60 1 7.95 0.90 11.20 -0.35z m-28.75 -9.70 c1.15 -0.65 1.15 -0.65 0.05 -0.70 -0.70 0 -1.40 0.60 -2.10 1.80 -1.30 2.20 -1.35 2.95 -0.10 1 0.55 -0.80 1.50 -1.75 2.15 -2.10z"/>
  <path d="M160 59.45 c-6.45 -1.90 -7.75 -2.65 -12.15 -6.95 -2.45 -2.30 -4.95 -5.15 -5.60 -6.25 -1.25 -2.15 -2.70 -6.75 -4 -12.90 -0.95 -4.20 -3.05 -8.75 -5.15 -11 -0.75 -0.75 -2.60 -2.10 -4.10 -2.95 -2.45 -1.40 -3.20 -1.55 -7 -1.55 -7.30 -0.05 -11.35 2.30 -14.85 8.60 -1.65 2.95 -1.80 3.50 -1.80 7.25 0.05 5.10 0.85 7.05 4.35 10.55 l2.75 2.75 3.90 0 c2.65 -0.05 4.20 -0.25 4.85 -0.75 2 -1.50 4.30 -0.65 4.30 1.60 0 2.30 -1.30 4.45 -3.30 5.40 -2.40 1.15 -7.80 0.80 -10.95 -0.75 -3.55 -1.75 -7.20 -4.90 -8.50 -7.45 -3.30 -6.55 -3.60 -14.10 -0.85 -20.60 2.90 -6.75 6 -9.35 13.95 -11.50 2.15 -0.60 4 -1.15 4.10 -1.25 0.10 -0.05 -1.10 -2.60 -2.65 -5.65 -2.90 -5.70 -3.05 -6.05 -2.40 -6.05 0.20 0 0.70 0.85 1.05 1.85 0.35 1.05 1.65 3.55 2.90 5.60 1.20 2 2.15 4 2.05 4.45 -0.10 0.50 -1.30 1 -3.65 1.45 -8.05 1.65 -11.95 4.70 -14.70 11.55 -1.90 4.85 -2.30 8.05 -1.55 12.50 1.50 8.95 6.95 14.60 15.05 15.65 3.10 0.40 3.90 0.30 5.75 -0.50 1.60 -0.75 2.25 -1.35 2.50 -2.40 0.15 -0.75 0.40 -1.75 0.50 -2.20 0.15 -0.45 -0.15 -1.10 -0.55 -1.45 -0.65 -0.55 -1.15 -0.50 -2.95 0.40 -1.55 0.80 -3.10 1.10 -5.35 1.10 l-3.15 0 -3.55 -3.60 c-4 -4.10 -4.75 -5.90 -4.75 -11 0 -2.60 0.30 -3.85 1.50 -6.20 3.45 -6.95 7.70 -9.75 15.25 -10.10 4.30 -0.20 4.65 -0.10 7.50 1.40 3.95 2.10 4.95 3.10 7.25 7 1.45 2.45 2.30 4.90 3.45 10 2.15 9.15 3.25 11.35 7.85 15.70 4.70 4.40 6.50 5.55 10.95 6.85 6.50 2 18.70 0.45 25.10 -3.15 1.15 -0.65 3.85 -2.15 6 -3.35 2.15 -1.20 5.05 -2.80 6.40 -3.60 6.50 -3.60 12.05 -10.70 15.40 -19.60 3.15 -8.25 3.45 -10.25 2.55 -16.35 -0.40 -2.95 -1.30 -6.65 -2.05 -8.40 -0.70 -1.70 -1.20 -3.25 -1.05 -3.35 0.65 -0.65 3.35 7.90 3.90 12.35 0.75 5.75 0.45 7.50 -2.65 15.65 -3.25 8.70 -6.35 13.25 -11.85 17.45 -3.10 2.35 -14.85 9.15 -19 10.95 -5.70 2.50 -16.95 4 -21 2.80z"/>
  <path d="M0 51.50 c0 -0.30 1.70 -0.50 4.15 -0.50 11.55 -0.05 21.80 -3.80 29.45 -10.90 5.90 -5.50 9.25 -11.75 10.40 -19.50 1.05 -6.90 0.25 -12.60 -2.75 -19.75 -0.20 -0.45 -0.15 -0.85 0.10 -0.85 0.80 0 3.15 7.70 3.60 11.75 0.55 4.50 -0.25 10.85 -2 16.15 -1.10 3.35 -5.30 9.40 -8.75 12.70 -3.30 3.10 -10.40 7.15 -15.35 8.80 -5.90 1.95 -18.85 3.40 -18.85 2.10z"/>
  <path d="M170.45 51.80 c-0.10 -0.10 -2.20 -0.30 -4.70 -0.45 -8.25 -0.60 -15.10 -3.25 -19.70 -7.60 -4.80 -4.60 -6.60 -10.45 -4.60 -15 1.30 -2.90 1.30 -3.25 0.15 -3.25 -1.10 0 -2.10 -0.95 -2.10 -2 0 -1.30 -2.75 -4.85 -5.05 -6.50 -1.15 -0.80 -3.40 -1.85 -5 -2.30 -1.60 -0.45 -3.25 -1.20 -3.70 -1.70 -1.55 -1.70 -3.10 -13 -1.75 -13 0.30 0 0.50 1.45 0.50 3.40 0 3.45 1 8.15 2 9.30 0.30 0.40 1.60 0.95 2.90 1.30 1.30 0.30 3.30 1.15 4.50 1.80 2.30 1.35 5.95 5.60 6.40 7.50 0.40 1.65 1.50 1.50 3.75 -0.50 1.85 -1.70 4.55 -2.80 6.90 -2.80 0.65 0 2.40 0.80 3.90 1.80 3.20 2.10 4.70 4.95 4.85 9.05 0.05 3 -0.95 4.45 -4.25 5.90 -2.95 1.35 -3 0.45 -0.05 -2.10 2.25 -1.95 2.60 -2.50 2.60 -4.10 0 -2.30 -1.80 -5.90 -3.65 -7.25 -2.70 -2 -9.50 -0.80 -10.75 1.85 -2.50 5.55 -2.70 6.25 -2.35 8.40 0.90 5.70 5.05 11.10 10.40 13.65 7.40 3.50 19.35 4.70 28.25 2.85 9.40 -1.95 13.30 -3.95 20.35 -10.25 4.65 -4.20 7.20 -8.05 9.05 -13.60 1.30 -4.05 1.45 -5.05 1.45 -11.45 0 -6.85 -0.05 -7.05 -1.65 -10.65 -0.95 -2.05 -1.60 -3.80 -1.45 -3.90 0.10 -0.10 0.90 1.30 1.75 3.15 2.15 4.75 2.80 9.45 2.10 15.25 -1.10 9.15 -3.45 14.40 -9 19.95 -7.70 7.70 -14.45 11 -25.75 12.70 -5.50 0.80 -5.95 0.85 -6.30 0.55z m-12.45 -17.55 c1.25 -1.50 0.15 -1.25 -1.30 0.30 -1.10 1.20 -1.20 1.45 -0.40 1.05 0.55 -0.30 1.35 -0.90 1.70 -1.35z m-5.10 -13.10 c-0.65 -0.80 -2.60 -0.75 -4.90 0.05 -1.65 0.60 -1.60 0.65 1.85 0.60 2.80 -0.05 3.45 -0.20 3.05 -0.65z"/>
  <path d="M48 50.80 c0 -0.40 0.65 -0.80 1.50 -0.90 1.80 -0.25 2.10 0.80 0.40 1.30 -1.65 0.40 -1.90 0.40 -1.90 -0.40z"/>
  <path d="M212.35 50.70 c-0.65 -0.65 0.25 -1.20 1.95 -1.20 1.20 0 1.70 0.20 1.60 0.65 -0.25 0.65 -3 1.10 -3.55 0.55z"/>
  <path d="M210.30 44.50 c1 -1.95 2.55 -4.10 3.35 -4.80 1.40 -1.15 1.85 -1.30 4.35 -1.05 1.50 0.15 3.25 0.40 3.90 0.60 1.05 0.35 1.10 0.20 1.10 -1.90 0 -2.75 0.40 -3.85 1.30 -3.85 0.50 0 0.70 0.75 0.70 2.75 0 2.10 -0.15 2.75 -0.75 2.75 -0.45 0 -0.75 0.45 -0.75 1.25 0 0.80 0.30 1.25 0.75 1.25 0.40 0 0.75 0.35 0.75 0.75 0 1.15 -1.40 0.90 -2.90 -0.60 -0.95 -0.95 -2 -1.40 -3.70 -1.55 -2.85 -0.25 -3.25 0 -6.05 4.15 -1.10 1.65 -2.25 3.15 -2.55 3.35 -1.35 0.95 -1.20 0.15 0.50 -3.10z m2.70 -2.35 c0.95 -1.35 1.25 -2 0.70 -1.55 -0.90 0.80 -2.95 3.90 -2.55 3.90 0.10 0 0.95 -1.05 1.85 -2.35z"/>
  <path d="M60.60 19.40 c-1.15 -1.15 -0.60 -4.90 0.70 -4.90 0.50 0 0.60 0.60 0.35 2.65 -0.35 3.05 -0.30 3 -1.05 2.25z"/>
  <path d="M176.25 15.05 c-2.05 -1.20 -4.70 -4.30 -5.80 -6.75 -1 -2.20 -1.35 -8.30 -0.45 -8.30 0.30 0 0.50 1.40 0.50 3.25 0 4 0.75 5.90 3.45 8.50 2.40 2.25 2.55 1.85 0.80 -2.25 -0.95 -2.30 -1.25 -3.75 -1.20 -6.35 l0.10 -3.40 0.35 3.50 c0.30 2.65 0.90 4.65 2.45 7.75 1.10 2.30 1.90 4.35 1.65 4.60 -0.20 0.20 -1.05 -0.05 -1.85 -0.55z"/>
  <path d="M8.95 14.25 c-3.65 -2.70 -5.95 -7.05 -5.95 -11.35 0 -1.60 0.20 -2.90 0.45 -2.90 0.25 0 0.40 1.45 0.40 3.15 -0.05 2.55 0.20 3.65 1.25 5.40 1.35 2.30 4.20 5.30 4.65 4.90 0.10 -0.15 -0.45 -1.65 -1.25 -3.40 -1.25 -2.65 -1.50 -3.70 -1.40 -6.70 l0.05 -3.60 0.35 3.75 c0.25 2.95 0.75 4.55 2.20 7.45 2.10 4.15 1.90 5.20 -0.75 3.30z"/>
  <path d="M216.50 14.60 c0 -1.05 6.30 -7.10 7.45 -7.10 0.60 0 1.05 0.30 1.05 0.75 0 0.45 -0.45 0.75 -1.05 0.75 -0.60 0 -1.80 0.75 -2.70 1.65 -3.70 3.60 -4.75 4.50 -4.75 3.95z"/>
  <path d="M139.25 10.50 c-1.95 -0.70 -2.50 -2 -2.75 -6.35 -0.15 -2.25 -0.10 -4.15 0.05 -4.15 0.65 0 0.90 2.30 0.65 4.80 -0.30 2.20 -0.15 2.70 0.95 3.95 1.20 1.45 1.35 1.45 3.40 0.90 1.20 -0.30 3.20 -0.45 4.45 -0.35 2.15 0.25 2.30 0.20 3 -1.35 0.40 -0.90 1.55 -2.05 2.50 -2.60 2.45 -1.30 3.05 -2.20 2.45 -3.70 -0.60 -1.60 -0.60 -1.65 0.25 -1.65 0.75 0 1.30 1.05 1.30 2.50 0 0.95 -1.85 2.70 -4.45 4.10 -0.90 0.50 -1.55 1.25 -1.55 1.80 0 1.60 -1.10 2.10 -3.85 1.75 -1.40 -0.15 -3.20 -0.05 -4 0.20 -0.75 0.30 -1.85 0.35 -2.40 0.15z"/>
  <path d="M118.65 4.40 c-0.50 -0.65 -1.65 -3.75 -1.65 -4.35 0 -0.15 0.35 0.15 0.75 0.65 0.65 0.85 0.75 0.90 0.75 0.15 0 -0.45 0.25 -0.85 0.50 -0.85 0.30 0 0.50 1.15 0.50 2.50 0 2.65 -0.10 2.85 -0.85 1.90z"/>
  <path d="M142.10 4.40 c0.30 -0.80 2.80 -1.30 4.40 -0.90 1.20 0.30 1.20 0.30 -0.45 0.90 -2.25 0.80 -4.20 0.80 -3.95 0z"/>
 </g>
</svg>
