<?xml version="1.0" encoding="utf-8"?>
<!DOCTYPE svg PUBLIC "-//W3C//DTD SVG 1.0//EN" "http://www.w3.org/TR/2001/REC-SVG-20010904/DTD/svg10.dtd">
<svg version="1.0" xmlns="http://www.w3.org/2000/svg" width="263px" height="178px" viewBox="0 0 263 178" preserveAspectRatio="xMidYMid meet">
 <g fill="#4a3b2f">
  <path d="M14.25 174.40 c-0.20 -2 -0.25 -9.40 -0.15 -16.40 0.15 -12 0.25 -12.90 1.25 -14.80 1.40 -2.60 3.60 -4.50 6.05 -5.20 1 -0.25 6.30 -0.50 11.80 -0.50 l9.95 0 -0.35 -1.60 c-0.45 -2.35 -1.65 -3.90 -3.65 -4.70 -1.50 -0.65 -3.20 -0.65 -11.80 -0.20 -8.35 0.50 -10.50 0.45 -12.35 -0.10 -2.75 -0.85 -4.50 -3.15 -4.50 -5.95 l0 -1.95 -3.35 0 c-1.90 0 -4.25 -0.15 -5.30 -0.30 -1.70 -0.30 -1.85 -0.45 -1.85 -2.05 l0 -1.75 4.90 0.20 4.95 0.15 0.30 -14.50 c0.20 -7.95 0.50 -15.70 0.65 -17.10 l0.35 -2.65 -5.60 0 -5.55 0 0 -1.75 c0 -1.70 0.05 -1.75 1.90 -1.75 1.10 0 3.65 -0.15 5.75 -0.30 l3.75 -0.35 0.60 -4.30 c1.25 -9.10 2.45 -11.40 7.15 -13.55 2.70 -1.25 4.05 -1.50 10.70 -1.95 5.05 -0.35 8.10 -0.75 9.10 -1.30 2.45 -1.25 3.25 -3.35 3.15 -8.20 -0.05 -2.30 -0.20 -4.35 -0.35 -4.55 -0.10 -0.20 -2.85 -0.50 -6.10 -0.70 -3.25 -0.15 -10.40 -0.65 -15.90 -1.05 -5.50 -0.40 -12.20 -0.75 -14.85 -0.75 l-4.90 0 0 -2 0 -2 3.65 0 c1.95 0 8.90 0.35 15.35 0.75 6.45 0.40 14.20 0.90 17.20 1.10 l5.45 0.30 -0.30 -6.15 c-0.20 -3.40 -0.35 -7.10 -0.35 -8.25 l0 -2.10 -3.65 -0.25 c-4.70 -0.30 -7.60 -1.80 -9.25 -4.75 -1.50 -2.75 -2.20 -8.95 -1.80 -15.80 l0.35 -5.35 1.80 0 1.80 0 0 7.40 c0 6.85 0.10 7.50 1.25 9.85 1.45 2.90 3.35 4.15 6.95 4.60 l2.55 0.30 0 -2.95 c0 -2.65 -0.35 -6.50 -1.30 -16.05 l-0.35 -3.15 2 0 2 0 0.55 5.65 c0.35 3.05 0.75 8 0.90 11 l0.35 5.35 2.55 0 c1.40 0 3.70 0.15 5.10 0.30 l2.55 0.30 0.35 -1.90 c0.60 -3.25 2.55 -6.95 4.45 -8.40 3.50 -2.70 4.65 -2.80 27.95 -2.80 l21.40 0 0 -3.60 c0 -5.30 0.25 -5.90 2.35 -5.90 l1.75 0 -0.20 4.60 -0.15 4.65 7.75 -0.15 c4.25 -0.10 7.80 -0.25 7.90 -0.35 0.10 -0.10 0.35 -2.10 0.45 -4.45 l0.30 -4.30 1.65 0 1.70 0 0 4.70 0 4.65 3.15 0.65 c4.55 0.85 9 3.15 11.05 5.65 3.05 3.75 3.60 6.20 4.25 19.30 0.60 10.85 1.25 13.65 3.95 16.50 2.65 2.80 5.10 3.20 16.85 2.80 11.40 -0.35 12.60 -0.50 12.85 -1.65 0.10 -0.45 0.10 -5.40 -0.05 -10.90 -0.25 -9.15 -0.40 -10.20 -1.30 -11.20 -0.85 -0.95 -1.35 -1.05 -3.50 -0.80 -7.50 0.95 -9.05 0.95 -11 0.05 -3.90 -1.90 -4.65 -5 -6.05 -25.10 l-0.35 -4.65 2 0 1.95 0 0.90 10 c1.05 11.70 1.30 12.95 3.40 15 1.25 1.25 1.85 1.50 2.85 1.25 0.70 -0.20 3.60 -0.45 6.40 -0.60 l5.10 -0.25 1.45 1.45 1.45 1.40 0.35 12.50 c0.20 6.85 0.45 12.55 0.50 12.65 0.10 0.05 1.85 -0.20 3.85 -0.65 4.65 -0.95 7.75 -2.85 9.65 -5.90 1.40 -2.30 1.45 -2.60 2.35 -15.25 0.90 -12.40 0.75 -22.60 -0.35 -29.70 l-0.30 -1.90 2.05 0 c2 0 2 0 2.40 2.40 0.55 3.35 0.50 25.25 -0.15 35.40 -0.45 7.70 -0.65 8.85 -1.90 11.35 -2.25 4.60 -6.25 6.85 -13.85 7.85 -2.30 0.25 -4.25 0.50 -4.30 0.50 -0.10 0 -0.15 1 -0.15 2.25 0 1.20 -0.45 3.45 -1.05 5 -0.85 2.30 -1.35 2.95 -3.05 3.80 l-2.05 1.05 0.30 3.20 c0.35 4.85 0.40 4.90 8.10 4.55 3.55 -0.20 11.45 -0.70 17.50 -1.10 6.05 -0.40 15.10 -0.75 20.15 -0.75 l9.10 0 0 -1.35 c0 -0.80 -0.45 -4.75 -1 -8.90 -0.55 -4.10 -1 -8.35 -1 -9.35 l0 -1.90 -2.35 0 c-3.40 0 -5.90 -0.85 -7.95 -2.60 -3.30 -2.90 -4.30 -6.25 -5.20 -17.65 -0.30 -3.85 -1.15 -12.30 -1.80 -18.75 -1.60 -15.60 -1.65 -15 0.55 -15 1.40 0 1.80 0.20 2 1.10 0.50 2.35 1.90 16.55 2.75 27.65 0.55 7.75 1.60 14.05 2.65 16.10 0.75 1.45 4 4.65 4.75 4.65 0.20 0 1.15 0.20 2.15 0.45 l1.80 0.40 -0.25 -9.60 c-0.20 -8.80 -0.15 -9.90 0.85 -13.15 0.85 -2.90 1.45 -3.85 3.30 -5.50 3.45 -3 5.95 -3.60 15.80 -3.60 l8.45 0 0 2 0 1.95 -7.40 -0.10 -7.40 -0.10 -3.25 1.60 c-2.80 1.40 -3.50 2 -4.75 4.25 l-1.45 2.65 0 9.10 c0 5 0.10 9.20 0.25 9.35 0.15 0.15 1.50 -0.05 3 -0.45 1.50 -0.40 4.45 -0.75 6.55 -0.75 3.05 0 4.05 0.20 5.10 1 2.30 1.85 3.15 7.05 2.35 14.50 -0.25 2.60 -0.65 6.25 -0.80 8.15 l-0.35 3.35 4.10 0 4.05 0 0 2 0 2 -4.20 0 -4.15 0 -0.30 3.10 c-0.15 1.70 -0.15 3.30 -0.05 3.50 0.15 0.20 2.15 0.40 4.50 0.40 l4.20 0 0 1.75 0 1.75 -4.50 0 -4.50 0 0 13.40 c0 7.35 0.15 16.55 0.35 20.50 l0.30 7.10 4.20 0 4.15 0 0 1.70 0 1.70 -4.20 0.35 -4.25 0.35 0.10 13.05 c0.10 14.85 -0.05 15.80 -3.50 18.05 -2.55 1.70 -5.30 2.25 -12.40 2.60 -3.30 0.15 -6.65 0.35 -7.50 0.45 l-1.50 0.25 0.15 4.50 0.15 4.50 -1.70 0 c-1.55 0 -1.75 -0.20 -2.05 -1.55 -0.15 -0.85 -0.30 -2.80 -0.30 -4.25 0 -1.85 -0.20 -2.70 -0.60 -2.70 -0.35 0 -3.35 0.35 -6.65 0.75 -9.75 1.15 -29.90 1.95 -34.35 1.35 -7.20 -0.95 -9.90 -3.35 -9.90 -8.75 0 -2.95 0 -3 -1 -2.10 -1.75 1.60 -3 6 -3.35 11.80 l-0.30 5.45 -1.75 0 -1.70 0 0.20 -7.35 c0.15 -6.35 0.35 -7.75 1.30 -9.90 1.35 -2.90 3.60 -5.40 5.65 -6.30 1.15 -0.45 1.45 -0.90 1.45 -2.15 0 -2.20 -1.70 -4.70 -3.90 -5.70 -2.10 -0.90 -8.35 -1.10 -17.20 -0.40 -4.80 0.35 -5.40 0.50 -5.40 1.35 0 2.15 -2.10 6.45 -3.90 7.95 -2.65 2.20 -5.50 2.60 -16.55 2.40 l-9.70 -0.15 0.30 10.15 0.30 10.10 -1.90 0 -1.90 0 -0.30 -5.60 c-0.20 -3.10 -0.35 -7.70 -0.35 -10.25 l0 -4.60 -2.85 -0.30 c-1.60 -0.20 -5.60 -0.65 -8.90 -1.10 -3.30 -0.40 -9.15 -0.75 -13 -0.80 -6.20 -0.10 -7.25 0 -9.30 0.95 -5.20 2.40 -7.15 8.50 -5.20 16.45 1.20 4.95 1.10 5.25 -1.45 5.25 l-2.20 0 -0.60 -4.95 c-1.60 -12.40 0.75 -18.75 7.60 -20.80 4.65 -1.35 19.60 -0.90 33.80 1 l2.10 0.30 0 -2.40 c0 -3.20 1.70 -6.55 4 -7.90 1.65 -0.95 2.60 -1 14.20 -1 l12.40 0 -0.30 -3.25 c-0.15 -1.80 -0.30 -3.75 -0.30 -4.35 l0 -1.15 -14.95 0 -14.95 0 -1.30 1.70 c-1.80 2.35 -6.70 4.70 -11.85 5.60 -3.55 0.65 -8.05 0.70 -29.30 0.40 l-25.15 -0.35 0 18.60 0 18.55 -2 0 -1.95 0 0.10 -18.35 0.10 -18.40 -7.50 -0.15 c-9.45 -0.15 -12.35 0.40 -14.80 2.85 -1.05 1.05 -2.15 2.80 -2.50 4.05 -0.80 2.65 -0.95 20.05 -0.25 26.15 l0.45 3.85 -2.05 0 -2 0 -0.35 -3.60z m189 -6.85 c4.40 -0.25 11.25 -0.85 15.20 -1.35 l7.20 -0.90 -0.30 -4.05 c-0.15 -2.20 -0.75 -5.50 -1.30 -7.30 -2.25 -7.10 -8.70 -11.45 -17.15 -11.45 l-2.90 0 0 4 c0 2.15 -0.25 4.50 -0.55 5.15 -1.20 2.65 -4.30 3.55 -15.65 4.60 -4.95 0.45 -8.20 0.95 -8.60 1.35 -0.60 0.60 -0.85 2.35 -0.75 4.75 0.10 1.80 2.45 4.10 4.95 4.85 2.70 0.85 8.50 0.95 19.85 0.35z m40.40 -3.80 c3.45 -0.90 6.05 -2.75 6.80 -4.85 0.35 -0.95 0.55 -6.05 0.55 -12.70 l0 -11.20 -8.70 0 c-8.80 0 -15.55 -0.85 -18.25 -2.25 -2.30 -1.20 -4 -3.45 -4.70 -6.25 l-0.70 -2.75 -4.95 0 c-4.30 0 -5.15 0.15 -6.50 1.10 -2.45 1.75 -3.20 3.90 -3.20 9.10 l0 4.55 2.90 0 c4.05 0.05 10.25 1.25 12.85 2.50 3 1.45 6.45 5.40 7.75 8.85 0.60 1.65 1.25 5.25 1.60 8.85 l0.60 6.05 5.50 -0.15 c3.05 -0.10 6.85 -0.50 8.45 -0.85z m-104.85 -10.50 c1.05 -0.45 2.35 -1.15 2.90 -1.65 1.05 -0.95 3.05 -5.05 2.60 -5.45 -0.15 -0.15 -4.70 -0.30 -10.15 -0.35 -9.45 -0.05 -10 0 -12.05 1.10 -3.25 1.75 -4.90 6.30 -2.45 6.85 4.05 0.95 16.50 0.60 19.15 -0.50z m53.35 -1.50 c6.25 -1.10 8.35 -2.85 8.35 -7.10 l0 -2.15 -13.30 0 -13.35 0 1.70 1.15 c2.10 1.40 2.95 3.10 3.30 6.60 l0.30 2.75 4.55 -0.30 c2.50 -0.20 6.30 -0.60 8.45 -0.95z m-27.20 -9.75 c5.60 -0.05 5.75 -0.05 4.05 -0.80 -2.25 -1 -3.85 -2.50 -5.05 -4.80 l-0.95 -1.90 -3.65 -0.05 c-1.95 0 -5.25 -0.20 -7.20 -0.40 l-3.65 -0.35 0 4.50 0 4.45 5.35 -0.30 c2.90 -0.20 7.90 -0.35 11.10 -0.35z m25.95 -3.50 l9.60 0 0 -6.60 c0 -7.60 0.45 -8.85 3.80 -10.95 1.75 -1.05 2.65 -1.20 8.40 -1.40 l6.40 -0.15 -0.20 -3.65 c-0.45 -6.55 -3.30 -10.30 -9.35 -12.10 -3.20 -1 -10.75 -1.15 -20.20 -0.45 l-5.95 0.40 0.35 9.10 c0.45 11 0 13.95 -2.55 16.80 -2.05 2.25 -5.10 3.80 -8.45 4.25 -1.40 0.20 -2.90 0.45 -3.40 0.60 -0.90 0.25 -0.90 0.25 0 1.25 0.50 0.55 1.55 1.35 2.30 1.75 1.55 0.80 7 1.65 8.60 1.35 0.55 -0.10 5.35 -0.20 10.65 -0.20z m-90.90 -1.75 c2.05 -0.50 4.65 -1.35 5.75 -1.95 l2 -1.05 -14.75 -0.30 c-15.95 -0.30 -18.05 -0.60 -23.50 -3.35 -2.85 -1.45 -4.60 -3.45 -5.55 -6.55 -0.35 -1 -0.75 -6.75 -0.90 -12.80 l-0.30 -11 -10.05 -0.15 -10 -0.10 -1.20 1.25 c-1.20 1.30 -1.25 1.50 -1.05 8 0.15 7.05 -0.25 9.30 -2.05 11.90 -2.05 2.85 -3.15 3.10 -14 2.95 -5.45 -0.10 -9.90 0 -9.90 0.15 0 1 1.30 2.45 2.75 3.05 1.40 0.55 3.85 0.65 12.85 0.35 9.95 -0.25 11.35 -0.20 12.80 0.55 2.20 1.15 3.50 3.45 3.90 6.90 l0.35 2.90 18.05 0.15 c24.60 0.25 30.35 0.10 34.80 -0.90z m148.90 -5.75 l1.60 0 0 -20.75 0 -20.75 -4.25 0 -4.25 0 0 1.40 c0 0.75 0.25 5.75 0.55 11.20 0.85 14.70 0.25 17.30 -4.80 19.85 -2.15 1.05 -3.35 1.25 -8.60 1.45 -3.40 0.10 -6.15 0.30 -6.15 0.45 0 0.10 0.35 0.85 0.75 1.60 1.15 2.30 3.50 3.95 6.60 4.55 6.20 1.30 7.55 1.45 12.15 1.25 2.60 -0.15 5.50 -0.25 6.40 -0.25z m-87.05 -4.85 c-0.25 -2.45 -0.30 -8.75 -0.20 -14.05 0.25 -8.90 0.25 -9.65 -0.55 -9.40 -0.45 0.10 -1.95 0.35 -3.35 0.55 -4.75 0.65 -8.15 2.85 -9.55 6.10 -0.75 1.75 -0.95 11.95 -0.40 17.55 l0.35 3.05 2.80 0.20 c1.55 0.10 4.70 0.20 7.05 0.25 l4.30 0.10 -0.45 -4.35z m8.90 3.65 c6.10 -1.60 8.90 -4.70 9.35 -10.30 0.10 -0.95 -0.05 -5.05 -0.30 -9.10 l-0.40 -7.40 -3.15 0 c-1.70 0 -4.85 -0.15 -7 -0.35 l-3.85 -0.30 0.25 12.70 c0.15 7 0.45 13.30 0.60 14.10 0.40 1.55 0.95 1.60 4.50 0.65z m-58.60 -2.80 c0.60 -1.70 1.10 -5.15 1.30 -9 0.65 -11.15 2 -12.55 13.20 -13.80 7.90 -0.85 10.45 -1.90 12.05 -4.95 1 -1.90 1.05 -2.65 0.90 -15.50 -0.05 -7.40 -0.25 -15.15 -0.40 -17.20 l-0.30 -3.70 -7.80 0.35 c-4.45 0.20 -8.45 0.65 -9.35 1 -2.20 0.95 -3.60 2.75 -4.20 5.30 -0.75 3.25 -0.65 12.75 0.20 16.25 0.40 1.65 0.75 4.40 0.75 6.10 0 2.75 -0.15 3.30 -1.55 4.85 -0.90 1.05 -2.65 2.20 -4.35 2.85 -2.75 1.05 -3.35 1.05 -15.85 0.75 -7.15 -0.15 -16.80 -0.45 -21.50 -0.60 l-8.50 -0.35 0 9.20 c0.05 10.35 0.65 13.25 3.35 15.95 1.95 1.95 3.45 2.75 7.40 3.75 5.35 1.40 8.75 1.65 21.50 1.55 l12.25 -0.05 0.90 -2.75z m25 2.65 l6.85 -0.30 -0.35 -9.55 c-0.35 -11.35 0.10 -13.90 3.20 -16.95 2.20 -2.25 5.20 -3.25 11 -3.70 3.50 -0.25 4.15 -0.45 4.15 -1.15 0 -0.50 -0.35 -5.25 -0.80 -10.55 -1.05 -12.85 -0.85 -16.90 0.80 -18.75 2.05 -2.25 4.80 -3.20 9.15 -3.20 2.15 0 3.80 -0.20 3.65 -0.45 -0.65 -1.05 -5.50 -1.50 -18.25 -1.80 l-13.65 -0.35 0.30 6.70 c0.20 3.65 0.40 11.95 0.45 18.40 0.10 11.05 0.05 11.90 -0.95 14.05 -1.85 4 -4.20 5.05 -13.20 5.95 -10.15 0.95 -11.65 2.50 -12.20 12.25 -0.20 3.05 -0.55 6.35 -0.75 7.35 l-0.45 1.85 2.60 0.20 c4.90 0.35 11.70 0.35 18.45 0z m-104.65 -10.55 c1.10 -0.50 2.20 -1.70 2.95 -3.10 1.20 -2.15 1.25 -2.60 1.15 -9.80 l-0.15 -7.60 1.55 -1.25 c2.15 -1.85 3.90 -2.05 14.85 -1.65 l9.65 0.35 0 -5.80 c0 -6.25 0.50 -8.25 2.55 -10.05 1.85 -1.65 5 -2.65 10.05 -3.20 10.20 -1.15 13.40 -2.20 15.35 -4.90 1.50 -2.15 2 -5.15 2.05 -11.70 l0 -5.90 -5.10 0 c-2.85 0 -8.20 -0.35 -11.90 -0.70 -11.30 -1.15 -16.25 0.35 -19.05 5.80 -0.80 1.60 -0.95 3 -0.95 10.15 0 8.75 -0.25 10 -2.65 12.65 -2.20 2.40 -4.70 2.65 -21.90 2.30 l-15.85 -0.35 -0.35 4.20 c-0.55 6.30 -1 20.55 -0.85 26.05 l0.15 4.85 6.10 0.20 c3.35 0.05 7.10 0.20 8.35 0.25 1.35 0.05 2.95 -0.25 4 -0.80z m200 -0.10 c2.80 -0.75 5 -2.40 5.80 -4.25 0.55 -1.40 0.65 -3.75 0.40 -12.35 -0.15 -5.85 -0.35 -11.15 -0.50 -11.75 -0.20 -1.15 -0.30 -1.15 -9.35 -1.15 -15.85 0 -33.35 2.25 -39.05 5 -2.20 1.05 -5.25 4.20 -4.65 4.80 0.10 0.15 3.95 0 8.50 -0.30 8.25 -0.55 15.05 -0.20 19.45 1 3.35 0.95 6.55 3.50 8.05 6.45 1.25 2.50 1.35 3.20 1.35 8.20 l0 5.50 4.15 -0.35 c2.25 -0.20 4.90 -0.55 5.85 -0.80z m-51.75 -21.65 c0.90 -2.70 3 -5.20 5.30 -6.40 5.60 -2.85 26.35 -5.45 43.60 -5.45 l8.35 0 0 -3.15 0 -3.10 -10.35 0.15 c-5.75 0.05 -15.10 0.45 -20.85 0.90 -5.75 0.40 -13.85 0.85 -18 1 -9.70 0.40 -9.35 0.60 -9.85 -6.35 -0.20 -2.85 -0.40 -5.30 -0.40 -5.35 -0.05 -0.10 -2.40 -0.10 -5.25 0 -5.20 0.15 -5.25 0.15 -7.10 1.90 l-1.80 1.75 0.35 7 c0.20 3.85 0.55 9.60 0.70 12.75 l0.30 5.75 6.25 0.30 c8.55 0.35 8 0.45 8.75 -1.70z m-73.15 -1.05 c3.25 -0.75 5.05 -1.75 6.15 -3.50 0.75 -1.10 0.70 -1.60 -0.05 -5.65 -0.65 -3.55 -0.75 -5.95 -0.50 -12.65 0.40 -9.80 1.05 -11.85 4.50 -13.65 1.85 -0.95 2.95 -1.10 11.50 -1.25 l9.40 -0.20 -0.35 -3.30 c-0.50 -4.55 -1.45 -7.50 -3.05 -9.15 -0.75 -0.80 -1.55 -1.45 -1.75 -1.45 -0.15 0 -0.45 1.15 -0.55 2.55 -0.35 3.25 -1.65 4.95 -4.70 6.10 -2.20 0.85 -3.90 0.90 -17.10 0.75 l-14.60 -0.15 0 6 c0 14.50 -2.35 17.95 -13.05 19.25 -11.25 1.40 -14.25 2.35 -15.90 5.05 -1.20 1.95 -1.80 6.05 -1.30 8.90 l0.35 2.05 10.55 0.05 c5.85 0.05 12.95 0.25 15.85 0.45 8.55 0.55 11.60 0.50 14.60 -0.20z m142.90 -14.05 l0 -3.25 -4.25 0 -4.25 0 0 3.25 0 3.25 4.25 0 4.25 0 0 -3.25z m-205.45 -1.30 c1.45 -0.30 3.20 -1.10 4 -1.90 2.40 -2.10 2.90 -4.40 2.60 -11.80 -0.35 -8.50 0.35 -11.30 3.60 -14.15 3.35 -2.95 5.45 -3.40 16 -3.15 4.95 0.10 11.80 0.20 15.25 0.25 l6.25 0.05 0.45 -7.15 c0.60 -10.10 -0.50 -13.25 -5.15 -14.65 -1.55 -0.45 -28.45 -1.70 -28.85 -1.30 -0.05 0.05 -0.40 2.45 -0.65 5.25 -0.60 5.80 -1.45 8.15 -3.65 10.45 -1.55 1.60 -4.70 2.95 -7.60 3.25 l-1.40 0.15 -0.10 6.75 c-0.10 10.30 -0.65 10.85 -13.15 11.80 -7.30 0.55 -8.35 0.75 -10.75 2.05 -3.10 1.65 -4.65 4.05 -5.40 8.45 -0.30 1.65 -0.65 3.45 -0.75 4.10 l-0.25 1.10 9.60 0.05 c5.30 0.05 10.90 0.20 12.40 0.45 4.15 0.55 4.75 0.55 7.55 -0.05z m205.45 -6.50 c0.65 -1.05 2.05 -15.75 1.70 -17.95 -0.40 -2.50 -2.10 -4.50 -3.80 -4.50 -0.65 0 -2.90 0.40 -5 0.85 -3.30 0.75 -3.90 1.05 -3.90 1.90 0 1.30 2.05 19.30 2.30 20.20 0.20 0.55 1.05 0.60 4.30 0.35 2.25 -0.20 4.25 -0.55 4.40 -0.85z m-67.40 -11.50 c0.45 -0.65 1.05 -2.10 1.30 -3.20 l0.45 -2 -14.55 0 c-16.45 0 -16.65 -0.05 -19.40 -4 -2.10 -3.05 -2.90 -7.05 -3.40 -17.50 -0.50 -10.40 -1.10 -13.30 -3.45 -16.55 -1.55 -2.10 -5.75 -4.70 -9.10 -5.60 l-1.80 -0.50 -0.35 7.75 c-0.30 7.05 -0.10 13.45 0.50 17.45 0.15 1.20 0.65 1.75 2.10 2.40 4.35 2 5.40 3.85 6.55 11.95 l0.85 6.10 16 0.25 c14.95 0.25 16.10 0.30 18.25 1.30 1.30 0.60 2.75 1.65 3.25 2.40 1.10 1.45 1.55 1.45 2.80 -0.25z m-57.10 -12.95 c2.10 -1.10 2.70 -1.85 3.20 -4.30 l0.35 -1.60 -3.65 -0.30 c-5.95 -0.55 -7.90 -1.25 -10.45 -3.80 -3.75 -3.75 -5.60 -9.95 -6.20 -20.90 l-0.40 -6.15 -19.80 0.20 c-20.70 0.15 -21.80 0.30 -25.10 2.50 -1.65 1.10 -4.90 6.60 -4.25 7.20 0.15 0.15 6.05 0.45 13.15 0.70 19.65 0.60 21.05 0.95 23.20 5.30 1.15 2.30 1.20 2.85 1.10 11.35 -0.05 4.90 -0.25 9.30 -0.40 9.85 -0.30 0.90 0.20 0.95 10.60 1.10 13.95 0.25 16.25 0.10 18.65 -1.15z m-77.35 -8.70 c3.60 -1.55 5.60 -5.20 6.15 -11.30 l0.35 -3.35 -3.15 -0.30 c-1.75 -0.20 -4 -0.35 -5.05 -0.35 l-1.95 0 0 5.70 c0 7.15 0.40 10.30 1.35 10.30 0.35 0 1.40 -0.30 2.30 -0.70z m80.65 -2.85 c-0.15 -0.85 -0.30 -6.95 -0.30 -13.50 l0 -11.95 -8.05 0 -8.10 0 0.30 5.65 c0.55 10.05 3.50 17.35 8 19.70 1.55 0.75 4.75 1.50 7.05 1.60 1.35 0.05 1.40 -0.05 1.10 -1.50z"/>
 </g>
 <g fill="#110c08">
  <path d="M0 149.45 l0 -28.60 3.05 0.35 c1.70 0.15 4.40 0.30 6 0.30 l2.95 0 0 1.95 c0 2.80 1.75 5.10 4.45 5.90 1.75 0.50 4.25 0.50 12.30 0.05 9.55 -0.55 10.15 -0.50 12.05 0.40 2.30 1.10 3.55 3.35 3.80 6.70 l0.15 2.25 -11 0.25 c-11.75 0.25 -12.70 0.45 -15.05 3.10 -2.70 2.95 -2.90 3.90 -3.10 15.65 -0.20 11.60 0.20 19.25 0.95 19.25 0.30 0 0.35 -1.05 0.10 -2.60 -0.20 -1.45 -0.40 -7.80 -0.40 -14.15 0 -13.10 0.35 -14.95 3.20 -17.80 2.50 -2.55 5.20 -3 16.30 -2.85 l9 0.15 0 18.60 c0 10.20 0.15 18.75 0.40 18.95 0.20 0.20 0.35 -8.25 0.35 -18.80 l0 -19.15 25.15 0.35 c21.10 0.30 25.75 0.20 29.30 -0.40 5.15 -0.90 10.05 -3.20 11.85 -5.60 l1.30 -1.70 16.40 0 16.35 0 0.30 3.40 c0.20 1.85 0.35 4.50 0.35 5.85 l0 2.50 -12.35 0 c-11.55 0 -12.50 0.05 -14.15 1 -2.30 1.35 -4 4.70 -4 7.85 0 2.40 0 2.40 -1.60 2.40 -0.90 0 -5.45 -0.45 -10.15 -1 -10.45 -1.20 -20.55 -1.30 -24.15 -0.25 -4.85 1.45 -7.30 4.75 -7.95 10.75 -0.25 2.50 0.35 8.95 1.20 12.40 l0.25 1.10 -36.80 0 -36.80 0 0 -28.55z"/>
  <path d="M74.10 177.40 c0.15 -0.35 -0.05 -1.85 -0.45 -3.40 -0.35 -1.50 -0.65 -4.55 -0.65 -6.75 0 -11.95 4.85 -14.75 22.75 -13.30 6.20 0.45 19.90 2 20.05 2.20 0.05 0.05 0.25 4.60 0.40 10.10 0.20 5.50 0.50 10.15 0.70 10.35 0.20 0.20 0.30 -4.35 0.20 -10.05 l-0.20 -10.45 9.70 0.30 c11 0.30 13.75 -0.10 16.55 -2.45 1.80 -1.50 3.85 -5.80 3.85 -8.10 0 -1.05 0.20 -1.10 6.15 -1.35 11.30 -0.45 17.45 -0.25 19.45 0.60 2.70 1.20 3.90 3.45 3.90 7.20 0 2.90 -0.10 3.10 -1.45 3.65 -2.05 0.90 -4.35 3.40 -5.60 6.30 -0.95 2.10 -1.15 3.50 -1.25 9 l-0.10 6.50 0.40 -6.05 c0.55 -7.45 1.70 -10.90 4.50 -13.40 2.95 -2.65 3.30 -2.45 3.10 2.05 -0.15 3.40 0 4.10 1 5.65 2.65 3.95 7.45 4.80 22.85 4.05 9.55 -0.50 21.20 -1.55 25.95 -2.30 l1.60 -0.30 0.05 3.40 c0.05 1.85 0.25 4.10 0.50 4.90 0.25 0.95 0.35 -0.25 0.15 -3.35 l-0.20 -4.85 1.60 -0.25 c0.90 -0.15 4.35 -0.35 7.65 -0.50 7.10 -0.35 9.85 -0.90 12.40 -2.60 3.45 -2.25 3.60 -3.20 3.45 -18 l-0.10 -13.05 3.05 -0.35 c1.70 -0.15 3.95 -0.30 5 -0.30 l1.95 0 0 22.75 0 22.75 -94.55 0 c-73.75 0 -94.50 -0.15 -94.35 -0.60z"/>
  <path d="M182.05 168.75 c-2.80 -0.85 -4.45 -2.45 -5.10 -4.90 -0.60 -2.30 -0.10 -7.10 0.80 -7.85 0.35 -0.30 4.20 -0.85 8.55 -1.25 11.35 -1.05 14.45 -1.95 15.65 -4.60 0.30 -0.65 0.55 -3 0.55 -5.15 l0 -4 4.40 0 c13.35 0 19.35 6.10 19.95 20.25 l0.25 5.55 -7.15 0.90 c-13.75 1.75 -33.90 2.30 -37.90 1.05z"/>
  <path d="M227.60 160.30 c-0.35 -3.70 -1 -7.30 -1.60 -8.95 -1.30 -3.45 -4.75 -7.40 -7.75 -8.85 -2.60 -1.25 -8.80 -2.45 -12.85 -2.50 l-2.90 0 0 -6.05 c0 -6.80 0.55 -8.70 3.20 -10.60 1.40 -1 2.15 -1.10 8 -1.10 l6.45 0 0.70 2.75 c0.70 2.80 2.40 5.05 4.70 6.25 2.90 1.55 9.95 2.35 18.45 2.20 l8.25 -0.20 0.15 12.50 c0.10 7.75 -0.05 13.20 -0.40 14.30 -1.15 4.05 -5.65 5.70 -16.75 6.10 l-7.05 0.30 -0.60 -6.15z"/>
  <path d="M122.25 155.55 c-2.45 -0.15 -4.80 -0.50 -5.20 -0.75 -0.45 -0.30 -0.60 -1.05 -0.35 -2.60 0.50 -3.75 1.55 -5.55 3.90 -6.80 2.10 -1.10 2.55 -1.15 13.80 -1.10 6.40 0.05 11.75 0.15 11.90 0.30 0.45 0.50 -0.90 5.40 -1.95 7 -0.60 0.90 -2.20 2.20 -3.50 2.85 -2.10 1.05 -3.25 1.20 -8.25 1.30 -3.25 0.10 -7.85 0 -10.35 -0.20z"/>
  <path d="M177.40 152.10 c-0.35 -3.75 -1.20 -5.50 -3.30 -6.90 -2.35 -1.60 -5.50 -1.85 -16.95 -1.45 l-10.15 0.35 0 -5.55 c0 -3.05 0.05 -5.70 0.15 -5.90 0.10 -0.45 1.30 -0.45 10.50 0.10 l6.90 0.40 0.95 1.80 c1.15 2.30 2.75 3.75 5.25 4.90 1.75 0.80 3.85 0.90 16.65 1.05 l14.60 0.15 0 3.45 c0 4.30 -0.55 5.75 -2.60 7 -2.15 1.30 -5.30 1.90 -12.60 2.50 -3.35 0.30 -6.75 0.65 -7.60 0.80 l-1.55 0.30 -0.25 -3z"/>
  <path d="M174.65 140 c-3.35 -0.45 -4.75 -1.05 -6.55 -2.70 -1.05 -0.90 -2.60 -3.30 -2.60 -3.95 0 -0.15 1.85 -0.50 4.10 -0.85 4.95 -0.70 7.80 -2 10.10 -4.50 2.50 -2.80 2.90 -5.40 2.50 -16.55 l-0.35 -9.35 5.95 -0.40 c10.05 -0.75 20.05 -0.55 23.25 0.40 3.85 1.20 6.60 3.35 8 6.25 1 2.05 1.20 3.15 1.20 7.55 l0 5.15 -6.25 0.10 c-5.65 0.10 -6.45 0.20 -8.20 1.30 -3.35 2.10 -3.80 3.35 -3.80 10.95 l0 6.60 -8.85 0 c-4.90 0 -10.35 0.10 -12.15 0.20 -1.80 0.15 -4.65 0.05 -6.35 -0.20z"/>
  <path d="M63.70 139.15 l-18.05 -0.15 -0.35 -2.90 c-0.40 -3.45 -1.70 -5.75 -3.85 -6.90 -1.45 -0.75 -2.90 -0.80 -12.70 -0.45 -14.20 0.45 -15.20 0.10 -16.05 -5.25 l-0.35 -2.15 2.20 0.35 c1.20 0.15 5.80 0.35 10.20 0.40 8.80 0.05 10.25 -0.30 12.15 -2.95 1.90 -2.75 2.25 -4.95 1.90 -11.70 -0.35 -6.35 -0.35 -6.35 1 -7.90 l1.30 -1.55 11.60 0.10 11.55 0.15 0.30 11 c0.15 6.05 0.55 11.80 0.90 12.80 0.95 3.10 2.70 5.10 5.55 6.55 5.65 2.85 7.35 3.05 24.85 3.30 l16.15 0.15 -1.05 1.45 c-1.45 1.95 -5 3.75 -9.45 4.75 -4.35 1 -11.10 1.15 -37.80 0.90z"/>
  <path d="M233.95 132.55 c-8.60 -1.60 -10.30 -2.50 -12 -6.30 -1.85 -4.05 -1.80 -4.10 5.45 -4.35 5.55 -0.15 6.65 -0.35 8.85 -1.45 3 -1.50 4.55 -3.65 5 -6.85 0.15 -1.30 0.05 -6.05 -0.20 -10.60 -0.30 -4.55 -0.55 -9.75 -0.55 -11.60 l0 -3.40 5.75 0 5.75 0 0.10 21.90 c0.10 12 0.05 22 -0.10 22.20 -0.40 0.55 -15.45 0.90 -18.05 0.45z"/>
  <path d="M149.45 131.65 l-2.80 -0.20 -0.35 -3.05 c-0.50 -4.90 -0.35 -18.70 0.25 -20.25 0.65 -1.75 2.75 -4 4.65 -5 1.55 -0.80 8 -2.10 10.65 -2.15 l1.65 0 -0.15 11.15 c-0.05 6.10 0.10 13.05 0.30 15.50 l0.40 4.35 -5.90 -0.10 c-3.25 -0.05 -7.15 -0.15 -8.70 -0.25z"/>
  <path d="M164.75 130.65 c-0.20 -0.80 -0.45 -7.75 -0.60 -15.50 l-0.25 -14.15 3.40 0.05 c1.90 0.05 5.75 0.20 8.60 0.40 l5.15 0.30 0.35 7 c0.60 13.10 0.30 15.75 -2.25 18.80 -2.15 2.55 -7.10 4.45 -11.70 4.45 -2.15 0 -2.35 -0.10 -2.70 -1.35z"/>
  <path d="M252.85 124.90 c-0.20 -3.95 -0.35 -13.85 -0.35 -22 l0 -14.90 5.25 0 5.25 0 0 22 0 22 -4.90 0 -4.95 0 -0.30 -7.10z"/>
  <path d="M82.25 131 c-3.75 -0.50 -9 -1.85 -10.80 -2.80 -2.35 -1.20 -4.35 -3.60 -5.25 -6.30 -0.75 -2.20 -0.95 -4.45 -0.95 -13.25 l-0.05 -10.65 3 0 c1.70 0 11.20 0.25 21.15 0.60 17.10 0.55 18.30 0.55 21 -0.30 1.90 -0.60 3.55 -1.60 4.75 -2.80 2.15 -2.15 2.35 -3.40 1.15 -8.25 -0.85 -3.55 -1 -15.85 -0.20 -19.25 0.60 -2.60 2 -4.35 4.30 -5.30 1 -0.45 4.85 -0.80 10.80 -1 l9.25 -0.35 0.30 3.70 c0.15 2.05 0.35 10.45 0.45 18.70 0.10 14.40 0.05 15.10 -0.95 17 -1.60 3.05 -4.15 4.10 -12.05 4.95 -11.20 1.25 -12.55 2.65 -13.20 13.80 -0.20 3.85 -0.70 7.30 -1.30 9 l-0.90 2.75 -13.75 0.05 c-7.55 0.05 -15.10 -0.10 -16.75 -0.30z"/>
  <path d="M113.85 131.20 c-0.10 -0.15 0.10 -1.10 0.45 -2.20 0.75 -2.20 1.70 -9.45 1.70 -13.20 0 -1.50 0.40 -3.35 1.05 -4.60 1.45 -3 3.75 -4 10.95 -4.70 9 -0.90 11.35 -1.95 13.20 -5.95 0.95 -2.20 1 -2.95 0.85 -14.80 -0.05 -6.85 -0.30 -15.05 -0.45 -18.15 -0.20 -3.15 -0.20 -5.80 0.05 -5.95 0.80 -0.50 30.60 0.40 32.55 0.95 1.90 0.60 5.30 3.40 5.30 4.40 0 0.30 -1.85 0.40 -5 0.20 -5.70 -0.40 -8.35 0.30 -10.75 2.80 -1.90 1.95 -2 4.05 -1.05 15.95 0.45 5.30 0.80 10.70 0.80 12.05 l0 2.35 -4.15 0.30 c-5.80 0.45 -8.80 1.45 -11 3.70 -3.05 3.05 -3.55 5.60 -3.10 16.60 0.20 5.10 0.40 9.50 0.40 9.75 0.10 0.45 -31.35 0.90 -31.80 0.50z"/>
  <path d="M18.70 121.15 l-6.10 -0.20 -0.20 -5.35 c-0.25 -5.55 0.30 -22.60 0.90 -29.05 l0.35 -3.70 15.95 0.30 c17.30 0.30 19.60 0.05 21.75 -2.25 2.40 -2.65 2.65 -3.90 2.65 -12.65 0 -7.15 0.15 -8.55 0.95 -10.15 2.90 -5.65 8.40 -7.15 21.35 -5.90 4.35 0.45 10.10 0.80 12.80 0.80 l4.90 0 0 7.40 c-0.05 14.95 -1.30 16.25 -17.40 18.10 -5.05 0.55 -8.20 1.55 -10.05 3.20 -2.05 1.80 -2.55 3.80 -2.55 10.10 l0 5.85 -10.35 -0.40 c-11 -0.35 -12.35 -0.20 -14.50 1.85 -1.10 1 -1.10 1.35 -1 8.60 0.10 7.25 0.05 7.65 -1.15 9.80 -1.75 3.10 -3.75 4.05 -8.50 3.90 -2.05 -0.05 -6.50 -0.20 -9.80 -0.25z"/>
  <path d="M221 116.10 c0 -4.90 -0.15 -5.65 -1.35 -8.15 -3.15 -6.15 -10.75 -8.45 -24.55 -7.45 -3.50 0.25 -7.80 0.50 -9.55 0.50 l-3.15 0 0.30 -1.35 c0.60 -2.40 2.95 -5.30 5.40 -6.55 3.45 -1.75 12.90 -3.55 24.65 -4.60 8.20 -0.75 26.30 -0.75 26.75 0 0.35 0.60 1.15 17.60 1.10 23.15 -0.10 7.15 -4.55 9.80 -16.45 9.85 l-3.15 0 0 -5.40z"/>
  <path d="M3.90 120.65 l-3.90 -0.20 0 -18.40 0 -18.45 6.40 -0.20 c3.50 -0.10 6.40 -0.20 6.45 -0.15 0.10 0.05 -0.10 1.95 -0.40 4.30 -0.25 2.30 -0.60 10.75 -0.70 18.70 l-0.25 14.50 -1.85 0.05 c-1.05 0 -3.65 -0.05 -5.75 -0.15z"/>
  <path d="M170.50 100.55 l-6.25 -0.30 -0.30 -5.75 c-0.20 -3.15 -0.50 -9.55 -0.70 -14.25 l-0.35 -8.50 1.80 -1.75 1.85 -1.75 6.75 -0.15 c3.65 -0.10 6.70 -0.10 6.75 0 0 0.10 0.20 2.50 0.40 5.35 0.30 4.25 0.55 5.30 1.35 5.90 1.05 0.80 4.30 0.75 23.70 -0.60 5.65 -0.35 15.60 -0.80 22.15 -0.95 l11.85 -0.20 0 4.70 0 4.70 -8.35 0 c-17.25 0 -38 2.60 -43.60 5.45 -2.30 1.20 -4.40 3.70 -5.30 6.40 -0.65 1.85 -0.75 1.90 -3.10 1.95 -1.30 0 -5.20 -0.10 -8.65 -0.25z"/>
  <path d="M91.50 98 c-2.90 -0.20 -10 -0.40 -15.85 -0.45 l-10.60 -0.05 -0.35 -2.30 c-0.50 -3.30 0.05 -9.30 1.05 -11.15 1.55 -3 5.30 -4.30 15.65 -5.45 8.60 -1 12.05 -3.60 13.05 -10.05 0.30 -1.75 0.50 -3.30 0.45 -3.50 0 -0.15 0 -2.90 0.05 -6.10 l0.05 -5.75 14.65 0.20 c13.30 0.20 14.80 0.10 17.05 -0.70 3.10 -1.20 4.25 -2.75 4.75 -6.35 0.45 -3.30 0.60 -3.55 2.05 -3.10 2.15 0.70 4.45 3.30 5.25 5.85 0.60 2.05 1.45 8.40 1.50 11.15 0 0.30 -3.65 0.60 -9.50 0.75 -8.50 0.25 -9.70 0.40 -11.55 1.35 -3.25 1.75 -4.05 3.95 -4.45 12.40 -0.30 5.95 -0.15 7.80 0.70 12.20 1 5 1 5.30 0.15 6.70 -2.60 4.45 -8 5.40 -24.10 4.35z"/>
  <path d="M252.75 86.95 c-0.20 -0.30 -0.20 -2.55 0 -5 l0.35 -4.45 4.95 0 4.95 0 0 5 0 5 -4.95 0 c-3 0 -5.10 -0.20 -5.30 -0.55z"/>
  <path d="M240.40 82.65 c-0.10 -2.45 -0.15 -4.55 -0.05 -4.75 0.10 -0.25 2.80 -0.40 5.95 -0.40 l5.70 0 0 4.75 0 4.75 -5.70 0 -5.70 0 -0.20 -4.35z"/>
  <path d="M0 63 l0 -20 5.40 0 c2.95 0 10.30 0.35 16.35 0.80 6.05 0.40 13.35 0.95 16.25 1.10 l5.25 0.35 0.40 4 c0.65 6.90 -0.30 10.50 -3.20 12 -1 0.55 -4.05 0.95 -9.10 1.30 -6.65 0.45 -8 0.70 -10.70 1.95 -4.70 2.15 -5.90 4.45 -7.15 13.55 l-0.60 4.30 -3.75 0.35 c-2.10 0.15 -5 0.30 -6.50 0.30 l-2.65 0 0 -20z"/>
  <path d="M36 82.45 c-1.50 -0.20 -7 -0.35 -12.25 -0.35 l-9.50 0 -0.15 -1.25 c-0.25 -2.20 1.35 -9.85 2.50 -12 0.85 -1.50 1.95 -2.50 3.80 -3.50 2.40 -1.30 3.45 -1.50 10.75 -2.05 12.50 -0.95 13.10 -1.50 13.10 -11.80 l0 -6.75 1.50 -0.15 c4.70 -0.45 8.40 -2.95 10 -6.70 0.65 -1.60 1.70 -8.95 1.75 -12.05 0 -0.70 0.30 -0.80 1.90 -0.60 1 0.15 7.80 0.50 15.10 0.75 7.30 0.25 14.05 0.70 15.05 0.95 1 0.30 2.40 1.10 3.05 1.80 2.15 2.15 2.60 4.85 2.20 14.10 -0.20 4.55 -0.50 8.55 -0.60 8.90 -0.30 0.75 -5.50 0.65 -17.50 -0.35 -11.45 -0.90 -16.15 -0.15 -20 3.25 -3.20 2.80 -3.95 5.65 -3.50 13.65 0.45 7.15 -0.05 9.65 -2.40 12 -2.45 2.45 -7.50 3.20 -14.80 2.15z"/>
  <path d="M182.50 78.60 c-1.10 -0.85 -1.20 -1.45 -1.40 -5.75 l-0.20 -4.75 2 -1.05 c1.70 -0.85 2.20 -1.50 3.05 -3.80 0.60 -1.55 1.05 -3.80 1.05 -5 0 -1.25 0.05 -2.25 0.15 -2.25 0.05 0 2 -0.25 4.30 -0.50 7.60 -1 11.60 -3.25 13.85 -7.85 1.25 -2.50 1.40 -3.60 1.90 -11.35 0.60 -10.50 0.70 -26.65 0.15 -32.15 l-0.40 -4.15 5.70 0 5.70 0 1.30 13.15 c0.75 7.20 1.55 16.05 1.85 19.60 0.95 10.95 1.95 14.30 5.20 17.15 2.05 1.75 4.55 2.60 7.95 2.60 2.30 0 2.35 0 2.35 1.65 0 0.85 0.60 6.30 1.30 12 0.70 5.75 1.20 10.50 1.10 10.60 -0.05 0.10 -4.75 0.20 -10.40 0.30 -5.65 0.05 -12.85 0.30 -16 0.50 -3.15 0.20 -9.80 0.60 -14.75 0.90 -4.95 0.35 -10.25 0.70 -11.80 0.85 -2.25 0.20 -3.05 0.05 -3.95 -0.70z"/>
  <path d="M240.30 76.45 c-0.25 -0.90 -2.30 -19 -2.45 -21.90 l-0.10 -2.20 5.25 -1.20 c8.05 -1.90 10.20 -0.85 10.80 5.25 0.35 3.05 -1.10 18.45 -1.80 19.60 -0.20 0.35 -2.70 0.70 -5.90 0.85 -4.55 0.25 -5.60 0.15 -5.80 -0.40z"/>
  <path d="M253 75.85 c0 -0.35 0.35 -3.45 0.80 -6.85 1.40 -11.40 0.95 -16.45 -1.65 -18.50 -1.65 -1.30 -4.35 -1.30 -9.90 0.05 -2.40 0.55 -4.50 0.85 -4.70 0.70 -0.15 -0.20 -0.30 -5.20 -0.30 -11.15 l0 -10.85 1.45 -2.55 c2.65 -4.80 8.15 -6.55 18.70 -5.90 l5.60 0.30 0 27.70 0 27.70 -5 0 c-3.75 0 -5 -0.15 -5 -0.65z"/>
  <path d="M179.25 65.20 c-0.75 -1 -2.45 -2.30 -3.70 -2.90 -2.15 -1 -3.30 -1.05 -18.25 -1.30 l-16 -0.25 -0.85 -6.10 c-1.15 -8.10 -2.20 -9.95 -6.55 -11.95 -1.45 -0.65 -1.95 -1.20 -2.10 -2.40 -0.65 -4.20 -0.85 -11.35 -0.50 -19.55 l0.35 -9.10 2.55 0.45 c4.10 0.70 9.45 3.55 11.30 6.05 2.40 3.30 3 6.15 3.50 16.60 0.30 5.45 0.80 10.80 1.25 12.50 0.95 3.60 2.90 6.60 5.25 8 1.65 0.95 2.50 1 16.40 0.95 l14.60 -0.05 0 1.15 c0 3.05 -1.20 6.50 -2.75 8.05 -0.90 0.90 -2 1.65 -2.40 1.65 -0.40 0 -1.35 -0.80 -2.10 -1.80z"/>
  <path d="M157.75 55.30 c-3.10 -0.85 -5.45 -3.40 -6.55 -7 -0.45 -1.55 -0.95 -6.30 -1.25 -11.85 -0.65 -13.10 -1.20 -15.55 -4.25 -19.30 -2.05 -2.50 -6.50 -4.80 -11.05 -5.65 l-3.15 -0.65 0 -5.40 0 -5.45 16.45 0 16.40 0 0.30 3.40 c0.20 1.85 0.55 6.40 0.90 10.10 0.70 8.45 1.55 11.75 3.50 13.55 2 1.85 3.95 2.15 8.25 1.25 4.10 -0.85 6.75 -0.60 8.05 0.80 0.80 0.90 0.95 2.45 1.25 12.10 0.20 6.05 0.25 11.65 0.10 12.40 -0.35 1.75 -0.60 1.80 -14.70 2.15 -9.20 0.20 -12.30 0.10 -14.25 -0.45z"/>
  <path d="M187.35 47.20 c-0.20 -4.40 -0.35 -10.05 -0.35 -12.60 0 -4.55 -0.05 -4.70 -1.50 -6.20 -1.65 -1.65 -1.50 -1.65 -11.30 -0.60 -2.90 0.30 -3.05 0.25 -4.60 -1.25 -2.05 -2.10 -2.40 -3.50 -3.35 -14.55 -0.40 -5.10 -0.90 -9.85 -1 -10.60 l-0.20 -1.40 20.45 0 c11.25 0 20.55 0.15 20.65 0.40 0.15 0.20 0.50 4.50 0.80 9.60 0.50 8.05 0.45 11 -0.35 22.60 -0.90 12.70 -1 13.40 -2.30 15.60 -2.25 3.90 -6.50 6 -13.30 6.60 l-3.35 0.35 -0.30 -7.95z"/>
  <path d="M105.80 52.65 l-10.90 -0.15 0.35 -3.90 c0.15 -2.10 0.35 -6.55 0.40 -9.90 0.05 -5.30 -0.10 -6.25 -1.10 -8.35 -1.75 -3.60 -3.55 -4.30 -12.20 -4.85 -3.90 -0.25 -9.70 -0.50 -12.90 -0.50 -3.20 0 -7.20 -0.15 -8.90 -0.30 l-3.05 -0.35 0.30 -1.80 c0.50 -3 2.85 -7.20 4.65 -8.40 3.40 -2.30 4.55 -2.40 27.05 -2.40 l21.25 0 0.10 5.75 c0.20 10 2.30 17.20 6.10 21 2.55 2.55 4.50 3.25 10.45 3.80 l3.60 0.30 -0.05 2.10 c-0.05 3.55 -0.95 5.40 -3.40 6.75 -2.50 1.40 -4.45 1.50 -21.75 1.20z"/>
  <path d="M230.85 51.30 c-2.55 -0.70 -4.95 -2.65 -6.20 -5 -1.05 -2 -2.10 -8.30 -2.65 -16.05 -0.70 -9.05 -1.35 -15.95 -2.20 -23.25 -0.45 -3.45 -0.80 -6.40 -0.80 -6.60 0 -0.25 9.90 -0.40 22 -0.40 l22 0 0 10 0 10 -7.70 0 c-9.05 0 -11.70 0.65 -15.05 3.60 -1.85 1.65 -2.45 2.60 -3.30 5.55 -1.05 3.30 -1.10 4.20 -0.75 13.20 l0.30 9.65 -1.60 -0.05 c-0.90 0 -2.75 -0.30 -4.05 -0.65z"/>
  <path d="M28.60 43.50 c-2 -0.20 -9.25 -0.70 -16.10 -1.05 l-12.50 -0.60 0 -20.95 0 -20.90 14 0 13.95 0 -0.05 7.40 c-0.05 4.15 0.20 8.20 0.50 9.35 1.45 5.05 4.45 7.25 10.40 7.65 l3.60 0.20 0.35 8.85 c0.15 4.85 0.35 9.15 0.40 9.55 0.10 0.60 -0.85 0.75 -5.40 0.80 -3 0.05 -7.15 -0.10 -9.15 -0.30z"/>
  <path d="M43.80 41.40 c-0.15 -1.45 -0.30 -5.90 -0.30 -9.85 l0 -7.20 6.55 0.30 c3.65 0.20 6.65 0.40 6.75 0.50 0.40 0.35 -0.90 10 -1.60 11.95 -1.05 3 -3.45 5.30 -6.40 6.15 -4.25 1.30 -4.60 1.15 -5 -1.85z"/>
  <path d="M125.25 41.30 c-6.10 -0.95 -8 -2.25 -10.40 -7.10 -2.10 -4.20 -2.90 -8 -3.20 -15.55 l-0.30 -7.15 9.60 0 9.55 0 0 11.15 c0 6.10 0.15 12.95 0.35 15.25 0.35 4.75 0.90 4.40 -5.60 3.40z"/>
  <path d="M53 24 c-1.80 -0.20 -4.60 -0.40 -6.30 -0.45 l-3 -0.05 -0.65 -8.60 c-0.40 -4.75 -0.80 -10.05 -0.90 -11.75 l-0.25 -3.15 34.85 0 34.90 0 -0.35 2.30 c-0.15 1.30 -0.30 3.75 -0.30 5.50 l0 3.20 -21.40 0 c-23.30 0 -24.45 0.10 -27.95 2.75 -1.95 1.55 -3.95 5.40 -4.45 8.60 -0.15 1.20 -0.45 2.10 -0.65 2.05 -0.15 0 -1.75 -0.20 -3.55 -0.40z"/>
  <path d="M34.35 22.80 c-2.55 -0.95 -3.35 -1.70 -4.50 -4.30 -1.10 -2.50 -1.75 -11.95 -1.15 -16.20 l0.35 -2.30 5.95 0 5.90 0 0.30 2.35 c0.70 5.40 1.25 12.65 1.30 16.80 l0 4.35 -3.10 0 c-1.75 -0.05 -4 -0.35 -5.05 -0.70z"/>
  <path d="M111.70 7.80 c0.15 -1.60 0.30 -4.05 0.30 -5.35 l0 -2.45 9.55 0 9.55 0 -0.20 5.25 -0.20 5.25 -9.65 0.15 -9.65 0.15 0.30 -3z"/>
 </g>
</svg>